%TF.GenerationSoftware,KiCad,Pcbnew,8.0.5*%
%TF.CreationDate,2024-09-24T12:34:27-04:00*%
%TF.ProjectId,afe-featherwing,6166652d-6665-4617-9468-657277696e67,rev?*%
%TF.SameCoordinates,Original*%
%TF.FileFunction,Copper,L1,Top*%
%TF.FilePolarity,Positive*%
%FSLAX46Y46*%
G04 Gerber Fmt 4.6, Leading zero omitted, Abs format (unit mm)*
G04 Created by KiCad (PCBNEW 8.0.5) date 2024-09-24 12:34:27*
%MOMM*%
%LPD*%
G01*
G04 APERTURE LIST*
G04 Aperture macros list*
%AMRoundRect*
0 Rectangle with rounded corners*
0 $1 Rounding radius*
0 $2 $3 $4 $5 $6 $7 $8 $9 X,Y pos of 4 corners*
0 Add a 4 corners polygon primitive as box body*
4,1,4,$2,$3,$4,$5,$6,$7,$8,$9,$2,$3,0*
0 Add four circle primitives for the rounded corners*
1,1,$1+$1,$2,$3*
1,1,$1+$1,$4,$5*
1,1,$1+$1,$6,$7*
1,1,$1+$1,$8,$9*
0 Add four rect primitives between the rounded corners*
20,1,$1+$1,$2,$3,$4,$5,0*
20,1,$1+$1,$4,$5,$6,$7,0*
20,1,$1+$1,$6,$7,$8,$9,0*
20,1,$1+$1,$8,$9,$2,$3,0*%
G04 Aperture macros list end*
%TA.AperFunction,ComponentPad*%
%ADD10C,1.500000*%
%TD*%
%TA.AperFunction,SMDPad,CuDef*%
%ADD11RoundRect,0.100000X-0.100000X0.637500X-0.100000X-0.637500X0.100000X-0.637500X0.100000X0.637500X0*%
%TD*%
%TA.AperFunction,SMDPad,CuDef*%
%ADD12RoundRect,0.180000X0.720000X-1.170000X0.720000X1.170000X-0.720000X1.170000X-0.720000X-1.170000X0*%
%TD*%
%TA.AperFunction,SMDPad,CuDef*%
%ADD13RoundRect,0.240000X0.960000X-1.110000X0.960000X1.110000X-0.960000X1.110000X-0.960000X-1.110000X0*%
%TD*%
%TA.AperFunction,SMDPad,CuDef*%
%ADD14RoundRect,0.210000X0.840000X-1.140000X0.840000X1.140000X-0.840000X1.140000X-0.840000X-1.140000X0*%
%TD*%
%TA.AperFunction,SMDPad,CuDef*%
%ADD15RoundRect,0.270000X1.180000X-1.080000X1.180000X1.080000X-1.180000X1.080000X-1.180000X-1.080000X0*%
%TD*%
%TA.AperFunction,SMDPad,CuDef*%
%ADD16RoundRect,0.270000X1.080000X-1.080000X1.080000X1.080000X-1.080000X1.080000X-1.080000X-1.080000X0*%
%TD*%
%TA.AperFunction,SMDPad,CuDef*%
%ADD17RoundRect,0.147500X-0.172500X0.147500X-0.172500X-0.147500X0.172500X-0.147500X0.172500X0.147500X0*%
%TD*%
%TA.AperFunction,SMDPad,CuDef*%
%ADD18RoundRect,0.147500X0.147500X0.172500X-0.147500X0.172500X-0.147500X-0.172500X0.147500X-0.172500X0*%
%TD*%
%TA.AperFunction,ComponentPad*%
%ADD19RoundRect,0.444500X-0.444500X0.444500X-0.444500X-0.444500X0.444500X-0.444500X0.444500X0.444500X0*%
%TD*%
%TA.AperFunction,ComponentPad*%
%ADD20C,1.778000*%
%TD*%
%TA.AperFunction,SMDPad,CuDef*%
%ADD21RoundRect,0.147500X-0.147500X-0.172500X0.147500X-0.172500X0.147500X0.172500X-0.147500X0.172500X0*%
%TD*%
%TA.AperFunction,SMDPad,CuDef*%
%ADD22RoundRect,0.155000X-0.212500X-0.155000X0.212500X-0.155000X0.212500X0.155000X-0.212500X0.155000X0*%
%TD*%
%TA.AperFunction,SMDPad,CuDef*%
%ADD23RoundRect,0.250000X-0.550000X1.250000X-0.550000X-1.250000X0.550000X-1.250000X0.550000X1.250000X0*%
%TD*%
%TA.AperFunction,SMDPad,CuDef*%
%ADD24RoundRect,0.112500X0.112500X-0.187500X0.112500X0.187500X-0.112500X0.187500X-0.112500X-0.187500X0*%
%TD*%
%TA.AperFunction,SMDPad,CuDef*%
%ADD25RoundRect,0.112500X-0.112500X0.187500X-0.112500X-0.187500X0.112500X-0.187500X0.112500X0.187500X0*%
%TD*%
%TA.AperFunction,SMDPad,CuDef*%
%ADD26RoundRect,0.155000X-0.155000X0.212500X-0.155000X-0.212500X0.155000X-0.212500X0.155000X0.212500X0*%
%TD*%
%TA.AperFunction,SMDPad,CuDef*%
%ADD27RoundRect,0.155000X0.155000X-0.212500X0.155000X0.212500X-0.155000X0.212500X-0.155000X-0.212500X0*%
%TD*%
%TA.AperFunction,ComponentPad*%
%ADD28C,1.700000*%
%TD*%
%TA.AperFunction,ComponentPad*%
%ADD29O,1.700000X1.700000*%
%TD*%
%TA.AperFunction,ViaPad*%
%ADD30C,0.508000*%
%TD*%
%TA.AperFunction,Conductor*%
%ADD31C,0.152400*%
%TD*%
G04 APERTURE END LIST*
D10*
%TO.P,TP8,1,1*%
%TO.N,/ENVF_OUT_SCALED*%
X154940000Y-97790000D03*
%TD*%
%TO.P,TP7,1,1*%
%TO.N,/EF_OUT*%
X159766000Y-91694000D03*
%TD*%
%TO.P,TP6,1,1*%
%TO.N,/AMP_OUT {slash} EF_IN*%
X157988000Y-89535000D03*
%TD*%
%TO.P,TP5,1,1*%
%TO.N,/A3*%
X156210000Y-100330000D03*
%TD*%
%TO.P,TP4,1,1*%
%TO.N,/A2*%
X153670000Y-100330000D03*
%TD*%
%TO.P,TP3,1,1*%
%TO.N,/A1*%
X151130000Y-100330000D03*
%TD*%
%TO.P,TP2,1,1*%
%TO.N,/A0*%
X148590000Y-100330000D03*
%TD*%
%TO.P,TP1,1,1*%
%TO.N,/AMP_OUT_SCALED*%
X149860000Y-97790000D03*
%TD*%
D11*
%TO.P,U1,1,1OUT*%
%TO.N,Net-(D3-K)*%
X155571600Y-89681100D03*
%TO.P,U1,2,1IN-*%
%TO.N,GND*%
X154921600Y-89681100D03*
%TO.P,U1,3,1IN+*%
%TO.N,Net-(D3-A)*%
X154271600Y-89681100D03*
%TO.P,U1,4,VCC*%
%TO.N,+12V*%
X153621600Y-89681100D03*
%TO.P,U1,5,2IN+*%
%TO.N,Net-(JP1-B)*%
X152971600Y-89681100D03*
%TO.P,U1,6,2IN-*%
%TO.N,/SIGNAL_IN*%
X152321600Y-89681100D03*
%TO.P,U1,7,2OUT*%
%TO.N,/AMP_OUT {slash} EF_IN*%
X151671600Y-89681100D03*
%TO.P,U1,8,3OUT*%
%TO.N,/AMP_BUFFERED*%
X151671600Y-95406100D03*
%TO.P,U1,9,3IN-*%
X152321600Y-95406100D03*
%TO.P,U1,10,3IN+*%
%TO.N,/AMP_OUT {slash} EF_IN*%
X152971600Y-95406100D03*
%TO.P,U1,11,VEE*%
%TO.N,-12V*%
X153621600Y-95406100D03*
%TO.P,U1,12,4IN+*%
%TO.N,/EF_OUT*%
X154271600Y-95406100D03*
%TO.P,U1,13,4IN-*%
%TO.N,/EF_BUFFERED*%
X154921600Y-95406100D03*
%TO.P,U1,14,4OUT*%
X155571600Y-95406100D03*
%TD*%
D12*
%TO.P,J1,11,RN*%
%TO.N,GND*%
X140260000Y-87260000D03*
D13*
%TO.P,J1,10,TN*%
X139060000Y-97960000D03*
D14*
%TO.P,J1,3,R*%
X143260000Y-87260000D03*
D15*
%TO.P,J1,2,T*%
%TO.N,/SIGNAL_IN*%
X143460000Y-97960000D03*
D16*
%TO.P,J1,1,S*%
%TO.N,GND*%
X136960000Y-87260000D03*
%TD*%
D17*
%TO.P,R11,2*%
%TO.N,GND*%
X147828000Y-98044000D03*
%TO.P,R11,1*%
%TO.N,/AMP_OUT_SCALED*%
X147828000Y-97074000D03*
%TD*%
%TO.P,R10,2*%
%TO.N,/AMP_OUT_SCALED*%
X147828000Y-96012000D03*
%TO.P,R10,1*%
%TO.N,/AMP_BUFFERED*%
X147828000Y-95042000D03*
%TD*%
D18*
%TO.P,R9,2*%
%TO.N,/ENVF_OUT_SCALED*%
X151915000Y-97155000D03*
%TO.P,R9,1*%
%TO.N,/EF_BUFFERED*%
X152885000Y-97155000D03*
%TD*%
%TO.P,R8,2*%
%TO.N,GND*%
X151915000Y-98298000D03*
%TO.P,R8,1*%
%TO.N,/ENVF_OUT_SCALED*%
X152885000Y-98298000D03*
%TD*%
D19*
%TO.P,J5,1*%
%TO.N,+12V*%
X169672000Y-88900000D03*
D20*
%TO.P,J5,2*%
%TO.N,GND*%
X169672000Y-91440000D03*
%TO.P,J5,3*%
%TO.N,-12V*%
X169672000Y-93980000D03*
%TO.P,J5,4*%
%TO.N,Net-(JP10-B)*%
X169672000Y-96520000D03*
%TD*%
D21*
%TO.P,R16,2*%
%TO.N,Net-(D6-K)*%
X158219000Y-98933000D03*
%TO.P,R16,1*%
%TO.N,Net-(JP8-B)*%
X157249000Y-98933000D03*
%TD*%
D18*
%TO.P,R14,2*%
%TO.N,Net-(D6-K)*%
X159281000Y-97790000D03*
%TO.P,R14,1*%
%TO.N,Net-(JP5-B)*%
X160251000Y-97790000D03*
%TD*%
%TO.P,R13,2*%
%TO.N,Net-(D6-K)*%
X159281000Y-98933000D03*
%TO.P,R13,1*%
%TO.N,Net-(JP6-B)*%
X160251000Y-98933000D03*
%TD*%
%TO.P,R5,1*%
%TO.N,Net-(C1-Pad2)*%
X151107000Y-86614000D03*
%TO.P,R5,2*%
%TO.N,Net-(JP4-A)*%
X150137000Y-86614000D03*
%TD*%
D21*
%TO.P,R1,2*%
%TO.N,Net-(JP1-A)*%
X153291400Y-86621400D03*
%TO.P,R1,1*%
%TO.N,Net-(C1-Pad2)*%
X152321400Y-86621400D03*
%TD*%
D22*
%TO.P,C1,2*%
%TO.N,Net-(C1-Pad2)*%
X151113300Y-87891400D03*
%TO.P,C1,1*%
%TO.N,GND*%
X149978300Y-87891400D03*
%TD*%
D23*
%TO.P,C7,1*%
%TO.N,+12V*%
X164592000Y-86547600D03*
%TO.P,C7,2*%
%TO.N,GND*%
X164592000Y-90947600D03*
%TD*%
%TO.P,C8,2*%
%TO.N,-12V*%
X164592000Y-99314000D03*
%TO.P,C8,1*%
%TO.N,GND*%
X164592000Y-94914000D03*
%TD*%
D21*
%TO.P,R15,2*%
%TO.N,Net-(D6-K)*%
X158219000Y-97790000D03*
%TO.P,R15,1*%
%TO.N,Net-(JP7-B)*%
X157249000Y-97790000D03*
%TD*%
D17*
%TO.P,R12,1*%
%TO.N,/RECTIFIER_OUT*%
X160274000Y-87272000D03*
%TO.P,R12,2*%
%TO.N,Net-(D5-A)*%
X160274000Y-88242000D03*
%TD*%
D21*
%TO.P,R4,2*%
%TO.N,Net-(C1-Pad2)*%
X151157800Y-85478400D03*
%TO.P,R4,1*%
%TO.N,Net-(JP3-A)*%
X150187800Y-85478400D03*
%TD*%
D17*
%TO.P,R7,2*%
%TO.N,/RECTIFIER_OUT*%
X160274000Y-86083000D03*
%TO.P,R7,1*%
%TO.N,Net-(D3-A)*%
X160274000Y-85113000D03*
%TD*%
%TO.P,R6,2*%
%TO.N,Net-(D3-A)*%
X154686000Y-87817600D03*
%TO.P,R6,1*%
%TO.N,/AMP_OUT {slash} EF_IN*%
X154686000Y-86847600D03*
%TD*%
D24*
%TO.P,D6,1,K*%
%TO.N,Net-(D6-K)*%
X159743000Y-96182800D03*
%TO.P,D6,2,A*%
%TO.N,/EF_OUT*%
X159743000Y-94082800D03*
%TD*%
%TO.P,D5,1,K*%
%TO.N,/EF_OUT*%
X157655400Y-96182800D03*
%TO.P,D5,2,A*%
%TO.N,Net-(D5-A)*%
X157655400Y-94082800D03*
%TD*%
D25*
%TO.P,D4,1,K*%
%TO.N,/RECTIFIER_OUT*%
X158623000Y-85564000D03*
%TO.P,D4,2,A*%
%TO.N,Net-(D3-K)*%
X158623000Y-87664000D03*
%TD*%
D24*
%TO.P,D3,1,K*%
%TO.N,Net-(D3-K)*%
X156591000Y-87630000D03*
%TO.P,D3,2,A*%
%TO.N,Net-(D3-A)*%
X156591000Y-85530000D03*
%TD*%
D26*
%TO.P,C6,2*%
%TO.N,/EF_OUT*%
X150091000Y-95751100D03*
%TO.P,C6,1*%
%TO.N,GND*%
X150091000Y-94616100D03*
%TD*%
D25*
%TO.P,D2,1,K*%
%TO.N,/SIGNAL_IN*%
X148082000Y-91499000D03*
%TO.P,D2,2,A*%
%TO.N,-12V*%
X148082000Y-93599000D03*
%TD*%
%TO.P,D1,1,K*%
%TO.N,+12V*%
X148082000Y-87943000D03*
%TO.P,D1,2,A*%
%TO.N,/SIGNAL_IN*%
X148082000Y-90043000D03*
%TD*%
D21*
%TO.P,R2,2*%
%TO.N,Net-(JP2-A)*%
X153266000Y-85471000D03*
%TO.P,R2,1*%
%TO.N,Net-(C1-Pad2)*%
X152296000Y-85471000D03*
%TD*%
D18*
%TO.P,R3,2*%
%TO.N,/AMP_OUT {slash} EF_IN*%
X152346800Y-87866000D03*
%TO.P,R3,1*%
%TO.N,Net-(JP1-B)*%
X153316800Y-87866000D03*
%TD*%
D27*
%TO.P,C5,2*%
%TO.N,+12V*%
X157226000Y-91380500D03*
%TO.P,C5,1*%
%TO.N,-12V*%
X157226000Y-92515500D03*
%TD*%
%TO.P,C3,2*%
%TO.N,+12V*%
X150091000Y-89536100D03*
%TO.P,C3,1*%
%TO.N,GND*%
X150091000Y-90671100D03*
%TD*%
%TO.P,C2,2*%
%TO.N,GND*%
X150091000Y-92076100D03*
%TO.P,C2,1*%
%TO.N,-12V*%
X150091000Y-93211100D03*
%TD*%
D28*
%TO.P,J3,1*%
%TO.N,/VBAT*%
X148590000Y-82550000D03*
D29*
%TO.P,J3,2*%
%TO.N,/~{EN}*%
X151130000Y-82550000D03*
%TO.P,J3,3*%
%TO.N,/USB*%
X153670000Y-82550000D03*
%TO.P,J3,4*%
%TO.N,/D13*%
X156210000Y-82550000D03*
%TO.P,J3,5*%
%TO.N,/D12*%
X158750000Y-82550000D03*
%TO.P,J3,6*%
%TO.N,/D11*%
X161290000Y-82550000D03*
%TO.P,J3,7*%
%TO.N,/D10*%
X163830000Y-82550000D03*
%TO.P,J3,8*%
%TO.N,/D9*%
X166370000Y-82550000D03*
%TO.P,J3,9*%
%TO.N,/D6*%
X168910000Y-82550000D03*
%TO.P,J3,10*%
%TO.N,unconnected-(J3-Pad10)*%
X171450000Y-82550000D03*
%TO.P,J3,11*%
%TO.N,/SCL*%
X173990000Y-82550000D03*
%TO.P,J3,12*%
%TO.N,/SDA*%
X176530000Y-82550000D03*
%TD*%
%TO.P,J2,16*%
%TO.N,/~{RST}*%
X138430000Y-102870000D03*
%TO.P,J2,15*%
%TO.N,unconnected-(J2-Pad15)*%
X140970000Y-102870000D03*
%TO.P,J2,14*%
%TO.N,/VREF*%
X143510000Y-102870000D03*
%TO.P,J2,13*%
%TO.N,GND*%
X146050000Y-102870000D03*
%TO.P,J2,12*%
%TO.N,/A0*%
X148590000Y-102870000D03*
%TO.P,J2,11*%
%TO.N,/A1*%
X151130000Y-102870000D03*
%TO.P,J2,10*%
%TO.N,/A2*%
X153670000Y-102870000D03*
%TO.P,J2,9*%
%TO.N,/A3*%
X156210000Y-102870000D03*
%TO.P,J2,8*%
%TO.N,unconnected-(J2-Pad8)*%
X158750000Y-102870000D03*
%TO.P,J2,7*%
%TO.N,unconnected-(J2-Pad7)*%
X161290000Y-102870000D03*
%TO.P,J2,6*%
%TO.N,/SCK*%
X163830000Y-102870000D03*
%TO.P,J2,5*%
%TO.N,/MOSI*%
X166370000Y-102870000D03*
%TO.P,J2,4*%
%TO.N,/MISO*%
X168910000Y-102870000D03*
%TO.P,J2,3*%
%TO.N,/RX*%
X171450000Y-102870000D03*
%TO.P,J2,2*%
%TO.N,/TX*%
X173990000Y-102870000D03*
D28*
%TO.P,J2,1*%
%TO.N,/USER*%
X176530000Y-102870000D03*
%TD*%
D30*
%TO.N,Net-(JP8-B)*%
X159766000Y-99695000D03*
%TO.N,Net-(JP5-B)*%
X162684400Y-98552000D03*
%TO.N,Net-(JP6-B)*%
X166624000Y-98933000D03*
%TO.N,/EF_BUFFERED*%
X155956000Y-95758000D03*
%TO.N,/RECTIFIER_OUT*%
X161163000Y-94869000D03*
%TO.N,/ENVF_OUT_SCALED*%
X166751000Y-95250000D03*
%TO.N,GND*%
X152019000Y-98806000D03*
X147828000Y-98552000D03*
%TO.N,/AMP_OUT {slash} EF_IN*%
X151638000Y-90551000D03*
X152146000Y-92456000D03*
%TO.N,Net-(JP7-B)*%
X157226000Y-97282000D03*
%TO.N,Net-(JP3-A)*%
X149509400Y-86113835D03*
%TO.N,Net-(JP4-A)*%
X148971000Y-86614000D03*
%TO.N,Net-(JP2-A)*%
X152971974Y-85915974D03*
%TO.N,Net-(JP1-B)*%
X153924000Y-87757000D03*
%TO.N,Net-(JP1-A)*%
X154432615Y-86151654D03*
%TO.N,+12V*%
X148463000Y-87916400D03*
X150622000Y-89535000D03*
X153543000Y-90551000D03*
X156718000Y-91440000D03*
X164973000Y-88138000D03*
X164211000Y-88138000D03*
%TO.N,-12V*%
X147701000Y-93631400D03*
X150495000Y-93218000D03*
X153543000Y-94488000D03*
X157226000Y-93091000D03*
X164973000Y-97663000D03*
X164211000Y-97663000D03*
%TO.N,GND*%
X149606000Y-92075000D03*
X163703000Y-91948000D03*
X163703000Y-90932000D03*
X163703000Y-90043000D03*
X163703000Y-95885000D03*
X163703000Y-94996000D03*
X163703000Y-94107000D03*
X138430000Y-96520000D03*
X139446000Y-96520000D03*
X140208000Y-88646000D03*
X137414000Y-88773000D03*
X142875000Y-88646000D03*
X143891000Y-88646000D03*
X143764000Y-85852000D03*
X142875000Y-85852000D03*
X149987000Y-88392000D03*
X149606000Y-94615000D03*
X149606000Y-90678000D03*
X154940000Y-90551000D03*
%TD*%
D31*
%TO.N,/AMP_OUT {slash} EF_IN*%
X157226000Y-90297000D02*
X157988000Y-89535000D01*
X156591000Y-90297000D02*
X157226000Y-90297000D01*
%TO.N,/EF_OUT*%
X159743000Y-91717000D02*
X159766000Y-91694000D01*
X159743000Y-94082800D02*
X159743000Y-91717000D01*
%TO.N,Net-(JP8-B)*%
X158011000Y-99695000D02*
X159766000Y-99695000D01*
X157249000Y-98933000D02*
X158011000Y-99695000D01*
%TO.N,/ENVF_OUT_SCALED*%
X153543000Y-97790000D02*
X154940000Y-97790000D01*
X153035000Y-98298000D02*
X153543000Y-97790000D01*
X152885000Y-98298000D02*
X153035000Y-98298000D01*
X152885000Y-98125000D02*
X152885000Y-98298000D01*
X151915000Y-97155000D02*
X152885000Y-98125000D01*
%TO.N,/EF_BUFFERED*%
X154921600Y-96143599D02*
X154921600Y-95406100D01*
X153910199Y-97155000D02*
X154921600Y-96143599D01*
X152885000Y-97155000D02*
X153910199Y-97155000D01*
%TO.N,Net-(JP5-B)*%
X161922400Y-97790000D02*
X162684400Y-98552000D01*
X160251000Y-97790000D02*
X161922400Y-97790000D01*
%TO.N,Net-(JP6-B)*%
X166624000Y-99765770D02*
X166624000Y-98933000D01*
X165297770Y-101092000D02*
X166624000Y-99765770D01*
X163068000Y-101092000D02*
X165100000Y-101092000D01*
X162941000Y-100965000D02*
X163068000Y-101092000D01*
X165100000Y-101092000D02*
X165297770Y-101092000D01*
X160909000Y-98933000D02*
X162941000Y-100965000D01*
X160251000Y-98933000D02*
X160909000Y-98933000D01*
%TO.N,/ENVF_OUT_SCALED*%
X158177600Y-96711400D02*
X156018600Y-96711400D01*
X156018600Y-96711400D02*
X154940000Y-97790000D01*
X159385000Y-95504000D02*
X158177600Y-96711400D01*
X160655000Y-95504000D02*
X159385000Y-95504000D01*
X166751000Y-95250000D02*
X165100000Y-96901000D01*
X162052000Y-96901000D02*
X160655000Y-95504000D01*
X165100000Y-96901000D02*
X162052000Y-96901000D01*
%TO.N,/AMP_OUT {slash} EF_IN*%
X156591000Y-90297000D02*
X153606400Y-93281600D01*
X153606400Y-93281600D02*
X152971600Y-93281600D01*
%TO.N,Net-(D5-A)*%
X160274000Y-89154000D02*
X160274000Y-88242000D01*
X158242000Y-91186000D02*
X160274000Y-89154000D01*
X158242000Y-93496200D02*
X158242000Y-91186000D01*
X157655400Y-94082800D02*
X158242000Y-93496200D01*
%TO.N,/AMP_OUT {slash} EF_IN*%
X151638000Y-89714700D02*
X151671600Y-89681100D01*
X151638000Y-90551000D02*
X151638000Y-89714700D01*
X152146000Y-92456000D02*
X152971600Y-93281600D01*
X152971600Y-93281600D02*
X152971600Y-95406100D01*
%TO.N,/EF_BUFFERED*%
X155923500Y-95758000D02*
X155571600Y-95406100D01*
X155956000Y-95758000D02*
X155923500Y-95758000D01*
%TO.N,/RECTIFIER_OUT*%
X161163000Y-87630000D02*
X161163000Y-94869000D01*
X160805000Y-87272000D02*
X161163000Y-87630000D01*
X160274000Y-87272000D02*
X160805000Y-87272000D01*
X160274000Y-87272000D02*
X160274000Y-86083000D01*
X159142000Y-86083000D02*
X158623000Y-85564000D01*
X160274000Y-86083000D02*
X159142000Y-86083000D01*
%TO.N,Net-(D3-A)*%
X157285000Y-84836000D02*
X159997000Y-84836000D01*
X156591000Y-85530000D02*
X157285000Y-84836000D01*
X159997000Y-84836000D02*
X160274000Y-85113000D01*
%TO.N,/AMP_OUT_SCALED*%
X149144000Y-97074000D02*
X149860000Y-97790000D01*
X147828000Y-97074000D02*
X149144000Y-97074000D01*
X147828000Y-96012000D02*
X147828000Y-97074000D01*
%TO.N,/AMP_BUFFERED*%
X148850000Y-94020000D02*
X147828000Y-95042000D01*
X151671600Y-94668601D02*
X151022999Y-94020000D01*
X151022999Y-94020000D02*
X148850000Y-94020000D01*
X151671600Y-95406100D02*
X151671600Y-94668601D01*
X152321600Y-95406100D02*
X151671600Y-95406100D01*
%TO.N,/SIGNAL_IN*%
X151598000Y-91480000D02*
X152321600Y-90756400D01*
X152321600Y-90756400D02*
X152321600Y-89681100D01*
X148101000Y-91480000D02*
X151598000Y-91480000D01*
X148082000Y-91499000D02*
X148101000Y-91480000D01*
X148082000Y-90043000D02*
X148082000Y-91499000D01*
X143460000Y-96121000D02*
X148082000Y-91499000D01*
X143460000Y-97960000D02*
X143460000Y-96121000D01*
%TO.N,/EF_OUT*%
X159743000Y-94095200D02*
X159743000Y-94082800D01*
X157655400Y-96182800D02*
X159743000Y-94095200D01*
X154682718Y-94440000D02*
X155912600Y-94440000D01*
X154271600Y-94851118D02*
X154682718Y-94440000D01*
X154271600Y-95406100D02*
X154271600Y-94851118D01*
X155912600Y-94440000D02*
X157655400Y-96182800D01*
X154271600Y-95961082D02*
X154271600Y-95406100D01*
X150712100Y-96372200D02*
X153860482Y-96372200D01*
X150091000Y-95751100D02*
X150712100Y-96372200D01*
X153860482Y-96372200D02*
X154271600Y-95961082D01*
%TO.N,/AMP_OUT {slash} EF_IN*%
X154363600Y-87170000D02*
X154686000Y-86847600D01*
X153042800Y-87170000D02*
X154363600Y-87170000D01*
X152346800Y-87866000D02*
X153042800Y-87170000D01*
X151671600Y-88541200D02*
X152346800Y-87866000D01*
X151671600Y-89681100D02*
X151671600Y-88541200D01*
%TO.N,/ENVF_OUT_SCALED*%
X152042000Y-97155000D02*
X152042000Y-97328000D01*
%TO.N,/EF_BUFFERED*%
X155571600Y-95406100D02*
X154921600Y-95406100D01*
%TO.N,Net-(D6-K)*%
X159281000Y-96644800D02*
X159743000Y-96182800D01*
X159281000Y-97790000D02*
X159281000Y-96644800D01*
X158219000Y-97790000D02*
X159281000Y-97790000D01*
X159281000Y-97790000D02*
X159281000Y-98933000D01*
X158219000Y-98933000D02*
X159281000Y-98933000D01*
%TO.N,Net-(JP7-B)*%
X157226000Y-97282000D02*
X157226000Y-97767000D01*
X157226000Y-97767000D02*
X157249000Y-97790000D01*
%TO.N,Net-(C1-Pad2)*%
X151114400Y-86621400D02*
X151107000Y-86614000D01*
X152321400Y-86621400D02*
X151114400Y-86621400D01*
X151107000Y-87885100D02*
X151113300Y-87891400D01*
X151107000Y-86614000D02*
X151107000Y-87885100D01*
X151157800Y-86563200D02*
X151107000Y-86614000D01*
X151157800Y-85478400D02*
X151157800Y-86563200D01*
X151165200Y-85471000D02*
X151157800Y-85478400D01*
X152296000Y-85471000D02*
X151165200Y-85471000D01*
%TO.N,Net-(JP3-A)*%
X150144835Y-85478400D02*
X149509400Y-86113835D01*
X150187800Y-85478400D02*
X150144835Y-85478400D01*
%TO.N,Net-(JP4-A)*%
X150137000Y-86614000D02*
X148971000Y-86614000D01*
%TO.N,/A3*%
X156210000Y-102870000D02*
X156210000Y-100330000D01*
%TO.N,/A2*%
X153670000Y-102870000D02*
X153670000Y-100330000D01*
%TO.N,/A1*%
X151130000Y-102870000D02*
X151130000Y-100330000D01*
%TO.N,/A0*%
X148590000Y-102870000D02*
X148590000Y-100330000D01*
%TO.N,Net-(JP1-B)*%
X153815000Y-87866000D02*
X153924000Y-87757000D01*
X153316800Y-87866000D02*
X153815000Y-87866000D01*
%TO.N,Net-(JP1-A)*%
X153761146Y-86151654D02*
X153291400Y-86621400D01*
X154432615Y-86151654D02*
X153761146Y-86151654D01*
%TO.N,Net-(JP1-B)*%
X152971600Y-88211200D02*
X153316800Y-87866000D01*
X152971600Y-89681100D02*
X152971600Y-88211200D01*
%TO.N,Net-(D3-A)*%
X156591000Y-85912600D02*
X156591000Y-85530000D01*
X154686000Y-87817600D02*
X156591000Y-85912600D01*
X154271600Y-88232000D02*
X154686000Y-87817600D01*
X154271600Y-89681100D02*
X154271600Y-88232000D01*
%TO.N,Net-(D3-K)*%
X156625000Y-87664000D02*
X156591000Y-87630000D01*
X158623000Y-87664000D02*
X156625000Y-87664000D01*
X156537800Y-87620600D02*
X156514800Y-87597600D01*
X156514800Y-88737900D02*
X155571600Y-89681100D01*
X156514800Y-87597600D02*
X156514800Y-88737900D01*
%TD*%
M02*
