%TF.GenerationSoftware,KiCad,Pcbnew,8.0.5*%
%TF.CreationDate,2024-09-24T12:34:27-04:00*%
%TF.ProjectId,afe-featherwing,6166652d-6665-4617-9468-657277696e67,rev?*%
%TF.SameCoordinates,Original*%
%TF.FileFunction,Copper,L4,Bot*%
%TF.FilePolarity,Positive*%
%FSLAX46Y46*%
G04 Gerber Fmt 4.6, Leading zero omitted, Abs format (unit mm)*
G04 Created by KiCad (PCBNEW 8.0.5) date 2024-09-24 12:34:27*
%MOMM*%
%LPD*%
G01*
G04 APERTURE LIST*
G04 Aperture macros list*
%AMRoundRect*
0 Rectangle with rounded corners*
0 $1 Rounding radius*
0 $2 $3 $4 $5 $6 $7 $8 $9 X,Y pos of 4 corners*
0 Add a 4 corners polygon primitive as box body*
4,1,4,$2,$3,$4,$5,$6,$7,$8,$9,$2,$3,0*
0 Add four circle primitives for the rounded corners*
1,1,$1+$1,$2,$3*
1,1,$1+$1,$4,$5*
1,1,$1+$1,$6,$7*
1,1,$1+$1,$8,$9*
0 Add four rect primitives between the rounded corners*
20,1,$1+$1,$2,$3,$4,$5,0*
20,1,$1+$1,$4,$5,$6,$7,0*
20,1,$1+$1,$6,$7,$8,$9,0*
20,1,$1+$1,$8,$9,$2,$3,0*%
%AMFreePoly0*
4,1,6,1.000000,0.000000,0.500000,-0.750000,-0.500000,-0.750000,-0.500000,0.750000,0.500000,0.750000,1.000000,0.000000,1.000000,0.000000,$1*%
%AMFreePoly1*
4,1,6,0.500000,-0.750000,-0.650000,-0.750000,-0.150000,0.000000,-0.650000,0.750000,0.500000,0.750000,0.500000,-0.750000,0.500000,-0.750000,$1*%
G04 Aperture macros list end*
%TA.AperFunction,EtchedComponent*%
%ADD10C,0.000000*%
%TD*%
%TA.AperFunction,SMDPad,CuDef*%
%ADD11FreePoly0,90.000000*%
%TD*%
%TA.AperFunction,SMDPad,CuDef*%
%ADD12FreePoly1,90.000000*%
%TD*%
%TA.AperFunction,ComponentPad*%
%ADD13C,1.500000*%
%TD*%
%TA.AperFunction,SMDPad,CuDef*%
%ADD14R,1.500000X1.000000*%
%TD*%
%TA.AperFunction,SMDPad,CuDef*%
%ADD15FreePoly0,270.000000*%
%TD*%
%TA.AperFunction,SMDPad,CuDef*%
%ADD16FreePoly1,270.000000*%
%TD*%
%TA.AperFunction,ComponentPad*%
%ADD17RoundRect,0.444500X-0.444500X0.444500X-0.444500X-0.444500X0.444500X-0.444500X0.444500X0.444500X0*%
%TD*%
%TA.AperFunction,ComponentPad*%
%ADD18C,1.778000*%
%TD*%
%TA.AperFunction,ComponentPad*%
%ADD19C,1.700000*%
%TD*%
%TA.AperFunction,ComponentPad*%
%ADD20O,1.700000X1.700000*%
%TD*%
%TA.AperFunction,ViaPad*%
%ADD21C,0.508000*%
%TD*%
%TA.AperFunction,Conductor*%
%ADD22C,0.152400*%
%TD*%
G04 APERTURE END LIST*
D10*
%TA.AperFunction,EtchedComponent*%
%TO.C,JP10*%
G36*
X172385000Y-96135000D02*
G01*
X171785000Y-96135000D01*
X171785000Y-95635000D01*
X172385000Y-95635000D01*
X172385000Y-96135000D01*
G37*
%TD.AperFunction*%
%TA.AperFunction,EtchedComponent*%
%TO.C,JP1*%
G36*
X155621000Y-86102000D02*
G01*
X155021000Y-86102000D01*
X155021000Y-85602000D01*
X155621000Y-85602000D01*
X155621000Y-86102000D01*
G37*
%TD.AperFunction*%
%TA.AperFunction,EtchedComponent*%
%TO.C,JP5*%
G36*
X164022400Y-100490000D02*
G01*
X163422400Y-100490000D01*
X163422400Y-99990000D01*
X164022400Y-99990000D01*
X164022400Y-100490000D01*
G37*
%TD.AperFunction*%
%TD*%
D11*
%TO.P,JP8,1,A*%
%TO.N,/RECTIFIER_OUT*%
X158877000Y-100965000D03*
D12*
%TO.P,JP8,2,B*%
%TO.N,Net-(JP8-B)*%
X158877000Y-99515000D03*
%TD*%
D11*
%TO.P,JP7,1,A*%
%TO.N,/RECTIFIER_OUT*%
X161309400Y-100965000D03*
D12*
%TO.P,JP7,2,B*%
%TO.N,Net-(JP7-B)*%
X161309400Y-99515000D03*
%TD*%
D13*
%TO.P,TP8,1,1*%
%TO.N,/ENVF_OUT_SCALED*%
X154940000Y-97790000D03*
%TD*%
%TO.P,TP7,1,1*%
%TO.N,/EF_OUT*%
X159766000Y-91694000D03*
%TD*%
%TO.P,TP6,1,1*%
%TO.N,/AMP_OUT {slash} EF_IN*%
X157988000Y-89535000D03*
%TD*%
%TO.P,TP5,1,1*%
%TO.N,/A3*%
X156210000Y-100330000D03*
%TD*%
%TO.P,TP4,1,1*%
%TO.N,/A2*%
X153670000Y-100330000D03*
%TD*%
%TO.P,TP3,1,1*%
%TO.N,/A1*%
X151130000Y-100330000D03*
%TD*%
%TO.P,TP2,1,1*%
%TO.N,/A0*%
X148590000Y-100330000D03*
%TD*%
%TO.P,TP1,1,1*%
%TO.N,/AMP_OUT_SCALED*%
X149860000Y-97790000D03*
%TD*%
D14*
%TO.P,JP10,1,A*%
%TO.N,/ENVF_OUT_SCALED*%
X172085000Y-95235000D03*
%TO.P,JP10,2,B*%
%TO.N,Net-(JP10-B)*%
X172085000Y-96535000D03*
%TD*%
%TO.P,JP1,1,A*%
%TO.N,Net-(JP1-A)*%
X155321000Y-86502000D03*
%TO.P,JP1,2,B*%
%TO.N,Net-(JP1-B)*%
X155321000Y-85202000D03*
%TD*%
D15*
%TO.P,JP9,1,A*%
%TO.N,/EF_BUFFERED*%
X174498000Y-95160000D03*
D16*
%TO.P,JP9,2,B*%
%TO.N,Net-(JP10-B)*%
X174498000Y-96610000D03*
%TD*%
D11*
%TO.P,JP6,1,A*%
%TO.N,/RECTIFIER_OUT*%
X166135400Y-100965000D03*
D12*
%TO.P,JP6,2,B*%
%TO.N,Net-(JP6-B)*%
X166135400Y-99515000D03*
%TD*%
D14*
%TO.P,JP5,1,A*%
%TO.N,/RECTIFIER_OUT*%
X163722400Y-100890000D03*
%TO.P,JP5,2,B*%
%TO.N,Net-(JP5-B)*%
X163722400Y-99590000D03*
%TD*%
D11*
%TO.P,JP4,1,A*%
%TO.N,Net-(JP4-A)*%
X148082000Y-86577000D03*
D12*
%TO.P,JP4,2,B*%
%TO.N,Net-(JP1-B)*%
X148082000Y-85127000D03*
%TD*%
D11*
%TO.P,JP3,1,A*%
%TO.N,Net-(JP3-A)*%
X150495000Y-86577000D03*
D12*
%TO.P,JP3,2,B*%
%TO.N,Net-(JP1-B)*%
X150495000Y-85127000D03*
%TD*%
D11*
%TO.P,JP2,1,A*%
%TO.N,Net-(JP2-A)*%
X152908000Y-86577000D03*
D12*
%TO.P,JP2,2,B*%
%TO.N,Net-(JP1-B)*%
X152908000Y-85127000D03*
%TD*%
D17*
%TO.P,J5,1*%
%TO.N,+12V*%
X169672000Y-88900000D03*
D18*
%TO.P,J5,2*%
%TO.N,GND*%
X169672000Y-91440000D03*
%TO.P,J5,3*%
%TO.N,-12V*%
X169672000Y-93980000D03*
%TO.P,J5,4*%
%TO.N,Net-(JP10-B)*%
X169672000Y-96520000D03*
%TD*%
D19*
%TO.P,J3,1*%
%TO.N,/VBAT*%
X148590000Y-82550000D03*
D20*
%TO.P,J3,2*%
%TO.N,/~{EN}*%
X151130000Y-82550000D03*
%TO.P,J3,3*%
%TO.N,/USB*%
X153670000Y-82550000D03*
%TO.P,J3,4*%
%TO.N,/D13*%
X156210000Y-82550000D03*
%TO.P,J3,5*%
%TO.N,/D12*%
X158750000Y-82550000D03*
%TO.P,J3,6*%
%TO.N,/D11*%
X161290000Y-82550000D03*
%TO.P,J3,7*%
%TO.N,/D10*%
X163830000Y-82550000D03*
%TO.P,J3,8*%
%TO.N,/D9*%
X166370000Y-82550000D03*
%TO.P,J3,9*%
%TO.N,/D6*%
X168910000Y-82550000D03*
%TO.P,J3,10*%
%TO.N,unconnected-(J3-Pad10)*%
X171450000Y-82550000D03*
%TO.P,J3,11*%
%TO.N,/SCL*%
X173990000Y-82550000D03*
%TO.P,J3,12*%
%TO.N,/SDA*%
X176530000Y-82550000D03*
%TD*%
%TO.P,J2,16*%
%TO.N,/~{RST}*%
X138430000Y-102870000D03*
%TO.P,J2,15*%
%TO.N,unconnected-(J2-Pad15)*%
X140970000Y-102870000D03*
%TO.P,J2,14*%
%TO.N,/VREF*%
X143510000Y-102870000D03*
%TO.P,J2,13*%
%TO.N,GND*%
X146050000Y-102870000D03*
%TO.P,J2,12*%
%TO.N,/A0*%
X148590000Y-102870000D03*
%TO.P,J2,11*%
%TO.N,/A1*%
X151130000Y-102870000D03*
%TO.P,J2,10*%
%TO.N,/A2*%
X153670000Y-102870000D03*
%TO.P,J2,9*%
%TO.N,/A3*%
X156210000Y-102870000D03*
%TO.P,J2,8*%
%TO.N,unconnected-(J2-Pad8)*%
X158750000Y-102870000D03*
%TO.P,J2,7*%
%TO.N,unconnected-(J2-Pad7)*%
X161290000Y-102870000D03*
%TO.P,J2,6*%
%TO.N,/SCK*%
X163830000Y-102870000D03*
%TO.P,J2,5*%
%TO.N,/MOSI*%
X166370000Y-102870000D03*
%TO.P,J2,4*%
%TO.N,/MISO*%
X168910000Y-102870000D03*
%TO.P,J2,3*%
%TO.N,/RX*%
X171450000Y-102870000D03*
%TO.P,J2,2*%
%TO.N,/TX*%
X173990000Y-102870000D03*
D19*
%TO.P,J2,1*%
%TO.N,/USER*%
X176530000Y-102870000D03*
%TD*%
D21*
%TO.N,Net-(JP8-B)*%
X159766000Y-99695000D03*
%TO.N,Net-(JP5-B)*%
X162684400Y-98552000D03*
%TO.N,Net-(JP6-B)*%
X166624000Y-98933000D03*
%TO.N,/EF_BUFFERED*%
X155956000Y-95758000D03*
%TO.N,/RECTIFIER_OUT*%
X161163000Y-94869000D03*
%TO.N,/ENVF_OUT_SCALED*%
X166751000Y-95250000D03*
%TO.N,GND*%
X152019000Y-98806000D03*
X147828000Y-98552000D03*
%TO.N,/AMP_OUT {slash} EF_IN*%
X151638000Y-90551000D03*
X152146000Y-92456000D03*
%TO.N,Net-(JP7-B)*%
X157226000Y-97282000D03*
%TO.N,Net-(JP3-A)*%
X149509400Y-86113835D03*
%TO.N,Net-(JP4-A)*%
X148971000Y-86614000D03*
%TO.N,Net-(JP2-A)*%
X152971974Y-85915974D03*
%TO.N,Net-(JP1-B)*%
X153924000Y-87757000D03*
%TO.N,Net-(JP1-A)*%
X154432615Y-86151654D03*
%TO.N,+12V*%
X148463000Y-87916400D03*
X150622000Y-89535000D03*
X153543000Y-90551000D03*
X156718000Y-91440000D03*
X164973000Y-88138000D03*
X164211000Y-88138000D03*
%TO.N,-12V*%
X147701000Y-93631400D03*
X150495000Y-93218000D03*
X153543000Y-94488000D03*
X157226000Y-93091000D03*
X164973000Y-97663000D03*
X164211000Y-97663000D03*
%TO.N,GND*%
X149606000Y-92075000D03*
X163703000Y-91948000D03*
X163703000Y-90932000D03*
X163703000Y-90043000D03*
X163703000Y-95885000D03*
X163703000Y-94996000D03*
X163703000Y-94107000D03*
X138430000Y-96520000D03*
X139446000Y-96520000D03*
X140208000Y-88646000D03*
X137414000Y-88773000D03*
X142875000Y-88646000D03*
X143891000Y-88646000D03*
X143764000Y-85852000D03*
X142875000Y-85852000D03*
X149987000Y-88392000D03*
X149606000Y-94615000D03*
X149606000Y-90678000D03*
X154940000Y-90551000D03*
%TD*%
D22*
%TO.N,Net-(JP8-B)*%
X159057000Y-99695000D02*
X158877000Y-99515000D01*
X159766000Y-99695000D02*
X159057000Y-99695000D01*
%TO.N,Net-(JP6-B)*%
X166624000Y-99026400D02*
X166135400Y-99515000D01*
X166624000Y-98933000D02*
X166624000Y-99026400D01*
%TO.N,/ENVF_OUT_SCALED*%
X167894000Y-95235000D02*
X172085000Y-95235000D01*
X167879000Y-95250000D02*
X167894000Y-95235000D01*
X166751000Y-95250000D02*
X167879000Y-95250000D01*
%TO.N,/EF_BUFFERED*%
X167767000Y-93091000D02*
X158623000Y-93091000D01*
X168275000Y-92583000D02*
X167767000Y-93091000D01*
X171921000Y-92583000D02*
X168275000Y-92583000D01*
X174498000Y-95160000D02*
X171921000Y-92583000D01*
%TO.N,Net-(JP10-B)*%
X169762000Y-96610000D02*
X169672000Y-96520000D01*
X174498000Y-96610000D02*
X169762000Y-96610000D01*
%TO.N,/AMP_OUT {slash} EF_IN*%
X152146000Y-91059000D02*
X152146000Y-92456000D01*
X151638000Y-90551000D02*
X152146000Y-91059000D01*
%TO.N,/EF_BUFFERED*%
X158623000Y-93091000D02*
X155956000Y-95758000D01*
%TO.N,/RECTIFIER_OUT*%
X158877000Y-100965000D02*
X166135400Y-100965000D01*
X158596776Y-100965000D02*
X158877000Y-100965000D01*
X156718000Y-99086224D02*
X158596776Y-100965000D01*
X156718000Y-99060000D02*
X156718000Y-99086224D01*
X156337000Y-98679000D02*
X156718000Y-99060000D01*
X156337000Y-96774000D02*
X156337000Y-98679000D01*
X157988000Y-95123000D02*
X156337000Y-96774000D01*
X160909000Y-95123000D02*
X157988000Y-95123000D01*
X161163000Y-94869000D02*
X160909000Y-95123000D01*
%TO.N,Net-(JP7-B)*%
X158224362Y-97282000D02*
X157226000Y-97282000D01*
X160457362Y-99515000D02*
X158224362Y-97282000D01*
X161309400Y-99515000D02*
X160457362Y-99515000D01*
%TO.N,Net-(JP5-B)*%
X163722400Y-99590000D02*
X162684400Y-98552000D01*
%TO.N,Net-(JP1-B)*%
X154051000Y-85202000D02*
X155321000Y-85202000D01*
X153924000Y-87757000D02*
X153924000Y-85329000D01*
X153924000Y-85329000D02*
X154051000Y-85202000D01*
X150495000Y-85127000D02*
X148082000Y-85127000D01*
X152908000Y-85127000D02*
X150495000Y-85127000D01*
X152983000Y-85202000D02*
X152908000Y-85127000D01*
X155321000Y-85202000D02*
X152983000Y-85202000D01*
%TO.N,Net-(JP3-A)*%
X149509400Y-86113835D02*
X150031835Y-86113835D01*
X150031835Y-86113835D02*
X150495000Y-86577000D01*
%TO.N,Net-(JP2-A)*%
X152971974Y-85915974D02*
X153033103Y-85854845D01*
%TO.N,Net-(JP3-A)*%
X149770000Y-86577000D02*
X149733000Y-86614000D01*
X150495000Y-86577000D02*
X149770000Y-86577000D01*
%TO.N,Net-(JP2-A)*%
X152908000Y-85979948D02*
X152971974Y-85915974D01*
X152908000Y-86577000D02*
X152908000Y-85979948D01*
%TD*%
M02*
