M48
; DRILL file {KiCad 8.0.5} date 2024-09-24T12:34:33-0400
; FORMAT={-:-/ absolute / inch / decimal}
; #@! TF.CreationDate,2024-09-24T12:34:33-04:00
; #@! TF.GenerationSoftware,Kicad,Pcbnew,8.0.5
; #@! TF.FileFunction,Plated,1,4,PTH
FMAT,2
INCH
; #@! TA.AperFunction,Plated,PTH,ViaDrill
T1C0.0060
; #@! TA.AperFunction,Plated,PTH,ComponentDrill
T2C0.0276
; #@! TA.AperFunction,Plated,PTH,ComponentDrill
T3C0.0394
; #@! TA.AperFunction,Plated,PTH,ComponentDrill
T4C0.0400
%
G90
G05
T1
X5.41Y-3.495
X5.45Y-3.8
X5.49Y-3.8
X5.52Y-3.49
X5.625Y-3.38
X5.625Y-3.49
X5.66Y-3.38
X5.665Y-3.49
X5.815Y-3.6863
X5.82Y-3.88
X5.845Y-3.4613
X5.865Y-3.41
X5.8862Y-3.3903
X5.89Y-3.57
X5.89Y-3.625
X5.89Y-3.725
X5.905Y-3.48
X5.925Y-3.67
X5.93Y-3.525
X5.97Y-3.565
X5.985Y-3.89
X5.99Y-3.64
X6.0225Y-3.3825
X6.045Y-3.565
X6.045Y-3.72
X6.06Y-3.455
X6.08Y-3.3918
X6.1Y-3.565
X6.14Y-3.77
X6.17Y-3.6
X6.19Y-3.665
X6.19Y-3.83
X6.29Y-3.925
X6.345Y-3.735
X6.4049Y-3.88
X6.445Y-3.545
X6.445Y-3.58
X6.445Y-3.62
X6.445Y-3.705
X6.445Y-3.74
X6.445Y-3.775
X6.465Y-3.47
X6.465Y-3.845
X6.495Y-3.47
X6.495Y-3.845
X6.56Y-3.895
X6.565Y-3.75
T2
X5.85Y-3.95
X5.9Y-3.85
X5.95Y-3.95
X6.05Y-3.95
X6.1Y-3.85
X6.15Y-3.95
X6.22Y-3.525
X6.29Y-3.61
T3
X5.45Y-4.05
X5.55Y-4.05
X5.65Y-4.05
X5.75Y-4.05
X5.85Y-3.25
X5.85Y-4.05
X5.95Y-3.25
X5.95Y-4.05
X6.05Y-3.25
X6.05Y-4.05
X6.15Y-3.25
X6.15Y-4.05
X6.25Y-3.25
X6.25Y-4.05
X6.35Y-3.25
X6.35Y-4.05
X6.45Y-3.25
X6.45Y-4.05
X6.55Y-3.25
X6.55Y-4.05
X6.65Y-3.25
X6.65Y-4.05
X6.75Y-3.25
X6.75Y-4.05
X6.85Y-3.25
X6.85Y-4.05
X6.95Y-3.25
X6.95Y-4.05
T4
X6.68Y-3.5
X6.68Y-3.6
X6.68Y-3.7
X6.68Y-3.8
M30
