%TF.GenerationSoftware,KiCad,Pcbnew,8.0.5*%
%TF.CreationDate,2024-09-24T12:34:27-04:00*%
%TF.ProjectId,afe-featherwing,6166652d-6665-4617-9468-657277696e67,rev?*%
%TF.SameCoordinates,Original*%
%TF.FileFunction,Soldermask,Top*%
%TF.FilePolarity,Negative*%
%FSLAX46Y46*%
G04 Gerber Fmt 4.6, Leading zero omitted, Abs format (unit mm)*
G04 Created by KiCad (PCBNEW 8.0.5) date 2024-09-24 12:34:28*
%MOMM*%
%LPD*%
G01*
G04 APERTURE LIST*
G04 Aperture macros list*
%AMRoundRect*
0 Rectangle with rounded corners*
0 $1 Rounding radius*
0 $2 $3 $4 $5 $6 $7 $8 $9 X,Y pos of 4 corners*
0 Add a 4 corners polygon primitive as box body*
4,1,4,$2,$3,$4,$5,$6,$7,$8,$9,$2,$3,0*
0 Add four circle primitives for the rounded corners*
1,1,$1+$1,$2,$3*
1,1,$1+$1,$4,$5*
1,1,$1+$1,$6,$7*
1,1,$1+$1,$8,$9*
0 Add four rect primitives between the rounded corners*
20,1,$1+$1,$2,$3,$4,$5,0*
20,1,$1+$1,$4,$5,$6,$7,0*
20,1,$1+$1,$6,$7,$8,$9,0*
20,1,$1+$1,$8,$9,$2,$3,0*%
G04 Aperture macros list end*
%ADD10C,1.500000*%
%ADD11RoundRect,0.100000X-0.100000X0.637500X-0.100000X-0.637500X0.100000X-0.637500X0.100000X0.637500X0*%
%ADD12RoundRect,0.180000X0.720000X-1.170000X0.720000X1.170000X-0.720000X1.170000X-0.720000X-1.170000X0*%
%ADD13RoundRect,0.240000X0.960000X-1.110000X0.960000X1.110000X-0.960000X1.110000X-0.960000X-1.110000X0*%
%ADD14RoundRect,0.210000X0.840000X-1.140000X0.840000X1.140000X-0.840000X1.140000X-0.840000X-1.140000X0*%
%ADD15RoundRect,0.270000X1.180000X-1.080000X1.180000X1.080000X-1.180000X1.080000X-1.180000X-1.080000X0*%
%ADD16RoundRect,0.270000X1.080000X-1.080000X1.080000X1.080000X-1.080000X1.080000X-1.080000X-1.080000X0*%
%ADD17C,1.600000*%
%ADD18RoundRect,0.147500X-0.172500X0.147500X-0.172500X-0.147500X0.172500X-0.147500X0.172500X0.147500X0*%
%ADD19RoundRect,0.147500X0.147500X0.172500X-0.147500X0.172500X-0.147500X-0.172500X0.147500X-0.172500X0*%
%ADD20RoundRect,0.444500X-0.444500X0.444500X-0.444500X-0.444500X0.444500X-0.444500X0.444500X0.444500X0*%
%ADD21C,1.778000*%
%ADD22RoundRect,0.147500X-0.147500X-0.172500X0.147500X-0.172500X0.147500X0.172500X-0.147500X0.172500X0*%
%ADD23RoundRect,0.155000X-0.212500X-0.155000X0.212500X-0.155000X0.212500X0.155000X-0.212500X0.155000X0*%
%ADD24RoundRect,0.250000X-0.550000X1.250000X-0.550000X-1.250000X0.550000X-1.250000X0.550000X1.250000X0*%
%ADD25RoundRect,0.112500X0.112500X-0.187500X0.112500X0.187500X-0.112500X0.187500X-0.112500X-0.187500X0*%
%ADD26RoundRect,0.112500X-0.112500X0.187500X-0.112500X-0.187500X0.112500X-0.187500X0.112500X0.187500X0*%
%ADD27RoundRect,0.155000X-0.155000X0.212500X-0.155000X-0.212500X0.155000X-0.212500X0.155000X0.212500X0*%
%ADD28RoundRect,0.155000X0.155000X-0.212500X0.155000X0.212500X-0.155000X0.212500X-0.155000X-0.212500X0*%
%ADD29C,1.700000*%
%ADD30O,1.700000X1.700000*%
G04 APERTURE END LIST*
D10*
%TO.C,TP8*%
X154940000Y-97790000D03*
%TD*%
%TO.C,TP7*%
X159766000Y-91694000D03*
%TD*%
%TO.C,TP6*%
X157988000Y-89535000D03*
%TD*%
%TO.C,TP5*%
X156210000Y-100330000D03*
%TD*%
%TO.C,TP4*%
X153670000Y-100330000D03*
%TD*%
%TO.C,TP3*%
X151130000Y-100330000D03*
%TD*%
%TO.C,TP2*%
X148590000Y-100330000D03*
%TD*%
%TO.C,TP1*%
X149860000Y-97790000D03*
%TD*%
D11*
%TO.C,U1*%
X155571600Y-89681100D03*
X154921600Y-89681100D03*
X154271600Y-89681100D03*
X153621600Y-89681100D03*
X152971600Y-89681100D03*
X152321600Y-89681100D03*
X151671600Y-89681100D03*
X151671600Y-95406100D03*
X152321600Y-95406100D03*
X152971600Y-95406100D03*
X153621600Y-95406100D03*
X154271600Y-95406100D03*
X154921600Y-95406100D03*
X155571600Y-95406100D03*
%TD*%
D12*
%TO.C,J1*%
X140260000Y-87260000D03*
D13*
X139060000Y-97960000D03*
D14*
X143260000Y-87260000D03*
D15*
X143460000Y-97960000D03*
D16*
X136960000Y-87260000D03*
D17*
X143160000Y-92710000D03*
X137160000Y-92710000D03*
%TD*%
D18*
%TO.C,R11*%
X147828000Y-98044000D03*
X147828000Y-97074000D03*
%TD*%
%TO.C,R10*%
X147828000Y-96012000D03*
X147828000Y-95042000D03*
%TD*%
D19*
%TO.C,R9*%
X151915000Y-97155000D03*
X152885000Y-97155000D03*
%TD*%
%TO.C,R8*%
X151915000Y-98298000D03*
X152885000Y-98298000D03*
%TD*%
D20*
%TO.C,J5*%
X169672000Y-88900000D03*
D21*
X169672000Y-91440000D03*
X169672000Y-93980000D03*
X169672000Y-96520000D03*
%TD*%
D22*
%TO.C,R16*%
X158219000Y-98933000D03*
X157249000Y-98933000D03*
%TD*%
D19*
%TO.C,R14*%
X159281000Y-97790000D03*
X160251000Y-97790000D03*
%TD*%
%TO.C,R13*%
X159281000Y-98933000D03*
X160251000Y-98933000D03*
%TD*%
%TO.C,R5*%
X151107000Y-86614000D03*
X150137000Y-86614000D03*
%TD*%
D22*
%TO.C,R1*%
X153291400Y-86621400D03*
X152321400Y-86621400D03*
%TD*%
D23*
%TO.C,C1*%
X151113300Y-87891400D03*
X149978300Y-87891400D03*
%TD*%
D24*
%TO.C,C7*%
X164592000Y-86547600D03*
X164592000Y-90947600D03*
%TD*%
%TO.C,C8*%
X164592000Y-99314000D03*
X164592000Y-94914000D03*
%TD*%
D22*
%TO.C,R15*%
X158219000Y-97790000D03*
X157249000Y-97790000D03*
%TD*%
D18*
%TO.C,R12*%
X160274000Y-87272000D03*
X160274000Y-88242000D03*
%TD*%
D22*
%TO.C,R4*%
X151157800Y-85478400D03*
X150187800Y-85478400D03*
%TD*%
D18*
%TO.C,R7*%
X160274000Y-86083000D03*
X160274000Y-85113000D03*
%TD*%
%TO.C,R6*%
X154686000Y-87817600D03*
X154686000Y-86847600D03*
%TD*%
D25*
%TO.C,D6*%
X159743000Y-96182800D03*
X159743000Y-94082800D03*
%TD*%
%TO.C,D5*%
X157655400Y-96182800D03*
X157655400Y-94082800D03*
%TD*%
D26*
%TO.C,D4*%
X158623000Y-85564000D03*
X158623000Y-87664000D03*
%TD*%
D25*
%TO.C,D3*%
X156591000Y-87630000D03*
X156591000Y-85530000D03*
%TD*%
D27*
%TO.C,C6*%
X150091000Y-95751100D03*
X150091000Y-94616100D03*
%TD*%
D26*
%TO.C,D2*%
X148082000Y-91499000D03*
X148082000Y-93599000D03*
%TD*%
%TO.C,D1*%
X148082000Y-87943000D03*
X148082000Y-90043000D03*
%TD*%
D22*
%TO.C,R2*%
X153266000Y-85471000D03*
X152296000Y-85471000D03*
%TD*%
D19*
%TO.C,R3*%
X152346800Y-87866000D03*
X153316800Y-87866000D03*
%TD*%
D28*
%TO.C,C5*%
X157226000Y-91380500D03*
X157226000Y-92515500D03*
%TD*%
%TO.C,C3*%
X150091000Y-89536100D03*
X150091000Y-90671100D03*
%TD*%
%TO.C,C2*%
X150091000Y-92076100D03*
X150091000Y-93211100D03*
%TD*%
D29*
%TO.C,J3*%
X148590000Y-82550000D03*
D30*
X151130000Y-82550000D03*
X153670000Y-82550000D03*
X156210000Y-82550000D03*
X158750000Y-82550000D03*
X161290000Y-82550000D03*
X163830000Y-82550000D03*
X166370000Y-82550000D03*
X168910000Y-82550000D03*
X171450000Y-82550000D03*
X173990000Y-82550000D03*
X176530000Y-82550000D03*
%TD*%
%TO.C,J2*%
X138430000Y-102870000D03*
X140970000Y-102870000D03*
X143510000Y-102870000D03*
X146050000Y-102870000D03*
X148590000Y-102870000D03*
X151130000Y-102870000D03*
X153670000Y-102870000D03*
X156210000Y-102870000D03*
X158750000Y-102870000D03*
X161290000Y-102870000D03*
X163830000Y-102870000D03*
X166370000Y-102870000D03*
X168910000Y-102870000D03*
X171450000Y-102870000D03*
X173990000Y-102870000D03*
D29*
X176530000Y-102870000D03*
%TD*%
M02*
