%TF.GenerationSoftware,KiCad,Pcbnew,8.0.5*%
%TF.CreationDate,2024-09-24T12:34:27-04:00*%
%TF.ProjectId,afe-featherwing,6166652d-6665-4617-9468-657277696e67,rev?*%
%TF.SameCoordinates,Original*%
%TF.FileFunction,Legend,Bot*%
%TF.FilePolarity,Positive*%
%FSLAX46Y46*%
G04 Gerber Fmt 4.6, Leading zero omitted, Abs format (unit mm)*
G04 Created by KiCad (PCBNEW 8.0.5) date 2024-09-24 12:34:27*
%MOMM*%
%LPD*%
G01*
G04 APERTURE LIST*
%ADD10C,0.152400*%
%ADD11C,0.304800*%
%ADD12C,0.150000*%
%ADD13C,0.120000*%
%ADD14C,0.000000*%
G04 APERTURE END LIST*
D10*
X168111308Y-91007003D02*
X168182737Y-90971289D01*
X168182737Y-90971289D02*
X168289879Y-90971289D01*
X168289879Y-90971289D02*
X168397022Y-91007003D01*
X168397022Y-91007003D02*
X168468451Y-91078432D01*
X168468451Y-91078432D02*
X168504165Y-91149860D01*
X168504165Y-91149860D02*
X168539879Y-91292717D01*
X168539879Y-91292717D02*
X168539879Y-91399860D01*
X168539879Y-91399860D02*
X168504165Y-91542717D01*
X168504165Y-91542717D02*
X168468451Y-91614146D01*
X168468451Y-91614146D02*
X168397022Y-91685575D01*
X168397022Y-91685575D02*
X168289879Y-91721289D01*
X168289879Y-91721289D02*
X168218451Y-91721289D01*
X168218451Y-91721289D02*
X168111308Y-91685575D01*
X168111308Y-91685575D02*
X168075594Y-91649860D01*
X168075594Y-91649860D02*
X168075594Y-91399860D01*
X168075594Y-91399860D02*
X168218451Y-91399860D01*
X167754165Y-91721289D02*
X167754165Y-90971289D01*
X167754165Y-90971289D02*
X167325594Y-91721289D01*
X167325594Y-91721289D02*
X167325594Y-90971289D01*
X166968451Y-91721289D02*
X166968451Y-90971289D01*
X166968451Y-90971289D02*
X166789880Y-90971289D01*
X166789880Y-90971289D02*
X166682737Y-91007003D01*
X166682737Y-91007003D02*
X166611308Y-91078432D01*
X166611308Y-91078432D02*
X166575594Y-91149860D01*
X166575594Y-91149860D02*
X166539880Y-91292717D01*
X166539880Y-91292717D02*
X166539880Y-91399860D01*
X166539880Y-91399860D02*
X166575594Y-91542717D01*
X166575594Y-91542717D02*
X166611308Y-91614146D01*
X166611308Y-91614146D02*
X166682737Y-91685575D01*
X166682737Y-91685575D02*
X166789880Y-91721289D01*
X166789880Y-91721289D02*
X166968451Y-91721289D01*
X168504165Y-93975575D02*
X167932737Y-93975575D01*
X167182737Y-94261289D02*
X167611308Y-94261289D01*
X167397023Y-94261289D02*
X167397023Y-93511289D01*
X167397023Y-93511289D02*
X167468451Y-93618432D01*
X167468451Y-93618432D02*
X167539880Y-93689860D01*
X167539880Y-93689860D02*
X167611308Y-93725575D01*
X166897022Y-93582717D02*
X166861308Y-93547003D01*
X166861308Y-93547003D02*
X166789880Y-93511289D01*
X166789880Y-93511289D02*
X166611308Y-93511289D01*
X166611308Y-93511289D02*
X166539880Y-93547003D01*
X166539880Y-93547003D02*
X166504165Y-93582717D01*
X166504165Y-93582717D02*
X166468451Y-93654146D01*
X166468451Y-93654146D02*
X166468451Y-93725575D01*
X166468451Y-93725575D02*
X166504165Y-93832717D01*
X166504165Y-93832717D02*
X166932737Y-94261289D01*
X166932737Y-94261289D02*
X166468451Y-94261289D01*
X166254165Y-93511289D02*
X166004165Y-94261289D01*
X166004165Y-94261289D02*
X165754165Y-93511289D01*
X168504165Y-88895575D02*
X167932737Y-88895575D01*
X168218451Y-89181289D02*
X168218451Y-88609860D01*
X167182737Y-89181289D02*
X167611308Y-89181289D01*
X167397023Y-89181289D02*
X167397023Y-88431289D01*
X167397023Y-88431289D02*
X167468451Y-88538432D01*
X167468451Y-88538432D02*
X167539880Y-88609860D01*
X167539880Y-88609860D02*
X167611308Y-88645575D01*
X166897022Y-88502717D02*
X166861308Y-88467003D01*
X166861308Y-88467003D02*
X166789880Y-88431289D01*
X166789880Y-88431289D02*
X166611308Y-88431289D01*
X166611308Y-88431289D02*
X166539880Y-88467003D01*
X166539880Y-88467003D02*
X166504165Y-88502717D01*
X166504165Y-88502717D02*
X166468451Y-88574146D01*
X166468451Y-88574146D02*
X166468451Y-88645575D01*
X166468451Y-88645575D02*
X166504165Y-88752717D01*
X166504165Y-88752717D02*
X166932737Y-89181289D01*
X166932737Y-89181289D02*
X166468451Y-89181289D01*
X166254165Y-88431289D02*
X166004165Y-89181289D01*
X166004165Y-89181289D02*
X165754165Y-88431289D01*
X174857356Y-100427545D02*
X174518689Y-100427545D01*
X174440070Y-100959735D02*
X174923879Y-100959735D01*
X174923879Y-100959735D02*
X174796879Y-99943735D01*
X174796879Y-99943735D02*
X174313070Y-99943735D01*
X173599451Y-100427545D02*
X173938118Y-100427545D01*
X174004641Y-100959735D02*
X173877641Y-99943735D01*
X173877641Y-99943735D02*
X173393832Y-99943735D01*
X172359689Y-100959735D02*
X172232689Y-99943735D01*
X172232689Y-99943735D02*
X171990785Y-99943735D01*
X171990785Y-99943735D02*
X171851689Y-99992116D01*
X171851689Y-99992116D02*
X171767023Y-100088878D01*
X171767023Y-100088878D02*
X171730737Y-100185640D01*
X171730737Y-100185640D02*
X171706547Y-100379164D01*
X171706547Y-100379164D02*
X171724689Y-100524307D01*
X171724689Y-100524307D02*
X171797261Y-100717831D01*
X171797261Y-100717831D02*
X171857737Y-100814593D01*
X171857737Y-100814593D02*
X171966594Y-100911355D01*
X171966594Y-100911355D02*
X172117785Y-100959735D01*
X172117785Y-100959735D02*
X172359689Y-100959735D01*
X171277166Y-100427545D02*
X170938499Y-100427545D01*
X170859880Y-100959735D02*
X171343689Y-100959735D01*
X171343689Y-100959735D02*
X171216689Y-99943735D01*
X171216689Y-99943735D02*
X170732880Y-99943735D01*
X169831785Y-100862974D02*
X169886213Y-100911355D01*
X169886213Y-100911355D02*
X170037404Y-100959735D01*
X170037404Y-100959735D02*
X170134166Y-100959735D01*
X170134166Y-100959735D02*
X170273261Y-100911355D01*
X170273261Y-100911355D02*
X170357928Y-100814593D01*
X170357928Y-100814593D02*
X170394213Y-100717831D01*
X170394213Y-100717831D02*
X170418404Y-100524307D01*
X170418404Y-100524307D02*
X170400261Y-100379164D01*
X170400261Y-100379164D02*
X170327689Y-100185640D01*
X170327689Y-100185640D02*
X170267213Y-100088878D01*
X170267213Y-100088878D02*
X170158356Y-99992116D01*
X170158356Y-99992116D02*
X170007166Y-99943735D01*
X170007166Y-99943735D02*
X169910404Y-99943735D01*
X169910404Y-99943735D02*
X169771309Y-99992116D01*
X169771309Y-99992116D02*
X169728975Y-100040497D01*
X169420547Y-100669450D02*
X168936737Y-100669450D01*
X169553594Y-100959735D02*
X169087928Y-99943735D01*
X169087928Y-99943735D02*
X168876261Y-100959735D01*
X168283594Y-100475926D02*
X168344071Y-100959735D01*
X168555737Y-99943735D02*
X168283594Y-100475926D01*
X168283594Y-100475926D02*
X167878404Y-99943735D01*
X164140975Y-86318450D02*
X163657165Y-86318450D01*
X164274022Y-86608735D02*
X163808356Y-85592735D01*
X163808356Y-85592735D02*
X163596689Y-86608735D01*
X163258022Y-86608735D02*
X163131022Y-85592735D01*
X163131022Y-85592735D02*
X162883070Y-86318450D01*
X162883070Y-86318450D02*
X162453689Y-85592735D01*
X162453689Y-85592735D02*
X162580689Y-86608735D01*
X162096879Y-86608735D02*
X161969879Y-85592735D01*
X161969879Y-85592735D02*
X161582832Y-85592735D01*
X161582832Y-85592735D02*
X161492117Y-85641116D01*
X161492117Y-85641116D02*
X161449784Y-85689497D01*
X161449784Y-85689497D02*
X161413498Y-85786259D01*
X161413498Y-85786259D02*
X161431641Y-85931402D01*
X161431641Y-85931402D02*
X161492117Y-86028164D01*
X161492117Y-86028164D02*
X161546546Y-86076545D01*
X161546546Y-86076545D02*
X161649356Y-86124926D01*
X161649356Y-86124926D02*
X162036403Y-86124926D01*
X159653642Y-85641116D02*
X159744356Y-85592735D01*
X159744356Y-85592735D02*
X159889499Y-85592735D01*
X159889499Y-85592735D02*
X160040689Y-85641116D01*
X160040689Y-85641116D02*
X160149546Y-85737878D01*
X160149546Y-85737878D02*
X160210022Y-85834640D01*
X160210022Y-85834640D02*
X160282594Y-86028164D01*
X160282594Y-86028164D02*
X160300737Y-86173307D01*
X160300737Y-86173307D02*
X160276546Y-86366831D01*
X160276546Y-86366831D02*
X160240261Y-86463593D01*
X160240261Y-86463593D02*
X160155594Y-86560355D01*
X160155594Y-86560355D02*
X160016499Y-86608735D01*
X160016499Y-86608735D02*
X159919737Y-86608735D01*
X159919737Y-86608735D02*
X159768546Y-86560355D01*
X159768546Y-86560355D02*
X159714118Y-86511974D01*
X159714118Y-86511974D02*
X159671784Y-86173307D01*
X159671784Y-86173307D02*
X159865308Y-86173307D01*
X159302880Y-86318450D02*
X158819070Y-86318450D01*
X159435927Y-86608735D02*
X158970261Y-85592735D01*
X158970261Y-85592735D02*
X158758594Y-86608735D01*
X158419927Y-86608735D02*
X158292927Y-85592735D01*
X157936117Y-86608735D02*
X157809117Y-85592735D01*
X157809117Y-85592735D02*
X157355546Y-86608735D01*
X157355546Y-86608735D02*
X157228546Y-85592735D01*
X181648832Y-90545735D02*
X181648832Y-89868402D01*
X181648832Y-90061926D02*
X181600451Y-89965164D01*
X181600451Y-89965164D02*
X181552070Y-89916783D01*
X181552070Y-89916783D02*
X181455308Y-89868402D01*
X181455308Y-89868402D02*
X181358546Y-89868402D01*
X180632832Y-90497355D02*
X180729594Y-90545735D01*
X180729594Y-90545735D02*
X180923118Y-90545735D01*
X180923118Y-90545735D02*
X181019880Y-90497355D01*
X181019880Y-90497355D02*
X181068261Y-90400593D01*
X181068261Y-90400593D02*
X181068261Y-90013545D01*
X181068261Y-90013545D02*
X181019880Y-89916783D01*
X181019880Y-89916783D02*
X180923118Y-89868402D01*
X180923118Y-89868402D02*
X180729594Y-89868402D01*
X180729594Y-89868402D02*
X180632832Y-89916783D01*
X180632832Y-89916783D02*
X180584451Y-90013545D01*
X180584451Y-90013545D02*
X180584451Y-90110307D01*
X180584451Y-90110307D02*
X181068261Y-90207069D01*
X180245785Y-89868402D02*
X180003880Y-90545735D01*
X180003880Y-90545735D02*
X179761975Y-89868402D01*
X178649214Y-90255450D02*
X178165404Y-90255450D01*
X178745976Y-90545735D02*
X178407309Y-89529735D01*
X178407309Y-89529735D02*
X178068642Y-90545735D01*
D11*
X182132164Y-85990086D02*
X181941664Y-84466086D01*
X181941664Y-84466086D02*
X181457854Y-84466086D01*
X181457854Y-84466086D02*
X181345974Y-84538657D01*
X181345974Y-84538657D02*
X181294569Y-84611229D01*
X181294569Y-84611229D02*
X181252235Y-84756372D01*
X181252235Y-84756372D02*
X181279450Y-84974086D01*
X181279450Y-84974086D02*
X181358069Y-85119229D01*
X181358069Y-85119229D02*
X181427616Y-85191800D01*
X181427616Y-85191800D02*
X181557640Y-85264372D01*
X181557640Y-85264372D02*
X182041450Y-85264372D01*
X180862164Y-85990086D02*
X180735164Y-84974086D01*
X180671664Y-84466086D02*
X180741212Y-84538657D01*
X180741212Y-84538657D02*
X180689807Y-84611229D01*
X180689807Y-84611229D02*
X180620259Y-84538657D01*
X180620259Y-84538657D02*
X180671664Y-84466086D01*
X180671664Y-84466086D02*
X180689807Y-84611229D01*
X179764521Y-85917515D02*
X179894545Y-85990086D01*
X179894545Y-85990086D02*
X180136450Y-85990086D01*
X180136450Y-85990086D02*
X180248331Y-85917515D01*
X180248331Y-85917515D02*
X180290664Y-85772372D01*
X180290664Y-85772372D02*
X180218092Y-85191800D01*
X180218092Y-85191800D02*
X180139473Y-85046657D01*
X180139473Y-85046657D02*
X180009450Y-84974086D01*
X180009450Y-84974086D02*
X179767545Y-84974086D01*
X179767545Y-84974086D02*
X179655664Y-85046657D01*
X179655664Y-85046657D02*
X179613331Y-85191800D01*
X179613331Y-85191800D02*
X179631473Y-85336943D01*
X179631473Y-85336943D02*
X180254378Y-85482086D01*
X179162783Y-84974086D02*
X178497545Y-84974086D01*
X178497545Y-84974086D02*
X179289783Y-85990086D01*
X179289783Y-85990086D02*
X178624545Y-85990086D01*
X177959307Y-85990086D02*
X178071188Y-85917515D01*
X178071188Y-85917515D02*
X178122593Y-85844943D01*
X178122593Y-85844943D02*
X178164926Y-85699800D01*
X178164926Y-85699800D02*
X178110498Y-85264372D01*
X178110498Y-85264372D02*
X178031879Y-85119229D01*
X178031879Y-85119229D02*
X177962331Y-85046657D01*
X177962331Y-85046657D02*
X177832307Y-84974086D01*
X177832307Y-84974086D02*
X177650879Y-84974086D01*
X177650879Y-84974086D02*
X177538998Y-85046657D01*
X177538998Y-85046657D02*
X177487593Y-85119229D01*
X177487593Y-85119229D02*
X177445260Y-85264372D01*
X177445260Y-85264372D02*
X177499688Y-85699800D01*
X177499688Y-85699800D02*
X177578307Y-85844943D01*
X177578307Y-85844943D02*
X177647855Y-85917515D01*
X177647855Y-85917515D02*
X177777879Y-85990086D01*
X177777879Y-85990086D02*
X177959307Y-85990086D01*
X176024069Y-85990086D02*
X175833569Y-84466086D01*
X175833569Y-84466086D02*
X175349759Y-84466086D01*
X175349759Y-84466086D02*
X175237879Y-84538657D01*
X175237879Y-84538657D02*
X175186474Y-84611229D01*
X175186474Y-84611229D02*
X175144140Y-84756372D01*
X175144140Y-84756372D02*
X175171355Y-84974086D01*
X175171355Y-84974086D02*
X175249974Y-85119229D01*
X175249974Y-85119229D02*
X175319521Y-85191800D01*
X175319521Y-85191800D02*
X175449545Y-85264372D01*
X175449545Y-85264372D02*
X175933355Y-85264372D01*
X174754069Y-85990086D02*
X174627069Y-84974086D01*
X174663355Y-85264372D02*
X174584736Y-85119229D01*
X174584736Y-85119229D02*
X174515188Y-85046657D01*
X174515188Y-85046657D02*
X174385164Y-84974086D01*
X174385164Y-84974086D02*
X174264212Y-84974086D01*
X173474998Y-85917515D02*
X173605022Y-85990086D01*
X173605022Y-85990086D02*
X173846927Y-85990086D01*
X173846927Y-85990086D02*
X173958808Y-85917515D01*
X173958808Y-85917515D02*
X174001141Y-85772372D01*
X174001141Y-85772372D02*
X173928569Y-85191800D01*
X173928569Y-85191800D02*
X173849950Y-85046657D01*
X173849950Y-85046657D02*
X173719927Y-84974086D01*
X173719927Y-84974086D02*
X173478022Y-84974086D01*
X173478022Y-84974086D02*
X173366141Y-85046657D01*
X173366141Y-85046657D02*
X173323808Y-85191800D01*
X173323808Y-85191800D02*
X173341950Y-85336943D01*
X173341950Y-85336943D02*
X173964855Y-85482086D01*
X172335022Y-85990086D02*
X172235237Y-85191800D01*
X172235237Y-85191800D02*
X172277570Y-85046657D01*
X172277570Y-85046657D02*
X172389451Y-84974086D01*
X172389451Y-84974086D02*
X172631356Y-84974086D01*
X172631356Y-84974086D02*
X172761379Y-85046657D01*
X172325951Y-85917515D02*
X172455975Y-85990086D01*
X172455975Y-85990086D02*
X172758356Y-85990086D01*
X172758356Y-85990086D02*
X172870237Y-85917515D01*
X172870237Y-85917515D02*
X172912570Y-85772372D01*
X172912570Y-85772372D02*
X172894427Y-85627229D01*
X172894427Y-85627229D02*
X172815808Y-85482086D01*
X172815808Y-85482086D02*
X172685784Y-85409515D01*
X172685784Y-85409515D02*
X172383403Y-85409515D01*
X172383403Y-85409515D02*
X172253379Y-85336943D01*
X171730260Y-85990086D02*
X171603260Y-84974086D01*
X171621403Y-85119229D02*
X171551855Y-85046657D01*
X171551855Y-85046657D02*
X171421831Y-84974086D01*
X171421831Y-84974086D02*
X171240403Y-84974086D01*
X171240403Y-84974086D02*
X171128522Y-85046657D01*
X171128522Y-85046657D02*
X171086189Y-85191800D01*
X171086189Y-85191800D02*
X171185974Y-85990086D01*
X171086189Y-85191800D02*
X171007570Y-85046657D01*
X171007570Y-85046657D02*
X170877546Y-84974086D01*
X170877546Y-84974086D02*
X170696117Y-84974086D01*
X170696117Y-84974086D02*
X170584236Y-85046657D01*
X170584236Y-85046657D02*
X170541903Y-85191800D01*
X170541903Y-85191800D02*
X170641689Y-85990086D01*
X169909927Y-84974086D02*
X170100427Y-86498086D01*
X169918998Y-85046657D02*
X169788975Y-84974086D01*
X169788975Y-84974086D02*
X169547070Y-84974086D01*
X169547070Y-84974086D02*
X169435189Y-85046657D01*
X169435189Y-85046657D02*
X169383784Y-85119229D01*
X169383784Y-85119229D02*
X169341451Y-85264372D01*
X169341451Y-85264372D02*
X169395879Y-85699800D01*
X169395879Y-85699800D02*
X169474498Y-85844943D01*
X169474498Y-85844943D02*
X169544046Y-85917515D01*
X169544046Y-85917515D02*
X169674070Y-85990086D01*
X169674070Y-85990086D02*
X169915975Y-85990086D01*
X169915975Y-85990086D02*
X170027856Y-85917515D01*
X181609045Y-87645355D02*
X182032378Y-87645355D01*
X182132164Y-88443641D02*
X181941664Y-86919641D01*
X181941664Y-86919641D02*
X181336902Y-86919641D01*
X180550712Y-88371070D02*
X180680736Y-88443641D01*
X180680736Y-88443641D02*
X180922641Y-88443641D01*
X180922641Y-88443641D02*
X181034522Y-88371070D01*
X181034522Y-88371070D02*
X181076855Y-88225927D01*
X181076855Y-88225927D02*
X181004283Y-87645355D01*
X181004283Y-87645355D02*
X180925664Y-87500212D01*
X180925664Y-87500212D02*
X180795641Y-87427641D01*
X180795641Y-87427641D02*
X180553736Y-87427641D01*
X180553736Y-87427641D02*
X180441855Y-87500212D01*
X180441855Y-87500212D02*
X180399522Y-87645355D01*
X180399522Y-87645355D02*
X180417664Y-87790498D01*
X180417664Y-87790498D02*
X181040569Y-87935641D01*
X179410736Y-88443641D02*
X179310951Y-87645355D01*
X179310951Y-87645355D02*
X179353284Y-87500212D01*
X179353284Y-87500212D02*
X179465165Y-87427641D01*
X179465165Y-87427641D02*
X179707070Y-87427641D01*
X179707070Y-87427641D02*
X179837093Y-87500212D01*
X179401665Y-88371070D02*
X179531689Y-88443641D01*
X179531689Y-88443641D02*
X179834070Y-88443641D01*
X179834070Y-88443641D02*
X179945951Y-88371070D01*
X179945951Y-88371070D02*
X179988284Y-88225927D01*
X179988284Y-88225927D02*
X179970141Y-88080784D01*
X179970141Y-88080784D02*
X179891522Y-87935641D01*
X179891522Y-87935641D02*
X179761498Y-87863070D01*
X179761498Y-87863070D02*
X179459117Y-87863070D01*
X179459117Y-87863070D02*
X179329093Y-87790498D01*
X178860403Y-87427641D02*
X178376593Y-87427641D01*
X178615474Y-86919641D02*
X178778760Y-88225927D01*
X178778760Y-88225927D02*
X178736426Y-88371070D01*
X178736426Y-88371070D02*
X178624545Y-88443641D01*
X178624545Y-88443641D02*
X178503593Y-88443641D01*
X178080260Y-88443641D02*
X177889760Y-86919641D01*
X177535974Y-88443641D02*
X177436189Y-87645355D01*
X177436189Y-87645355D02*
X177478522Y-87500212D01*
X177478522Y-87500212D02*
X177590403Y-87427641D01*
X177590403Y-87427641D02*
X177771831Y-87427641D01*
X177771831Y-87427641D02*
X177901855Y-87500212D01*
X177901855Y-87500212D02*
X177971403Y-87572784D01*
X176438331Y-88371070D02*
X176568355Y-88443641D01*
X176568355Y-88443641D02*
X176810260Y-88443641D01*
X176810260Y-88443641D02*
X176922141Y-88371070D01*
X176922141Y-88371070D02*
X176964474Y-88225927D01*
X176964474Y-88225927D02*
X176891902Y-87645355D01*
X176891902Y-87645355D02*
X176813283Y-87500212D01*
X176813283Y-87500212D02*
X176683260Y-87427641D01*
X176683260Y-87427641D02*
X176441355Y-87427641D01*
X176441355Y-87427641D02*
X176329474Y-87500212D01*
X176329474Y-87500212D02*
X176287141Y-87645355D01*
X176287141Y-87645355D02*
X176305283Y-87790498D01*
X176305283Y-87790498D02*
X176928188Y-87935641D01*
X175842641Y-88443641D02*
X175715641Y-87427641D01*
X175751927Y-87717927D02*
X175673308Y-87572784D01*
X175673308Y-87572784D02*
X175603760Y-87500212D01*
X175603760Y-87500212D02*
X175473736Y-87427641D01*
X175473736Y-87427641D02*
X175352784Y-87427641D01*
X174986903Y-86919641D02*
X174875022Y-88443641D01*
X174875022Y-88443641D02*
X174497046Y-87355070D01*
X174497046Y-87355070D02*
X174391213Y-88443641D01*
X174391213Y-88443641D02*
X173898332Y-86919641D01*
X173605022Y-88443641D02*
X173478022Y-87427641D01*
X173414522Y-86919641D02*
X173484070Y-86992212D01*
X173484070Y-86992212D02*
X173432665Y-87064784D01*
X173432665Y-87064784D02*
X173363117Y-86992212D01*
X173363117Y-86992212D02*
X173414522Y-86919641D01*
X173414522Y-86919641D02*
X173432665Y-87064784D01*
X172873260Y-87427641D02*
X173000260Y-88443641D01*
X172891403Y-87572784D02*
X172821855Y-87500212D01*
X172821855Y-87500212D02*
X172691831Y-87427641D01*
X172691831Y-87427641D02*
X172510403Y-87427641D01*
X172510403Y-87427641D02*
X172398522Y-87500212D01*
X172398522Y-87500212D02*
X172356189Y-87645355D01*
X172356189Y-87645355D02*
X172455974Y-88443641D01*
X171179926Y-87427641D02*
X171334141Y-88661355D01*
X171334141Y-88661355D02*
X171412760Y-88806498D01*
X171412760Y-88806498D02*
X171482307Y-88879070D01*
X171482307Y-88879070D02*
X171612331Y-88951641D01*
X171612331Y-88951641D02*
X171793760Y-88951641D01*
X171793760Y-88951641D02*
X171905641Y-88879070D01*
X171297855Y-88371070D02*
X171427879Y-88443641D01*
X171427879Y-88443641D02*
X171669783Y-88443641D01*
X171669783Y-88443641D02*
X171781664Y-88371070D01*
X171781664Y-88371070D02*
X171833069Y-88298498D01*
X171833069Y-88298498D02*
X171875402Y-88153355D01*
X171875402Y-88153355D02*
X171820974Y-87717927D01*
X171820974Y-87717927D02*
X171742355Y-87572784D01*
X171742355Y-87572784D02*
X171672807Y-87500212D01*
X171672807Y-87500212D02*
X171542783Y-87427641D01*
X171542783Y-87427641D02*
X171300879Y-87427641D01*
X171300879Y-87427641D02*
X171188998Y-87500212D01*
D12*
X159239295Y-96043856D02*
X159239295Y-95586713D01*
X159239295Y-95815285D02*
X158439295Y-95815285D01*
X158439295Y-95815285D02*
X158553580Y-95739094D01*
X158553580Y-95739094D02*
X158629771Y-95662904D01*
X158629771Y-95662904D02*
X158667866Y-95586713D01*
X158439295Y-96539095D02*
X158439295Y-96615285D01*
X158439295Y-96615285D02*
X158477390Y-96691476D01*
X158477390Y-96691476D02*
X158515485Y-96729571D01*
X158515485Y-96729571D02*
X158591676Y-96767666D01*
X158591676Y-96767666D02*
X158744057Y-96805761D01*
X158744057Y-96805761D02*
X158934533Y-96805761D01*
X158934533Y-96805761D02*
X159086914Y-96767666D01*
X159086914Y-96767666D02*
X159163104Y-96729571D01*
X159163104Y-96729571D02*
X159201200Y-96691476D01*
X159201200Y-96691476D02*
X159239295Y-96615285D01*
X159239295Y-96615285D02*
X159239295Y-96539095D01*
X159239295Y-96539095D02*
X159201200Y-96462904D01*
X159201200Y-96462904D02*
X159163104Y-96424809D01*
X159163104Y-96424809D02*
X159086914Y-96386714D01*
X159086914Y-96386714D02*
X158934533Y-96348618D01*
X158934533Y-96348618D02*
X158744057Y-96348618D01*
X158744057Y-96348618D02*
X158591676Y-96386714D01*
X158591676Y-96386714D02*
X158515485Y-96424809D01*
X158515485Y-96424809D02*
X158477390Y-96462904D01*
X158477390Y-96462904D02*
X158439295Y-96539095D01*
X158439295Y-97301000D02*
X158439295Y-97377190D01*
X158439295Y-97377190D02*
X158477390Y-97453381D01*
X158477390Y-97453381D02*
X158515485Y-97491476D01*
X158515485Y-97491476D02*
X158591676Y-97529571D01*
X158591676Y-97529571D02*
X158744057Y-97567666D01*
X158744057Y-97567666D02*
X158934533Y-97567666D01*
X158934533Y-97567666D02*
X159086914Y-97529571D01*
X159086914Y-97529571D02*
X159163104Y-97491476D01*
X159163104Y-97491476D02*
X159201200Y-97453381D01*
X159201200Y-97453381D02*
X159239295Y-97377190D01*
X159239295Y-97377190D02*
X159239295Y-97301000D01*
X159239295Y-97301000D02*
X159201200Y-97224809D01*
X159201200Y-97224809D02*
X159163104Y-97186714D01*
X159163104Y-97186714D02*
X159086914Y-97148619D01*
X159086914Y-97148619D02*
X158934533Y-97110523D01*
X158934533Y-97110523D02*
X158744057Y-97110523D01*
X158744057Y-97110523D02*
X158591676Y-97148619D01*
X158591676Y-97148619D02*
X158515485Y-97186714D01*
X158515485Y-97186714D02*
X158477390Y-97224809D01*
X158477390Y-97224809D02*
X158439295Y-97301000D01*
X159239295Y-97910524D02*
X158439295Y-97910524D01*
X158934533Y-97986714D02*
X159239295Y-98215286D01*
X158705961Y-98215286D02*
X159010723Y-97910524D01*
X161652295Y-96043856D02*
X161652295Y-95586713D01*
X161652295Y-95815285D02*
X160852295Y-95815285D01*
X160852295Y-95815285D02*
X160966580Y-95739094D01*
X160966580Y-95739094D02*
X161042771Y-95662904D01*
X161042771Y-95662904D02*
X161080866Y-95586713D01*
X160852295Y-96539095D02*
X160852295Y-96615285D01*
X160852295Y-96615285D02*
X160890390Y-96691476D01*
X160890390Y-96691476D02*
X160928485Y-96729571D01*
X160928485Y-96729571D02*
X161004676Y-96767666D01*
X161004676Y-96767666D02*
X161157057Y-96805761D01*
X161157057Y-96805761D02*
X161347533Y-96805761D01*
X161347533Y-96805761D02*
X161499914Y-96767666D01*
X161499914Y-96767666D02*
X161576104Y-96729571D01*
X161576104Y-96729571D02*
X161614200Y-96691476D01*
X161614200Y-96691476D02*
X161652295Y-96615285D01*
X161652295Y-96615285D02*
X161652295Y-96539095D01*
X161652295Y-96539095D02*
X161614200Y-96462904D01*
X161614200Y-96462904D02*
X161576104Y-96424809D01*
X161576104Y-96424809D02*
X161499914Y-96386714D01*
X161499914Y-96386714D02*
X161347533Y-96348618D01*
X161347533Y-96348618D02*
X161157057Y-96348618D01*
X161157057Y-96348618D02*
X161004676Y-96386714D01*
X161004676Y-96386714D02*
X160928485Y-96424809D01*
X160928485Y-96424809D02*
X160890390Y-96462904D01*
X160890390Y-96462904D02*
X160852295Y-96539095D01*
X160852295Y-97301000D02*
X160852295Y-97377190D01*
X160852295Y-97377190D02*
X160890390Y-97453381D01*
X160890390Y-97453381D02*
X160928485Y-97491476D01*
X160928485Y-97491476D02*
X161004676Y-97529571D01*
X161004676Y-97529571D02*
X161157057Y-97567666D01*
X161157057Y-97567666D02*
X161347533Y-97567666D01*
X161347533Y-97567666D02*
X161499914Y-97529571D01*
X161499914Y-97529571D02*
X161576104Y-97491476D01*
X161576104Y-97491476D02*
X161614200Y-97453381D01*
X161614200Y-97453381D02*
X161652295Y-97377190D01*
X161652295Y-97377190D02*
X161652295Y-97301000D01*
X161652295Y-97301000D02*
X161614200Y-97224809D01*
X161614200Y-97224809D02*
X161576104Y-97186714D01*
X161576104Y-97186714D02*
X161499914Y-97148619D01*
X161499914Y-97148619D02*
X161347533Y-97110523D01*
X161347533Y-97110523D02*
X161157057Y-97110523D01*
X161157057Y-97110523D02*
X161004676Y-97148619D01*
X161004676Y-97148619D02*
X160928485Y-97186714D01*
X160928485Y-97186714D02*
X160890390Y-97224809D01*
X160890390Y-97224809D02*
X160852295Y-97301000D01*
X161652295Y-97910524D02*
X160852295Y-97910524D01*
X161347533Y-97986714D02*
X161652295Y-98215286D01*
X161118961Y-98215286D02*
X161423723Y-97910524D01*
X156825713Y-95701247D02*
X156559047Y-95701247D01*
X156444761Y-96120295D02*
X156825713Y-96120295D01*
X156825713Y-96120295D02*
X156825713Y-95320295D01*
X156825713Y-95320295D02*
X156444761Y-95320295D01*
X155835237Y-95701247D02*
X156101903Y-95701247D01*
X156101903Y-96120295D02*
X156101903Y-95320295D01*
X156101903Y-95320295D02*
X155720951Y-95320295D01*
X155606666Y-96196485D02*
X154997142Y-96196485D01*
X154844761Y-95891723D02*
X154463808Y-95891723D01*
X154920951Y-96120295D02*
X154654284Y-95320295D01*
X154654284Y-95320295D02*
X154387618Y-96120295D01*
X154235237Y-95320295D02*
X153778094Y-95320295D01*
X154006666Y-96120295D02*
X154006666Y-95320295D01*
X153511427Y-96120295D02*
X153511427Y-95320295D01*
X153511427Y-95320295D02*
X153054284Y-96120295D01*
X153054284Y-96120295D02*
X153054284Y-95320295D01*
X158190951Y-92653247D02*
X157924285Y-92653247D01*
X157809999Y-93072295D02*
X158190951Y-93072295D01*
X158190951Y-93072295D02*
X158190951Y-92272295D01*
X158190951Y-92272295D02*
X157809999Y-92272295D01*
X157200475Y-92653247D02*
X157467141Y-92653247D01*
X157467141Y-93072295D02*
X157467141Y-92272295D01*
X157467141Y-92272295D02*
X157086189Y-92272295D01*
X156971904Y-93148485D02*
X156362380Y-93148485D01*
X155905237Y-92653247D02*
X155790951Y-92691342D01*
X155790951Y-92691342D02*
X155752856Y-92729438D01*
X155752856Y-92729438D02*
X155714760Y-92805628D01*
X155714760Y-92805628D02*
X155714760Y-92919914D01*
X155714760Y-92919914D02*
X155752856Y-92996104D01*
X155752856Y-92996104D02*
X155790951Y-93034200D01*
X155790951Y-93034200D02*
X155867141Y-93072295D01*
X155867141Y-93072295D02*
X156171903Y-93072295D01*
X156171903Y-93072295D02*
X156171903Y-92272295D01*
X156171903Y-92272295D02*
X155905237Y-92272295D01*
X155905237Y-92272295D02*
X155829046Y-92310390D01*
X155829046Y-92310390D02*
X155790951Y-92348485D01*
X155790951Y-92348485D02*
X155752856Y-92424676D01*
X155752856Y-92424676D02*
X155752856Y-92500866D01*
X155752856Y-92500866D02*
X155790951Y-92577057D01*
X155790951Y-92577057D02*
X155829046Y-92615152D01*
X155829046Y-92615152D02*
X155905237Y-92653247D01*
X155905237Y-92653247D02*
X156171903Y-92653247D01*
X155371903Y-92272295D02*
X155371903Y-92919914D01*
X155371903Y-92919914D02*
X155333808Y-92996104D01*
X155333808Y-92996104D02*
X155295713Y-93034200D01*
X155295713Y-93034200D02*
X155219522Y-93072295D01*
X155219522Y-93072295D02*
X155067141Y-93072295D01*
X155067141Y-93072295D02*
X154990951Y-93034200D01*
X154990951Y-93034200D02*
X154952856Y-92996104D01*
X154952856Y-92996104D02*
X154914760Y-92919914D01*
X154914760Y-92919914D02*
X154914760Y-92272295D01*
X154267142Y-92653247D02*
X154533808Y-92653247D01*
X154533808Y-93072295D02*
X154533808Y-92272295D01*
X154533808Y-92272295D02*
X154152856Y-92272295D01*
X157181238Y-91418723D02*
X156800285Y-91418723D01*
X157257428Y-91647295D02*
X156990761Y-90847295D01*
X156990761Y-90847295D02*
X156724095Y-91647295D01*
X156457428Y-91647295D02*
X156457428Y-90847295D01*
X156457428Y-90847295D02*
X156190762Y-91418723D01*
X156190762Y-91418723D02*
X155924095Y-90847295D01*
X155924095Y-90847295D02*
X155924095Y-91647295D01*
X155543142Y-91647295D02*
X155543142Y-90847295D01*
X155543142Y-90847295D02*
X155238380Y-90847295D01*
X155238380Y-90847295D02*
X155162190Y-90885390D01*
X155162190Y-90885390D02*
X155124095Y-90923485D01*
X155124095Y-90923485D02*
X155085999Y-90999676D01*
X155085999Y-90999676D02*
X155085999Y-91113961D01*
X155085999Y-91113961D02*
X155124095Y-91190152D01*
X155124095Y-91190152D02*
X155162190Y-91228247D01*
X155162190Y-91228247D02*
X155238380Y-91266342D01*
X155238380Y-91266342D02*
X155543142Y-91266342D01*
X154933619Y-91723485D02*
X154324095Y-91723485D01*
X153981237Y-90847295D02*
X153828856Y-90847295D01*
X153828856Y-90847295D02*
X153752666Y-90885390D01*
X153752666Y-90885390D02*
X153676475Y-90961580D01*
X153676475Y-90961580D02*
X153638380Y-91113961D01*
X153638380Y-91113961D02*
X153638380Y-91380628D01*
X153638380Y-91380628D02*
X153676475Y-91533009D01*
X153676475Y-91533009D02*
X153752666Y-91609200D01*
X153752666Y-91609200D02*
X153828856Y-91647295D01*
X153828856Y-91647295D02*
X153981237Y-91647295D01*
X153981237Y-91647295D02*
X154057428Y-91609200D01*
X154057428Y-91609200D02*
X154133618Y-91533009D01*
X154133618Y-91533009D02*
X154171714Y-91380628D01*
X154171714Y-91380628D02*
X154171714Y-91113961D01*
X154171714Y-91113961D02*
X154133618Y-90961580D01*
X154133618Y-90961580D02*
X154057428Y-90885390D01*
X154057428Y-90885390D02*
X153981237Y-90847295D01*
X153295523Y-90847295D02*
X153295523Y-91494914D01*
X153295523Y-91494914D02*
X153257428Y-91571104D01*
X153257428Y-91571104D02*
X153219333Y-91609200D01*
X153219333Y-91609200D02*
X153143142Y-91647295D01*
X153143142Y-91647295D02*
X152990761Y-91647295D01*
X152990761Y-91647295D02*
X152914571Y-91609200D01*
X152914571Y-91609200D02*
X152876476Y-91571104D01*
X152876476Y-91571104D02*
X152838380Y-91494914D01*
X152838380Y-91494914D02*
X152838380Y-90847295D01*
X152571714Y-90847295D02*
X152114571Y-90847295D01*
X152343143Y-91647295D02*
X152343143Y-90847295D01*
X146875428Y-100463723D02*
X146494475Y-100463723D01*
X146951618Y-100692295D02*
X146684951Y-99892295D01*
X146684951Y-99892295D02*
X146418285Y-100692295D01*
X145999237Y-99892295D02*
X145923047Y-99892295D01*
X145923047Y-99892295D02*
X145846856Y-99930390D01*
X145846856Y-99930390D02*
X145808761Y-99968485D01*
X145808761Y-99968485D02*
X145770666Y-100044676D01*
X145770666Y-100044676D02*
X145732571Y-100197057D01*
X145732571Y-100197057D02*
X145732571Y-100387533D01*
X145732571Y-100387533D02*
X145770666Y-100539914D01*
X145770666Y-100539914D02*
X145808761Y-100616104D01*
X145808761Y-100616104D02*
X145846856Y-100654200D01*
X145846856Y-100654200D02*
X145923047Y-100692295D01*
X145923047Y-100692295D02*
X145999237Y-100692295D01*
X145999237Y-100692295D02*
X146075428Y-100654200D01*
X146075428Y-100654200D02*
X146113523Y-100616104D01*
X146113523Y-100616104D02*
X146151618Y-100539914D01*
X146151618Y-100539914D02*
X146189714Y-100387533D01*
X146189714Y-100387533D02*
X146189714Y-100197057D01*
X146189714Y-100197057D02*
X146151618Y-100044676D01*
X146151618Y-100044676D02*
X146113523Y-99968485D01*
X146113523Y-99968485D02*
X146075428Y-99930390D01*
X146075428Y-99930390D02*
X145999237Y-99892295D01*
X151517047Y-95891723D02*
X151136094Y-95891723D01*
X151593237Y-96120295D02*
X151326570Y-95320295D01*
X151326570Y-95320295D02*
X151059904Y-96120295D01*
X150793237Y-96120295D02*
X150793237Y-95320295D01*
X150793237Y-95320295D02*
X150526571Y-95891723D01*
X150526571Y-95891723D02*
X150259904Y-95320295D01*
X150259904Y-95320295D02*
X150259904Y-96120295D01*
X149878951Y-96120295D02*
X149878951Y-95320295D01*
X149878951Y-95320295D02*
X149574189Y-95320295D01*
X149574189Y-95320295D02*
X149497999Y-95358390D01*
X149497999Y-95358390D02*
X149459904Y-95396485D01*
X149459904Y-95396485D02*
X149421808Y-95472676D01*
X149421808Y-95472676D02*
X149421808Y-95586961D01*
X149421808Y-95586961D02*
X149459904Y-95663152D01*
X149459904Y-95663152D02*
X149497999Y-95701247D01*
X149497999Y-95701247D02*
X149574189Y-95739342D01*
X149574189Y-95739342D02*
X149878951Y-95739342D01*
X149269428Y-96196485D02*
X148659904Y-96196485D01*
X148507523Y-95891723D02*
X148126570Y-95891723D01*
X148583713Y-96120295D02*
X148317046Y-95320295D01*
X148317046Y-95320295D02*
X148050380Y-96120295D01*
X147897999Y-95320295D02*
X147440856Y-95320295D01*
X147669428Y-96120295D02*
X147669428Y-95320295D01*
X147174189Y-96120295D02*
X147174189Y-95320295D01*
X147174189Y-95320295D02*
X146717046Y-96120295D01*
X146717046Y-96120295D02*
X146717046Y-95320295D01*
X172028247Y-89935286D02*
X172028247Y-90201952D01*
X172447295Y-90316238D02*
X172447295Y-89935286D01*
X172447295Y-89935286D02*
X171647295Y-89935286D01*
X171647295Y-89935286D02*
X171647295Y-90316238D01*
X172028247Y-90925762D02*
X172028247Y-90659096D01*
X172447295Y-90659096D02*
X171647295Y-90659096D01*
X171647295Y-90659096D02*
X171647295Y-91040048D01*
X172523485Y-91154334D02*
X172523485Y-91763857D01*
X172218723Y-91916238D02*
X172218723Y-92297191D01*
X172447295Y-91840048D02*
X171647295Y-92106715D01*
X171647295Y-92106715D02*
X172447295Y-92373381D01*
X171647295Y-92525762D02*
X171647295Y-92982905D01*
X172447295Y-92754333D02*
X171647295Y-92754333D01*
X172447295Y-93249572D02*
X171647295Y-93249572D01*
X171647295Y-93249572D02*
X172447295Y-93706715D01*
X172447295Y-93706715D02*
X171647295Y-93706715D01*
X155683295Y-88366666D02*
X155683295Y-87909523D01*
X155683295Y-88138095D02*
X154883295Y-88138095D01*
X154883295Y-88138095D02*
X154997580Y-88061904D01*
X154997580Y-88061904D02*
X155073771Y-87985714D01*
X155073771Y-87985714D02*
X155111866Y-87909523D01*
X154883295Y-88861905D02*
X154883295Y-88938095D01*
X154883295Y-88938095D02*
X154921390Y-89014286D01*
X154921390Y-89014286D02*
X154959485Y-89052381D01*
X154959485Y-89052381D02*
X155035676Y-89090476D01*
X155035676Y-89090476D02*
X155188057Y-89128571D01*
X155188057Y-89128571D02*
X155378533Y-89128571D01*
X155378533Y-89128571D02*
X155530914Y-89090476D01*
X155530914Y-89090476D02*
X155607104Y-89052381D01*
X155607104Y-89052381D02*
X155645200Y-89014286D01*
X155645200Y-89014286D02*
X155683295Y-88938095D01*
X155683295Y-88938095D02*
X155683295Y-88861905D01*
X155683295Y-88861905D02*
X155645200Y-88785714D01*
X155645200Y-88785714D02*
X155607104Y-88747619D01*
X155607104Y-88747619D02*
X155530914Y-88709524D01*
X155530914Y-88709524D02*
X155378533Y-88671428D01*
X155378533Y-88671428D02*
X155188057Y-88671428D01*
X155188057Y-88671428D02*
X155035676Y-88709524D01*
X155035676Y-88709524D02*
X154959485Y-88747619D01*
X154959485Y-88747619D02*
X154921390Y-88785714D01*
X154921390Y-88785714D02*
X154883295Y-88861905D01*
X154883295Y-89623810D02*
X154883295Y-89700000D01*
X154883295Y-89700000D02*
X154921390Y-89776191D01*
X154921390Y-89776191D02*
X154959485Y-89814286D01*
X154959485Y-89814286D02*
X155035676Y-89852381D01*
X155035676Y-89852381D02*
X155188057Y-89890476D01*
X155188057Y-89890476D02*
X155378533Y-89890476D01*
X155378533Y-89890476D02*
X155530914Y-89852381D01*
X155530914Y-89852381D02*
X155607104Y-89814286D01*
X155607104Y-89814286D02*
X155645200Y-89776191D01*
X155645200Y-89776191D02*
X155683295Y-89700000D01*
X155683295Y-89700000D02*
X155683295Y-89623810D01*
X155683295Y-89623810D02*
X155645200Y-89547619D01*
X155645200Y-89547619D02*
X155607104Y-89509524D01*
X155607104Y-89509524D02*
X155530914Y-89471429D01*
X155530914Y-89471429D02*
X155378533Y-89433333D01*
X155378533Y-89433333D02*
X155188057Y-89433333D01*
X155188057Y-89433333D02*
X155035676Y-89471429D01*
X155035676Y-89471429D02*
X154959485Y-89509524D01*
X154959485Y-89509524D02*
X154921390Y-89547619D01*
X154921390Y-89547619D02*
X154883295Y-89623810D01*
X174441247Y-89840048D02*
X174441247Y-90106714D01*
X174860295Y-90221000D02*
X174860295Y-89840048D01*
X174860295Y-89840048D02*
X174060295Y-89840048D01*
X174060295Y-89840048D02*
X174060295Y-90221000D01*
X174441247Y-90830524D02*
X174441247Y-90563858D01*
X174860295Y-90563858D02*
X174060295Y-90563858D01*
X174060295Y-90563858D02*
X174060295Y-90944810D01*
X174936485Y-91059096D02*
X174936485Y-91668619D01*
X174441247Y-92125762D02*
X174479342Y-92240048D01*
X174479342Y-92240048D02*
X174517438Y-92278143D01*
X174517438Y-92278143D02*
X174593628Y-92316239D01*
X174593628Y-92316239D02*
X174707914Y-92316239D01*
X174707914Y-92316239D02*
X174784104Y-92278143D01*
X174784104Y-92278143D02*
X174822200Y-92240048D01*
X174822200Y-92240048D02*
X174860295Y-92163858D01*
X174860295Y-92163858D02*
X174860295Y-91859096D01*
X174860295Y-91859096D02*
X174060295Y-91859096D01*
X174060295Y-91859096D02*
X174060295Y-92125762D01*
X174060295Y-92125762D02*
X174098390Y-92201953D01*
X174098390Y-92201953D02*
X174136485Y-92240048D01*
X174136485Y-92240048D02*
X174212676Y-92278143D01*
X174212676Y-92278143D02*
X174288866Y-92278143D01*
X174288866Y-92278143D02*
X174365057Y-92240048D01*
X174365057Y-92240048D02*
X174403152Y-92201953D01*
X174403152Y-92201953D02*
X174441247Y-92125762D01*
X174441247Y-92125762D02*
X174441247Y-91859096D01*
X174060295Y-92659096D02*
X174707914Y-92659096D01*
X174707914Y-92659096D02*
X174784104Y-92697191D01*
X174784104Y-92697191D02*
X174822200Y-92735286D01*
X174822200Y-92735286D02*
X174860295Y-92811477D01*
X174860295Y-92811477D02*
X174860295Y-92963858D01*
X174860295Y-92963858D02*
X174822200Y-93040048D01*
X174822200Y-93040048D02*
X174784104Y-93078143D01*
X174784104Y-93078143D02*
X174707914Y-93116239D01*
X174707914Y-93116239D02*
X174060295Y-93116239D01*
X174441247Y-93763857D02*
X174441247Y-93497191D01*
X174860295Y-93497191D02*
X174060295Y-93497191D01*
X174060295Y-93497191D02*
X174060295Y-93878143D01*
X165944961Y-95967666D02*
X166478295Y-95967666D01*
X165640200Y-95777190D02*
X166211628Y-95586713D01*
X166211628Y-95586713D02*
X166211628Y-96081952D01*
X165678295Y-96310523D02*
X165678295Y-96843857D01*
X165678295Y-96843857D02*
X166478295Y-96500999D01*
X165678295Y-97301000D02*
X165678295Y-97377190D01*
X165678295Y-97377190D02*
X165716390Y-97453381D01*
X165716390Y-97453381D02*
X165754485Y-97491476D01*
X165754485Y-97491476D02*
X165830676Y-97529571D01*
X165830676Y-97529571D02*
X165983057Y-97567666D01*
X165983057Y-97567666D02*
X166173533Y-97567666D01*
X166173533Y-97567666D02*
X166325914Y-97529571D01*
X166325914Y-97529571D02*
X166402104Y-97491476D01*
X166402104Y-97491476D02*
X166440200Y-97453381D01*
X166440200Y-97453381D02*
X166478295Y-97377190D01*
X166478295Y-97377190D02*
X166478295Y-97301000D01*
X166478295Y-97301000D02*
X166440200Y-97224809D01*
X166440200Y-97224809D02*
X166402104Y-97186714D01*
X166402104Y-97186714D02*
X166325914Y-97148619D01*
X166325914Y-97148619D02*
X166173533Y-97110523D01*
X166173533Y-97110523D02*
X165983057Y-97110523D01*
X165983057Y-97110523D02*
X165830676Y-97148619D01*
X165830676Y-97148619D02*
X165754485Y-97186714D01*
X165754485Y-97186714D02*
X165716390Y-97224809D01*
X165716390Y-97224809D02*
X165678295Y-97301000D01*
X166478295Y-97910524D02*
X165678295Y-97910524D01*
X166173533Y-97986714D02*
X166478295Y-98215286D01*
X165944961Y-98215286D02*
X166249723Y-97910524D01*
X163341485Y-95586713D02*
X163303390Y-95624809D01*
X163303390Y-95624809D02*
X163265295Y-95700999D01*
X163265295Y-95700999D02*
X163265295Y-95891475D01*
X163265295Y-95891475D02*
X163303390Y-95967666D01*
X163303390Y-95967666D02*
X163341485Y-96005761D01*
X163341485Y-96005761D02*
X163417676Y-96043856D01*
X163417676Y-96043856D02*
X163493866Y-96043856D01*
X163493866Y-96043856D02*
X163608152Y-96005761D01*
X163608152Y-96005761D02*
X164065295Y-95548618D01*
X164065295Y-95548618D02*
X164065295Y-96043856D01*
X163265295Y-96310523D02*
X163265295Y-96843857D01*
X163265295Y-96843857D02*
X164065295Y-96500999D01*
X163265295Y-97301000D02*
X163265295Y-97377190D01*
X163265295Y-97377190D02*
X163303390Y-97453381D01*
X163303390Y-97453381D02*
X163341485Y-97491476D01*
X163341485Y-97491476D02*
X163417676Y-97529571D01*
X163417676Y-97529571D02*
X163570057Y-97567666D01*
X163570057Y-97567666D02*
X163760533Y-97567666D01*
X163760533Y-97567666D02*
X163912914Y-97529571D01*
X163912914Y-97529571D02*
X163989104Y-97491476D01*
X163989104Y-97491476D02*
X164027200Y-97453381D01*
X164027200Y-97453381D02*
X164065295Y-97377190D01*
X164065295Y-97377190D02*
X164065295Y-97301000D01*
X164065295Y-97301000D02*
X164027200Y-97224809D01*
X164027200Y-97224809D02*
X163989104Y-97186714D01*
X163989104Y-97186714D02*
X163912914Y-97148619D01*
X163912914Y-97148619D02*
X163760533Y-97110523D01*
X163760533Y-97110523D02*
X163570057Y-97110523D01*
X163570057Y-97110523D02*
X163417676Y-97148619D01*
X163417676Y-97148619D02*
X163341485Y-97186714D01*
X163341485Y-97186714D02*
X163303390Y-97224809D01*
X163303390Y-97224809D02*
X163265295Y-97301000D01*
X164065295Y-97910524D02*
X163265295Y-97910524D01*
X163760533Y-97986714D02*
X164065295Y-98215286D01*
X163531961Y-98215286D02*
X163836723Y-97910524D01*
X148444295Y-88423809D02*
X148444295Y-87966666D01*
X148444295Y-88195238D02*
X147644295Y-88195238D01*
X147644295Y-88195238D02*
X147758580Y-88119047D01*
X147758580Y-88119047D02*
X147834771Y-88042857D01*
X147834771Y-88042857D02*
X147872866Y-87966666D01*
X147644295Y-88919048D02*
X147644295Y-88995238D01*
X147644295Y-88995238D02*
X147682390Y-89071429D01*
X147682390Y-89071429D02*
X147720485Y-89109524D01*
X147720485Y-89109524D02*
X147796676Y-89147619D01*
X147796676Y-89147619D02*
X147949057Y-89185714D01*
X147949057Y-89185714D02*
X148139533Y-89185714D01*
X148139533Y-89185714D02*
X148291914Y-89147619D01*
X148291914Y-89147619D02*
X148368104Y-89109524D01*
X148368104Y-89109524D02*
X148406200Y-89071429D01*
X148406200Y-89071429D02*
X148444295Y-88995238D01*
X148444295Y-88995238D02*
X148444295Y-88919048D01*
X148444295Y-88919048D02*
X148406200Y-88842857D01*
X148406200Y-88842857D02*
X148368104Y-88804762D01*
X148368104Y-88804762D02*
X148291914Y-88766667D01*
X148291914Y-88766667D02*
X148139533Y-88728571D01*
X148139533Y-88728571D02*
X147949057Y-88728571D01*
X147949057Y-88728571D02*
X147796676Y-88766667D01*
X147796676Y-88766667D02*
X147720485Y-88804762D01*
X147720485Y-88804762D02*
X147682390Y-88842857D01*
X147682390Y-88842857D02*
X147644295Y-88919048D01*
X148444295Y-89528572D02*
X147644295Y-89528572D01*
X148139533Y-89604762D02*
X148444295Y-89833334D01*
X147910961Y-89833334D02*
X148215723Y-89528572D01*
X150857295Y-88931761D02*
X150857295Y-88474618D01*
X150857295Y-88703190D02*
X150057295Y-88703190D01*
X150057295Y-88703190D02*
X150171580Y-88626999D01*
X150171580Y-88626999D02*
X150247771Y-88550809D01*
X150247771Y-88550809D02*
X150285866Y-88474618D01*
X150857295Y-89274619D02*
X150057295Y-89274619D01*
X150552533Y-89350809D02*
X150857295Y-89579381D01*
X150323961Y-89579381D02*
X150628723Y-89274619D01*
X153270295Y-88366666D02*
X153270295Y-87909523D01*
X153270295Y-88138095D02*
X152470295Y-88138095D01*
X152470295Y-88138095D02*
X152584580Y-88061904D01*
X152584580Y-88061904D02*
X152660771Y-87985714D01*
X152660771Y-87985714D02*
X152698866Y-87909523D01*
X152470295Y-88861905D02*
X152470295Y-88938095D01*
X152470295Y-88938095D02*
X152508390Y-89014286D01*
X152508390Y-89014286D02*
X152546485Y-89052381D01*
X152546485Y-89052381D02*
X152622676Y-89090476D01*
X152622676Y-89090476D02*
X152775057Y-89128571D01*
X152775057Y-89128571D02*
X152965533Y-89128571D01*
X152965533Y-89128571D02*
X153117914Y-89090476D01*
X153117914Y-89090476D02*
X153194104Y-89052381D01*
X153194104Y-89052381D02*
X153232200Y-89014286D01*
X153232200Y-89014286D02*
X153270295Y-88938095D01*
X153270295Y-88938095D02*
X153270295Y-88861905D01*
X153270295Y-88861905D02*
X153232200Y-88785714D01*
X153232200Y-88785714D02*
X153194104Y-88747619D01*
X153194104Y-88747619D02*
X153117914Y-88709524D01*
X153117914Y-88709524D02*
X152965533Y-88671428D01*
X152965533Y-88671428D02*
X152775057Y-88671428D01*
X152775057Y-88671428D02*
X152622676Y-88709524D01*
X152622676Y-88709524D02*
X152546485Y-88747619D01*
X152546485Y-88747619D02*
X152508390Y-88785714D01*
X152508390Y-88785714D02*
X152470295Y-88861905D01*
X152470295Y-89623810D02*
X152470295Y-89700000D01*
X152470295Y-89700000D02*
X152508390Y-89776191D01*
X152508390Y-89776191D02*
X152546485Y-89814286D01*
X152546485Y-89814286D02*
X152622676Y-89852381D01*
X152622676Y-89852381D02*
X152775057Y-89890476D01*
X152775057Y-89890476D02*
X152965533Y-89890476D01*
X152965533Y-89890476D02*
X153117914Y-89852381D01*
X153117914Y-89852381D02*
X153194104Y-89814286D01*
X153194104Y-89814286D02*
X153232200Y-89776191D01*
X153232200Y-89776191D02*
X153270295Y-89700000D01*
X153270295Y-89700000D02*
X153270295Y-89623810D01*
X153270295Y-89623810D02*
X153232200Y-89547619D01*
X153232200Y-89547619D02*
X153194104Y-89509524D01*
X153194104Y-89509524D02*
X153117914Y-89471429D01*
X153117914Y-89471429D02*
X152965533Y-89433333D01*
X152965533Y-89433333D02*
X152775057Y-89433333D01*
X152775057Y-89433333D02*
X152622676Y-89471429D01*
X152622676Y-89471429D02*
X152546485Y-89509524D01*
X152546485Y-89509524D02*
X152508390Y-89547619D01*
X152508390Y-89547619D02*
X152470295Y-89623810D01*
D13*
%TO.C,JP8*%
X159877000Y-98840000D02*
X159877000Y-101640000D01*
X159877000Y-101640000D02*
X157877000Y-101640000D01*
X157877000Y-98840000D02*
X159877000Y-98840000D01*
X157877000Y-101640000D02*
X157877000Y-98840000D01*
%TO.C,JP7*%
X162309400Y-98840000D02*
X162309400Y-101640000D01*
X162309400Y-101640000D02*
X160309400Y-101640000D01*
X160309400Y-98840000D02*
X162309400Y-98840000D01*
X160309400Y-101640000D02*
X160309400Y-98840000D01*
%TO.C,TP8*%
X155890000Y-97790000D02*
G75*
G02*
X153990000Y-97790000I-950000J0D01*
G01*
X153990000Y-97790000D02*
G75*
G02*
X155890000Y-97790000I950000J0D01*
G01*
%TO.C,TP7*%
X160716000Y-91694000D02*
G75*
G02*
X158816000Y-91694000I-950000J0D01*
G01*
X158816000Y-91694000D02*
G75*
G02*
X160716000Y-91694000I950000J0D01*
G01*
%TO.C,TP6*%
X158938000Y-89535000D02*
G75*
G02*
X157038000Y-89535000I-950000J0D01*
G01*
X157038000Y-89535000D02*
G75*
G02*
X158938000Y-89535000I950000J0D01*
G01*
%TO.C,TP5*%
X157160000Y-100330000D02*
G75*
G02*
X155260000Y-100330000I-950000J0D01*
G01*
X155260000Y-100330000D02*
G75*
G02*
X157160000Y-100330000I950000J0D01*
G01*
%TO.C,TP4*%
X154620000Y-100330000D02*
G75*
G02*
X152720000Y-100330000I-950000J0D01*
G01*
X152720000Y-100330000D02*
G75*
G02*
X154620000Y-100330000I950000J0D01*
G01*
%TO.C,TP3*%
X152080000Y-100330000D02*
G75*
G02*
X150180000Y-100330000I-950000J0D01*
G01*
X150180000Y-100330000D02*
G75*
G02*
X152080000Y-100330000I950000J0D01*
G01*
%TO.C,TP2*%
X149540000Y-100330000D02*
G75*
G02*
X147640000Y-100330000I-950000J0D01*
G01*
X147640000Y-100330000D02*
G75*
G02*
X149540000Y-100330000I950000J0D01*
G01*
%TO.C,TP1*%
X150810000Y-97790000D02*
G75*
G02*
X148910000Y-97790000I-950000J0D01*
G01*
X148910000Y-97790000D02*
G75*
G02*
X150810000Y-97790000I950000J0D01*
G01*
%TO.C,JP10*%
X171085000Y-97285000D02*
X171085000Y-94485000D01*
X171085000Y-94485000D02*
X173085000Y-94485000D01*
X173085000Y-97285000D02*
X171085000Y-97285000D01*
X173085000Y-94485000D02*
X173085000Y-97285000D01*
%TO.C,JP1*%
X156321000Y-84452000D02*
X156321000Y-87252000D01*
X156321000Y-87252000D02*
X154321000Y-87252000D01*
X154321000Y-84452000D02*
X156321000Y-84452000D01*
X154321000Y-87252000D02*
X154321000Y-84452000D01*
%TO.C,JP9*%
X173498000Y-97285000D02*
X173498000Y-94485000D01*
X173498000Y-94485000D02*
X175498000Y-94485000D01*
X175498000Y-97285000D02*
X173498000Y-97285000D01*
X175498000Y-94485000D02*
X175498000Y-97285000D01*
%TO.C,JP6*%
X167135400Y-98840000D02*
X167135400Y-101640000D01*
X167135400Y-101640000D02*
X165135400Y-101640000D01*
X165135400Y-98840000D02*
X167135400Y-98840000D01*
X165135400Y-101640000D02*
X165135400Y-98840000D01*
%TO.C,JP5*%
X164722400Y-98840000D02*
X164722400Y-101640000D01*
X164722400Y-101640000D02*
X162722400Y-101640000D01*
X162722400Y-98840000D02*
X164722400Y-98840000D01*
X162722400Y-101640000D02*
X162722400Y-98840000D01*
%TO.C,JP4*%
X149082000Y-84452000D02*
X149082000Y-87252000D01*
X149082000Y-87252000D02*
X147082000Y-87252000D01*
X147082000Y-84452000D02*
X149082000Y-84452000D01*
X147082000Y-87252000D02*
X147082000Y-84452000D01*
%TO.C,JP3*%
X151495000Y-84452000D02*
X151495000Y-87252000D01*
X151495000Y-87252000D02*
X149495000Y-87252000D01*
X149495000Y-84452000D02*
X151495000Y-84452000D01*
X149495000Y-87252000D02*
X149495000Y-84452000D01*
%TO.C,JP2*%
X153908000Y-84452000D02*
X153908000Y-87252000D01*
X153908000Y-87252000D02*
X151908000Y-87252000D01*
X151908000Y-84452000D02*
X153908000Y-84452000D01*
X151908000Y-87252000D02*
X151908000Y-84452000D01*
D14*
%TO.C,G\u002A\u002A\u002A*%
G36*
X140275751Y-88040808D02*
G01*
X140299175Y-88080774D01*
X140327670Y-88143669D01*
X140331600Y-88152750D01*
X140366026Y-88222727D01*
X140404184Y-88279924D01*
X140450950Y-88329628D01*
X140511202Y-88377123D01*
X140589815Y-88427691D01*
X140602868Y-88435598D01*
X140664544Y-88474864D01*
X140714508Y-88511449D01*
X140761621Y-88552313D01*
X140814741Y-88604411D01*
X140888248Y-88686234D01*
X140940326Y-88761863D01*
X140970847Y-88832818D01*
X140980472Y-88901418D01*
X140969872Y-88969984D01*
X140939706Y-89040837D01*
X140939156Y-89041821D01*
X140923045Y-89065384D01*
X140894743Y-89102320D01*
X140858083Y-89147758D01*
X140816899Y-89196832D01*
X140816477Y-89197325D01*
X140773840Y-89248305D01*
X140734413Y-89297501D01*
X140702568Y-89339329D01*
X140682676Y-89368210D01*
X140679533Y-89373517D01*
X140647911Y-89440341D01*
X140617604Y-89527489D01*
X140589325Y-89630980D01*
X140563790Y-89746835D01*
X140541714Y-89871076D01*
X140523811Y-89999726D01*
X140510795Y-90128805D01*
X140503383Y-90254335D01*
X140502288Y-90372337D01*
X140508004Y-90493031D01*
X140532003Y-90683937D01*
X140573899Y-90859152D01*
X140633525Y-91018176D01*
X140710717Y-91160509D01*
X140805310Y-91285653D01*
X140807798Y-91288450D01*
X140876571Y-91358843D01*
X140944030Y-91411904D01*
X141018077Y-91452921D01*
X141106616Y-91487175D01*
X141187821Y-91508920D01*
X141323944Y-91526302D01*
X141472860Y-91524604D01*
X141633171Y-91504103D01*
X141803475Y-91465077D01*
X141982373Y-91407798D01*
X142168466Y-91332547D01*
X142360350Y-91239596D01*
X142480019Y-91173986D01*
X142625492Y-91083787D01*
X142754975Y-90989690D01*
X142873449Y-90888286D01*
X142926465Y-90837910D01*
X142984472Y-90777212D01*
X143030100Y-90719773D01*
X143067747Y-90659141D01*
X143101826Y-90588857D01*
X143136738Y-90502466D01*
X143137092Y-90501538D01*
X143173598Y-90412009D01*
X143208038Y-90343047D01*
X143243348Y-90291080D01*
X143282463Y-90252529D01*
X143328317Y-90223819D01*
X143383846Y-90201372D01*
X143385275Y-90200897D01*
X143452431Y-90186887D01*
X143527079Y-90187659D01*
X143613006Y-90203602D01*
X143714004Y-90235104D01*
X143751947Y-90248454D01*
X143823997Y-90271153D01*
X143884885Y-90284851D01*
X143942366Y-90290543D01*
X144004186Y-90289223D01*
X144078095Y-90281891D01*
X144108559Y-90278554D01*
X144160369Y-90274532D01*
X144201556Y-90273425D01*
X144225208Y-90275528D01*
X144235221Y-90280080D01*
X144248042Y-90296782D01*
X144251590Y-90325886D01*
X144245643Y-90369915D01*
X144229981Y-90431400D01*
X144204381Y-90512868D01*
X144189318Y-90561853D01*
X144170492Y-90634198D01*
X144156170Y-90702611D01*
X144148532Y-90757534D01*
X144148106Y-90762890D01*
X144140938Y-90850915D01*
X144134847Y-90918709D01*
X144129240Y-90970451D01*
X144123519Y-91010323D01*
X144117092Y-91042508D01*
X144109363Y-91071187D01*
X144099737Y-91100540D01*
X144096785Y-91108890D01*
X144059606Y-91190262D01*
X144012243Y-91253069D01*
X143951095Y-91302199D01*
X143905539Y-91325424D01*
X143852389Y-91339073D01*
X143790041Y-91341533D01*
X143714153Y-91332951D01*
X143620373Y-91313477D01*
X143518179Y-91292959D01*
X143382598Y-91279999D01*
X143260167Y-91286717D01*
X143149842Y-91313112D01*
X143146932Y-91314123D01*
X143032510Y-91359112D01*
X142905517Y-91417816D01*
X142771312Y-91487202D01*
X142635254Y-91564241D01*
X142502701Y-91645903D01*
X142379014Y-91729157D01*
X142269547Y-91810971D01*
X142259945Y-91818692D01*
X142179580Y-91888373D01*
X142097113Y-91967858D01*
X142016969Y-92052299D01*
X141943576Y-92136850D01*
X141881366Y-92216660D01*
X141834765Y-92286884D01*
X141773139Y-92406543D01*
X141730218Y-92527683D01*
X141710208Y-92645398D01*
X141712935Y-92762218D01*
X141738230Y-92880669D01*
X141785917Y-93003281D01*
X141819347Y-93069839D01*
X141870032Y-93154660D01*
X141930190Y-93237584D01*
X142003591Y-93323688D01*
X142094007Y-93418048D01*
X142148759Y-93471495D01*
X142302571Y-93607615D01*
X142464127Y-93729522D01*
X142639044Y-93841239D01*
X142832944Y-93946785D01*
X142866674Y-93963719D01*
X142972238Y-94014343D01*
X143062712Y-94052554D01*
X143142523Y-94079074D01*
X143216091Y-94094627D01*
X143287843Y-94099935D01*
X143362201Y-94095717D01*
X143443588Y-94082699D01*
X143536429Y-94061601D01*
X143575222Y-94052037D01*
X143647030Y-94035327D01*
X143702229Y-94024745D01*
X143745764Y-94019890D01*
X143782586Y-94020361D01*
X143817637Y-94025757D01*
X143855863Y-94035677D01*
X143857542Y-94036166D01*
X143897069Y-94049393D01*
X143928069Y-94065406D01*
X143958757Y-94089510D01*
X143997357Y-94127012D01*
X144020589Y-94151371D01*
X144048949Y-94185444D01*
X144071416Y-94220828D01*
X144089947Y-94262140D01*
X144106492Y-94313997D01*
X144123003Y-94381014D01*
X144141428Y-94467805D01*
X144145107Y-94485689D01*
X144166301Y-94581309D01*
X144187738Y-94661986D01*
X144212081Y-94735944D01*
X144241988Y-94811404D01*
X144280119Y-94896591D01*
X144305486Y-94953341D01*
X144329178Y-95015051D01*
X144340599Y-95060579D01*
X144340350Y-95092598D01*
X144329033Y-95113778D01*
X144310407Y-95120773D01*
X144271771Y-95126852D01*
X144217998Y-95131387D01*
X144153895Y-95133829D01*
X144074337Y-95136287D01*
X143995979Y-95142568D01*
X143928360Y-95154201D01*
X143863935Y-95173004D01*
X143795161Y-95200785D01*
X143714494Y-95239358D01*
X143639681Y-95274890D01*
X143551878Y-95309586D01*
X143476500Y-95329225D01*
X143409877Y-95334362D01*
X143348339Y-95325541D01*
X143288216Y-95303318D01*
X143271601Y-95294918D01*
X143223768Y-95262840D01*
X143183164Y-95220749D01*
X143148160Y-95165710D01*
X143117123Y-95094792D01*
X143088425Y-95005061D01*
X143060434Y-94893584D01*
X143042134Y-94815939D01*
X143024080Y-94748935D01*
X143005777Y-94696439D01*
X142984680Y-94653333D01*
X142958244Y-94614505D01*
X142923926Y-94574835D01*
X142879181Y-94529211D01*
X142868689Y-94518957D01*
X142769765Y-94431801D01*
X142652389Y-94342467D01*
X142521531Y-94254145D01*
X142382156Y-94170026D01*
X142239230Y-94093298D01*
X142097718Y-94027155D01*
X141947508Y-93967207D01*
X141760118Y-93906621D01*
X141584345Y-93866713D01*
X141420511Y-93847517D01*
X141268946Y-93849065D01*
X141129974Y-93871392D01*
X141003919Y-93914529D01*
X140981896Y-93925377D01*
X140911192Y-93971045D01*
X140839978Y-94031029D01*
X140775195Y-94099031D01*
X140723787Y-94168750D01*
X140698604Y-94213868D01*
X140656582Y-94309781D01*
X140617136Y-94425926D01*
X140580990Y-94559501D01*
X140548866Y-94707704D01*
X140521490Y-94867732D01*
X140499585Y-95036784D01*
X140494319Y-95092307D01*
X140487696Y-95204044D01*
X140485026Y-95322931D01*
X140486103Y-95444434D01*
X140490719Y-95564024D01*
X140498668Y-95677170D01*
X140509745Y-95779339D01*
X140523740Y-95866003D01*
X140540449Y-95932630D01*
X140541766Y-95936623D01*
X140568154Y-96003371D01*
X140603181Y-96067658D01*
X140650480Y-96135344D01*
X140713676Y-96212290D01*
X140729065Y-96230258D01*
X140785248Y-96301669D01*
X140823324Y-96363832D01*
X140844529Y-96421434D01*
X140850096Y-96479165D01*
X140841258Y-96541713D01*
X140819244Y-96613768D01*
X140816837Y-96620434D01*
X140808439Y-96642196D01*
X140798987Y-96661740D01*
X140786137Y-96681873D01*
X140767539Y-96705405D01*
X140740849Y-96735144D01*
X140703722Y-96773901D01*
X140653807Y-96824485D01*
X140588759Y-96889705D01*
X140542103Y-96936458D01*
X140484588Y-96994647D01*
X140440216Y-97041059D01*
X140406387Y-97079110D01*
X140380503Y-97112221D01*
X140359963Y-97143809D01*
X140342169Y-97177289D01*
X140324523Y-97216080D01*
X140304423Y-97263602D01*
X140293855Y-97288525D01*
X140268855Y-97342470D01*
X140246450Y-97378738D01*
X140224582Y-97396755D01*
X140201194Y-97395946D01*
X140174228Y-97375741D01*
X140141630Y-97335561D01*
X140101341Y-97274838D01*
X140051307Y-97192995D01*
X140039827Y-97173950D01*
X139989514Y-97093096D01*
X139944826Y-97027497D01*
X139901118Y-96971563D01*
X139853743Y-96919703D01*
X139798051Y-96866329D01*
X139729397Y-96805853D01*
X139681531Y-96763242D01*
X139633034Y-96713997D01*
X139599549Y-96669615D01*
X139577679Y-96625383D01*
X139564021Y-96576587D01*
X139561880Y-96564269D01*
X139561026Y-96519134D01*
X139572629Y-96472458D01*
X139598339Y-96420699D01*
X139639808Y-96360314D01*
X139698685Y-96287767D01*
X139741445Y-96236167D01*
X139783448Y-96182691D01*
X139818670Y-96135061D01*
X139842297Y-96099585D01*
X139857843Y-96070950D01*
X139888999Y-96001046D01*
X139919679Y-95918042D01*
X139947431Y-95829431D01*
X139969806Y-95742707D01*
X139984348Y-95665364D01*
X139987089Y-95643366D01*
X139993371Y-95570699D01*
X139998138Y-95482229D01*
X140001285Y-95384385D01*
X140002696Y-95283599D01*
X140002261Y-95186294D01*
X139999869Y-95098904D01*
X139995407Y-95027858D01*
X139976667Y-94872481D01*
X139944786Y-94698650D01*
X139903009Y-94534009D01*
X139852605Y-94383473D01*
X139794844Y-94251957D01*
X139786393Y-94235470D01*
X139764345Y-94195435D01*
X139741784Y-94161038D01*
X139714346Y-94126636D01*
X139677669Y-94086581D01*
X139627390Y-94035226D01*
X139609284Y-94017075D01*
X139563410Y-93972198D01*
X139528153Y-93940425D01*
X139498801Y-93918038D01*
X139470646Y-93901318D01*
X139438972Y-93886548D01*
X139424370Y-93880460D01*
X139292503Y-93840160D01*
X139147287Y-93820556D01*
X138988846Y-93821648D01*
X138817290Y-93843433D01*
X138632739Y-93885916D01*
X138604794Y-93893808D01*
X138527644Y-93917793D01*
X138454720Y-93944514D01*
X138381089Y-93976196D01*
X138301820Y-94015067D01*
X138211977Y-94063350D01*
X138106630Y-94123270D01*
X138084602Y-94136071D01*
X137962773Y-94208713D01*
X137859389Y-94274125D01*
X137770947Y-94334807D01*
X137693951Y-94393257D01*
X137624900Y-94451978D01*
X137560293Y-94513464D01*
X137555862Y-94517917D01*
X137487497Y-94590560D01*
X137434925Y-94656572D01*
X137393819Y-94722890D01*
X137359848Y-94796443D01*
X137328675Y-94884169D01*
X137299479Y-94967987D01*
X137270780Y-95033094D01*
X137240131Y-95082884D01*
X137204709Y-95121944D01*
X137161685Y-95154855D01*
X137152365Y-95160763D01*
X137101269Y-95184885D01*
X137047494Y-95194622D01*
X136986879Y-95189720D01*
X136915263Y-95169935D01*
X136828487Y-95135018D01*
X136768751Y-95109254D01*
X136703532Y-95084206D01*
X136642883Y-95065831D01*
X136581943Y-95053423D01*
X136515859Y-95046279D01*
X136439769Y-95043693D01*
X136348820Y-95044962D01*
X136238154Y-95049380D01*
X136223031Y-95050059D01*
X136155250Y-95051380D01*
X136108682Y-95047159D01*
X136082380Y-95035121D01*
X136075402Y-95012993D01*
X136086806Y-94978503D01*
X136115645Y-94929376D01*
X136160981Y-94863335D01*
X136203731Y-94800755D01*
X136252415Y-94719806D01*
X136289701Y-94641637D01*
X136319421Y-94557868D01*
X136345415Y-94460115D01*
X136354275Y-94423212D01*
X136388270Y-94293777D01*
X136421848Y-94186572D01*
X136455833Y-94099663D01*
X136491063Y-94031120D01*
X136528365Y-93979010D01*
X136568570Y-93941405D01*
X136596007Y-93924616D01*
X136635933Y-93912289D01*
X136684010Y-93911390D01*
X136744793Y-93921963D01*
X136822841Y-93944057D01*
X136840463Y-93949387D01*
X136938496Y-93971030D01*
X137029957Y-93978310D01*
X137059699Y-93977354D01*
X137145322Y-93969025D01*
X137244327Y-93953255D01*
X137349993Y-93931376D01*
X137455592Y-93904718D01*
X137554400Y-93874610D01*
X137624111Y-93848835D01*
X137717311Y-93809546D01*
X137816054Y-93763798D01*
X137913082Y-93715109D01*
X138001135Y-93667004D01*
X138072958Y-93623000D01*
X138094033Y-93608801D01*
X138232833Y-93505834D01*
X138360522Y-93394669D01*
X138475000Y-93277811D01*
X138574164Y-93157775D01*
X138655913Y-93037072D01*
X138718144Y-92918211D01*
X138758754Y-92803708D01*
X138773508Y-92702791D01*
X138766701Y-92591405D01*
X138738061Y-92475020D01*
X138688366Y-92355191D01*
X138618386Y-92233469D01*
X138528899Y-92111403D01*
X138420676Y-91990553D01*
X138294492Y-91872465D01*
X138246237Y-91831812D01*
X138129669Y-91741760D01*
X138011251Y-91662843D01*
X137886418Y-91592625D01*
X137750609Y-91528670D01*
X137599253Y-91468541D01*
X137427790Y-91409801D01*
X137394781Y-91399419D01*
X137301682Y-91373745D01*
X137217472Y-91357656D01*
X137133950Y-91350291D01*
X137042914Y-91350793D01*
X136936158Y-91358301D01*
X136864733Y-91364119D01*
X136787237Y-91367583D01*
X136725989Y-91365689D01*
X136676397Y-91357969D01*
X136633870Y-91343949D01*
X136593820Y-91323161D01*
X136548109Y-91286540D01*
X136498178Y-91225056D01*
X136453984Y-91147905D01*
X136417824Y-91059922D01*
X136391997Y-90965941D01*
X136378801Y-90870795D01*
X136370168Y-90794188D01*
X136351092Y-90711112D01*
X136320251Y-90625868D01*
X136275760Y-90533342D01*
X136215734Y-90428424D01*
X136194626Y-90393404D01*
X136154820Y-90325279D01*
X136127238Y-90273751D01*
X136110805Y-90236088D01*
X136104450Y-90209552D01*
X136107094Y-90191410D01*
X136117663Y-90178927D01*
X136124962Y-90174750D01*
X136140531Y-90170801D01*
X136164681Y-90169640D01*
X136200577Y-90171456D01*
X136251385Y-90176444D01*
X136320271Y-90184796D01*
X136410403Y-90196703D01*
X136443735Y-90200604D01*
X136534407Y-90204585D01*
X136628375Y-90198171D01*
X136731690Y-90180746D01*
X136850399Y-90151688D01*
X136942359Y-90129975D01*
X137053507Y-90115406D01*
X137151169Y-90117908D01*
X137237773Y-90137391D01*
X137269026Y-90149043D01*
X137304717Y-90167329D01*
X137338666Y-90193105D01*
X137379565Y-90232183D01*
X137408623Y-90262509D01*
X137433911Y-90293304D01*
X137454512Y-90326351D01*
X137474716Y-90368668D01*
X137498812Y-90427268D01*
X137504959Y-90442649D01*
X137556496Y-90564184D01*
X137606956Y-90667516D01*
X137659757Y-90758023D01*
X137718312Y-90841096D01*
X137786040Y-90922113D01*
X137866357Y-91006460D01*
X137889544Y-91029139D01*
X138033354Y-91150279D01*
X138196296Y-91257408D01*
X138376710Y-91349538D01*
X138572927Y-91425683D01*
X138723153Y-91470019D01*
X138894828Y-91505490D01*
X139056102Y-91521612D01*
X139205784Y-91518347D01*
X139342688Y-91495660D01*
X139465622Y-91453513D01*
X139480884Y-91446149D01*
X139549288Y-91402904D01*
X139621106Y-91343463D01*
X139691080Y-91273007D01*
X139753949Y-91196716D01*
X139804458Y-91119768D01*
X139835023Y-91060654D01*
X139884249Y-90943021D01*
X139926087Y-90814098D01*
X139957968Y-90682265D01*
X139977326Y-90555895D01*
X139988795Y-90436660D01*
X139999823Y-90307903D01*
X140008895Y-90185886D01*
X140015849Y-90073573D01*
X140020528Y-89973928D01*
X140022769Y-89889914D01*
X140022411Y-89824495D01*
X140019294Y-89780637D01*
X139995324Y-89677089D01*
X139948633Y-89559118D01*
X139881229Y-89435525D01*
X139794199Y-89308283D01*
X139688631Y-89179369D01*
X139643270Y-89127015D01*
X139588177Y-89057774D01*
X139548639Y-88998486D01*
X139522655Y-88945529D01*
X139508223Y-88895282D01*
X139503343Y-88844129D01*
X139503341Y-88844065D01*
X139506450Y-88779983D01*
X139520282Y-88728638D01*
X139548398Y-88681686D01*
X139594361Y-88630772D01*
X139613888Y-88612051D01*
X139647968Y-88583469D01*
X139686836Y-88557118D01*
X139736497Y-88529103D01*
X139802964Y-88495527D01*
X139874258Y-88458583D01*
X139947576Y-88413336D01*
X140005114Y-88366751D01*
X140051520Y-88314938D01*
X140091433Y-88254008D01*
X140113605Y-88215284D01*
X140143462Y-88163162D01*
X140172434Y-88112607D01*
X140179919Y-88099680D01*
X140209486Y-88053210D01*
X140233552Y-88027556D01*
X140254759Y-88023245D01*
X140275751Y-88040808D01*
G37*
%TD*%
M02*
