%TF.GenerationSoftware,KiCad,Pcbnew,8.0.5*%
%TF.CreationDate,2024-09-24T12:34:27-04:00*%
%TF.ProjectId,afe-featherwing,6166652d-6665-4617-9468-657277696e67,rev?*%
%TF.SameCoordinates,Original*%
%TF.FileFunction,Legend,Top*%
%TF.FilePolarity,Positive*%
%FSLAX46Y46*%
G04 Gerber Fmt 4.6, Leading zero omitted, Abs format (unit mm)*
G04 Created by KiCad (PCBNEW 8.0.5) date 2024-09-24 12:34:27*
%MOMM*%
%LPD*%
G01*
G04 APERTURE LIST*
%ADD10C,0.304800*%
%ADD11C,0.150000*%
%ADD12C,0.120000*%
%ADD13C,0.000000*%
G04 APERTURE END LIST*
D10*
X136256835Y-84252641D02*
X136447335Y-82728641D01*
X136356621Y-83454355D02*
X137082335Y-83454355D01*
X136982549Y-84252641D02*
X137173049Y-82728641D01*
X138258597Y-83236641D02*
X138131597Y-84252641D01*
X137714311Y-83236641D02*
X137614525Y-84034927D01*
X137614525Y-84034927D02*
X137656859Y-84180070D01*
X137656859Y-84180070D02*
X137768740Y-84252641D01*
X137768740Y-84252641D02*
X137950168Y-84252641D01*
X137950168Y-84252641D02*
X138080192Y-84180070D01*
X138080192Y-84180070D02*
X138149740Y-84107498D01*
X138917788Y-84252641D02*
X138805907Y-84180070D01*
X138805907Y-84180070D02*
X138763573Y-84034927D01*
X138763573Y-84034927D02*
X138926859Y-82728641D01*
X139945883Y-84252641D02*
X140045668Y-83454355D01*
X140045668Y-83454355D02*
X140003335Y-83309212D01*
X140003335Y-83309212D02*
X139891454Y-83236641D01*
X139891454Y-83236641D02*
X139649549Y-83236641D01*
X139649549Y-83236641D02*
X139519526Y-83309212D01*
X139954954Y-84180070D02*
X139824930Y-84252641D01*
X139824930Y-84252641D02*
X139522549Y-84252641D01*
X139522549Y-84252641D02*
X139410668Y-84180070D01*
X139410668Y-84180070D02*
X139368335Y-84034927D01*
X139368335Y-84034927D02*
X139386478Y-83889784D01*
X139386478Y-83889784D02*
X139465097Y-83744641D01*
X139465097Y-83744641D02*
X139595121Y-83672070D01*
X139595121Y-83672070D02*
X139897502Y-83672070D01*
X139897502Y-83672070D02*
X140027526Y-83599498D01*
X141769240Y-82728641D02*
X141612002Y-83018927D01*
X142234907Y-82873784D02*
X142304455Y-82801212D01*
X142304455Y-82801212D02*
X142434478Y-82728641D01*
X142434478Y-82728641D02*
X142736859Y-82728641D01*
X142736859Y-82728641D02*
X142848740Y-82801212D01*
X142848740Y-82801212D02*
X142900145Y-82873784D01*
X142900145Y-82873784D02*
X142942478Y-83018927D01*
X142942478Y-83018927D02*
X142924336Y-83164070D01*
X142924336Y-83164070D02*
X142836645Y-83381784D01*
X142836645Y-83381784D02*
X142002074Y-84252641D01*
X142002074Y-84252641D02*
X142788264Y-84252641D01*
X144003836Y-83236641D02*
X143876836Y-84252641D01*
X143774026Y-82656070D02*
X143335574Y-83744641D01*
X143335574Y-83744641D02*
X144121764Y-83744641D01*
D11*
X134947066Y-97956019D02*
X134947066Y-98670304D01*
X134947066Y-98670304D02*
X134899447Y-98813161D01*
X134899447Y-98813161D02*
X134804209Y-98908400D01*
X134804209Y-98908400D02*
X134661352Y-98956019D01*
X134661352Y-98956019D02*
X134566114Y-98956019D01*
X135947066Y-98956019D02*
X135375638Y-98956019D01*
X135661352Y-98956019D02*
X135661352Y-97956019D01*
X135661352Y-97956019D02*
X135566114Y-98098876D01*
X135566114Y-98098876D02*
X135470876Y-98194114D01*
X135470876Y-98194114D02*
X135375638Y-98241733D01*
D12*
%TO.C,U1*%
X156231600Y-92543600D02*
X156231600Y-88943600D01*
X156231600Y-92543600D02*
X156231600Y-94743600D01*
X151011600Y-92543600D02*
X151011600Y-90343600D01*
X151011600Y-92543600D02*
X151011600Y-94743600D01*
D11*
%TO.C,J1*%
X146160000Y-87860000D02*
X144660000Y-87860000D01*
X146160000Y-87860000D02*
X146160000Y-89860000D01*
X134160000Y-87860000D02*
X135360000Y-87860000D01*
X134160000Y-87860000D02*
X134160000Y-89860000D01*
X146160000Y-95360000D02*
X146160000Y-97360000D01*
X146160000Y-97360000D02*
X145210000Y-97360000D01*
X134160000Y-97360000D02*
X134160000Y-95360000D01*
X134160000Y-97360000D02*
X137510000Y-97360000D01*
D13*
%TO.C,L1*%
G36*
X145838334Y-75861334D02*
G01*
X146431001Y-75861334D01*
X146431001Y-74252667D01*
X147193001Y-74252667D01*
X147193001Y-75083493D01*
X147190504Y-75467829D01*
X147176982Y-75723167D01*
X147143387Y-75889830D01*
X147080671Y-76008143D01*
X146979787Y-76118430D01*
X146955534Y-76141827D01*
X146804305Y-76266925D01*
X146643667Y-76335754D01*
X146416544Y-76364444D01*
X146150430Y-76369334D01*
X145831711Y-76361488D01*
X145623854Y-76326517D01*
X145468682Y-76247270D01*
X145329563Y-76127334D01*
X145212540Y-76007972D01*
X145138582Y-75893494D01*
X145097817Y-75742648D01*
X145080376Y-75514179D01*
X145076386Y-75166835D01*
X145076334Y-75069001D01*
X145076334Y-74252667D01*
X145838334Y-74252667D01*
X145838334Y-75861334D01*
G37*
G36*
X165904334Y-74760667D02*
G01*
X165220792Y-74760667D01*
X164881317Y-74764569D01*
X164679410Y-74781048D01*
X164583397Y-74817265D01*
X164561599Y-74880382D01*
X164565387Y-74908834D01*
X164628115Y-75005593D01*
X164794301Y-75060535D01*
X165016095Y-75083305D01*
X165345806Y-75134784D01*
X165586082Y-75258275D01*
X165671501Y-75331979D01*
X165858469Y-75575324D01*
X165882350Y-75808959D01*
X165743309Y-76057778D01*
X165676827Y-76131868D01*
X165563503Y-76241034D01*
X165449821Y-76310312D01*
X165295458Y-76348748D01*
X165060089Y-76365391D01*
X164703390Y-76369288D01*
X164618493Y-76369334D01*
X163787667Y-76369334D01*
X163787667Y-75861334D01*
X164465001Y-75861334D01*
X164802477Y-75857799D01*
X165004735Y-75841516D01*
X165105836Y-75803970D01*
X165139841Y-75736647D01*
X165142334Y-75692001D01*
X165120913Y-75591940D01*
X165029301Y-75541130D01*
X164826472Y-75523778D01*
X164702467Y-75522667D01*
X164405327Y-75504613D01*
X164200911Y-75433808D01*
X164025133Y-75295160D01*
X163869357Y-75101498D01*
X163790173Y-74916155D01*
X163787667Y-74887667D01*
X163846272Y-74713450D01*
X163990715Y-74515048D01*
X164025133Y-74480174D01*
X164145965Y-74374667D01*
X164268998Y-74308054D01*
X164435589Y-74271443D01*
X164687095Y-74255945D01*
X165064873Y-74252670D01*
X165083467Y-74252667D01*
X165904334Y-74252667D01*
X165904334Y-74760667D01*
G37*
G36*
X153797001Y-74506667D02*
G01*
X153783627Y-74669534D01*
X153711154Y-74741935D01*
X153531056Y-74760266D01*
X153458334Y-74760667D01*
X153119667Y-74760667D01*
X153119667Y-76369334D01*
X152357667Y-76369334D01*
X152357667Y-74760667D01*
X152019001Y-74760667D01*
X151801845Y-74750637D01*
X151705310Y-74696282D01*
X151680868Y-74561209D01*
X151680334Y-74506667D01*
X151680334Y-74252667D01*
X153797001Y-74252667D01*
X153797001Y-74506667D01*
G37*
G36*
X150241001Y-75861334D02*
G01*
X151595667Y-75861334D01*
X151595667Y-76369334D01*
X149479001Y-76369334D01*
X149479001Y-74252667D01*
X150241001Y-74252667D01*
X150241001Y-75861334D01*
G37*
G36*
X158749828Y-74285116D02*
G01*
X158950978Y-74399716D01*
X159203978Y-74622347D01*
X159233926Y-74651651D01*
X159639001Y-75050635D01*
X159639001Y-74252667D01*
X160401001Y-74252667D01*
X160401001Y-76369334D01*
X159639001Y-76369334D01*
X159639001Y-76004943D01*
X159616068Y-75748444D01*
X159522950Y-75551717D01*
X159342667Y-75353334D01*
X159046334Y-75066116D01*
X159046334Y-76369334D01*
X158284334Y-76369334D01*
X158284334Y-74252667D01*
X158556592Y-74252667D01*
X158749828Y-74285116D01*
G37*
G36*
X142790334Y-74760667D02*
G01*
X142106792Y-74760667D01*
X141767317Y-74764569D01*
X141565410Y-74781048D01*
X141469397Y-74817265D01*
X141447599Y-74880382D01*
X141451387Y-74908834D01*
X141514115Y-75005593D01*
X141680301Y-75060535D01*
X141902095Y-75083305D01*
X142231806Y-75134784D01*
X142472082Y-75258275D01*
X142557501Y-75331979D01*
X142744469Y-75575324D01*
X142768350Y-75808959D01*
X142629309Y-76057778D01*
X142562827Y-76131868D01*
X142449503Y-76241034D01*
X142335821Y-76310312D01*
X142181458Y-76348748D01*
X141946089Y-76365391D01*
X141589390Y-76369288D01*
X141504493Y-76369334D01*
X140673667Y-76369334D01*
X140673667Y-75861334D01*
X141351001Y-75861334D01*
X141688477Y-75857799D01*
X141890735Y-75841516D01*
X141991836Y-75803970D01*
X142025841Y-75736647D01*
X142028334Y-75692001D01*
X142006913Y-75591940D01*
X141915301Y-75541130D01*
X141712472Y-75523778D01*
X141588467Y-75522667D01*
X141291327Y-75504613D01*
X141086911Y-75433808D01*
X140911133Y-75295160D01*
X140720092Y-75043097D01*
X140696120Y-74801838D01*
X140839219Y-74554593D01*
X140911133Y-74480174D01*
X141031965Y-74374667D01*
X141154998Y-74308054D01*
X141321589Y-74271443D01*
X141573095Y-74255945D01*
X141950873Y-74252670D01*
X141969467Y-74252667D01*
X142790334Y-74252667D01*
X142790334Y-74760667D01*
G37*
G36*
X155096829Y-74255164D02*
G01*
X155352167Y-74268686D01*
X155518830Y-74302281D01*
X155637143Y-74364997D01*
X155747430Y-74465881D01*
X155770827Y-74490133D01*
X155945177Y-74767234D01*
X155998670Y-75074672D01*
X155926225Y-75356518D01*
X155858212Y-75452500D01*
X155764561Y-75581517D01*
X155794295Y-75686674D01*
X155858212Y-75762167D01*
X155967009Y-75966435D01*
X155998334Y-76143167D01*
X155973704Y-76303986D01*
X155864813Y-76363189D01*
X155743563Y-76369334D01*
X155450497Y-76286535D01*
X155223006Y-76115334D01*
X155023012Y-75957065D01*
X154844111Y-75868287D01*
X154800443Y-75861334D01*
X154684060Y-75907727D01*
X154644437Y-76071948D01*
X154643667Y-76115334D01*
X154632623Y-76271522D01*
X154568853Y-76345498D01*
X154406403Y-76367898D01*
X154262667Y-76369334D01*
X153881667Y-76369334D01*
X153881667Y-75057001D01*
X154643667Y-75057001D01*
X154656774Y-75255612D01*
X154730720Y-75337065D01*
X154917445Y-75353297D01*
X154940001Y-75353334D01*
X155138612Y-75340227D01*
X155220065Y-75266281D01*
X155236297Y-75079556D01*
X155236334Y-75057001D01*
X155223227Y-74858389D01*
X155149281Y-74776936D01*
X154962556Y-74760704D01*
X154940001Y-74760667D01*
X154741389Y-74773774D01*
X154659936Y-74847720D01*
X154643704Y-75034445D01*
X154643667Y-75057001D01*
X153881667Y-75057001D01*
X153881667Y-74252667D01*
X154712493Y-74252667D01*
X155096829Y-74255164D01*
G37*
G36*
X157458223Y-74259960D02*
G01*
X157670731Y-74291828D01*
X157823620Y-74363256D01*
X157962201Y-74480174D01*
X158087943Y-74616372D01*
X158159384Y-74757519D01*
X158191587Y-74956310D01*
X158199613Y-75265445D01*
X158199667Y-75311001D01*
X158193476Y-75636399D01*
X158164861Y-75845321D01*
X158098760Y-75990466D01*
X157980111Y-76124531D01*
X157962201Y-76141827D01*
X157810971Y-76266925D01*
X157650334Y-76335754D01*
X157423211Y-76364444D01*
X157157097Y-76369334D01*
X156838378Y-76361488D01*
X156630521Y-76326517D01*
X156475349Y-76247270D01*
X156336230Y-76127334D01*
X156200145Y-75982331D01*
X156136054Y-75861334D01*
X156124007Y-75838590D01*
X156090678Y-75640555D01*
X156083018Y-75332666D01*
X156083001Y-75306467D01*
X156090826Y-74983072D01*
X156124711Y-74772671D01*
X156130623Y-74760667D01*
X156845001Y-74760667D01*
X156845001Y-75861334D01*
X157437667Y-75861334D01*
X157437667Y-74760667D01*
X156845001Y-74760667D01*
X156130623Y-74760667D01*
X156200267Y-74619249D01*
X156310508Y-74490133D01*
X156448129Y-74363420D01*
X156591073Y-74291925D01*
X156792843Y-74260172D01*
X157106939Y-74252683D01*
X157131375Y-74252667D01*
X157458223Y-74259960D01*
G37*
G36*
X163703001Y-74760667D02*
G01*
X162348334Y-74760667D01*
X162348334Y-75861334D01*
X163703001Y-75861334D01*
X163703001Y-76369334D01*
X162897897Y-76369334D01*
X162519400Y-76366488D01*
X162267738Y-76351474D01*
X162100430Y-76314579D01*
X161974996Y-76246089D01*
X161848954Y-76136290D01*
X161839563Y-76127334D01*
X161703478Y-75982331D01*
X161627341Y-75838590D01*
X161594011Y-75640555D01*
X161586352Y-75332666D01*
X161586334Y-75306467D01*
X161594160Y-74983072D01*
X161628045Y-74772671D01*
X161703600Y-74619249D01*
X161813841Y-74490133D01*
X161927165Y-74380967D01*
X162040846Y-74311689D01*
X162195210Y-74273253D01*
X162430579Y-74256610D01*
X162787278Y-74252713D01*
X162872174Y-74252667D01*
X163703001Y-74252667D01*
X163703001Y-74760667D01*
G37*
G36*
X143653528Y-74654834D02*
G01*
X143676837Y-74898478D01*
X143728056Y-75020733D01*
X143840777Y-75069447D01*
X143954501Y-75083532D01*
X144229667Y-75110063D01*
X144229667Y-74252667D01*
X144991667Y-74252667D01*
X144991667Y-76369334D01*
X144229667Y-76369334D01*
X144229667Y-75522667D01*
X143637001Y-75522667D01*
X143637001Y-76369334D01*
X142875001Y-76369334D01*
X142875001Y-74252667D01*
X143627723Y-74252667D01*
X143653528Y-74654834D01*
G37*
G36*
X161501667Y-76369334D02*
G01*
X160485667Y-76369334D01*
X160485667Y-74252667D01*
X161501667Y-74252667D01*
X161501667Y-76369334D01*
G37*
G36*
X148039667Y-75861334D02*
G01*
X149394334Y-75861334D01*
X149394334Y-76369334D01*
X147277667Y-76369334D01*
X147277667Y-74252667D01*
X148039667Y-74252667D01*
X148039667Y-75861334D01*
G37*
D11*
%TO.C,J5*%
X168656000Y-99060000D02*
X170561000Y-99060000D01*
X168656000Y-99060000D02*
X168656000Y-97155000D01*
X168656000Y-86360000D02*
X168656000Y-88265000D01*
X168656000Y-86360000D02*
X170561000Y-86360000D01*
X182372000Y-99060000D02*
X180467000Y-99060000D01*
X182372000Y-99060000D02*
X182372000Y-97155000D01*
X182372000Y-86360000D02*
X182372000Y-88265000D01*
X182372000Y-86360000D02*
X180467000Y-86360000D01*
D12*
%TO.C,C1*%
X150429965Y-87531400D02*
X150661635Y-87531400D01*
X150429965Y-88251400D02*
X150661635Y-88251400D01*
%TO.C,C7*%
X162896437Y-85987600D02*
X163532000Y-85987600D01*
X167352000Y-87052037D02*
X167352000Y-91507600D01*
X161832000Y-91507600D02*
X163532000Y-91507600D01*
X161832000Y-87052037D02*
X161832000Y-91507600D01*
X166287563Y-85987600D02*
X165652000Y-85987600D01*
X166589500Y-85435100D02*
X165964500Y-85435100D01*
X167352000Y-91507600D02*
X165652000Y-91507600D01*
X162896437Y-85987600D02*
X161832000Y-87052037D01*
X166277000Y-85122600D02*
X166277000Y-85747600D01*
X166287563Y-85987600D02*
X167352000Y-87052037D01*
%TO.C,C8*%
X166287563Y-94354000D02*
X167352000Y-95418437D01*
X166277000Y-93489000D02*
X166277000Y-94114000D01*
X162896437Y-94354000D02*
X161832000Y-95418437D01*
X167352000Y-99874000D02*
X165652000Y-99874000D01*
X166589500Y-93801500D02*
X165964500Y-93801500D01*
X166287563Y-94354000D02*
X165652000Y-94354000D01*
X161832000Y-95418437D02*
X161832000Y-99874000D01*
X161832000Y-99874000D02*
X163532000Y-99874000D01*
X167352000Y-95418437D02*
X167352000Y-99874000D01*
X162896437Y-94354000D02*
X163532000Y-94354000D01*
%TO.C,D6*%
X158893000Y-96742800D02*
X160593000Y-96742800D01*
X158893000Y-96742800D02*
X158893000Y-94082800D01*
X160593000Y-96742800D02*
X160593000Y-94082800D01*
%TO.C,D5*%
X156805400Y-96742800D02*
X158505400Y-96742800D01*
X156805400Y-96742800D02*
X156805400Y-94082800D01*
X158505400Y-96742800D02*
X158505400Y-94082800D01*
%TO.C,D4*%
X159473000Y-85004000D02*
X157773000Y-85004000D01*
X159473000Y-85004000D02*
X159473000Y-87664000D01*
X157773000Y-85004000D02*
X157773000Y-87664000D01*
%TO.C,D3*%
X155741000Y-88190000D02*
X157441000Y-88190000D01*
X155741000Y-88190000D02*
X155741000Y-85530000D01*
X157441000Y-88190000D02*
X157441000Y-85530000D01*
%TO.C,C6*%
X150451000Y-95067765D02*
X150451000Y-95299435D01*
X149731000Y-95067765D02*
X149731000Y-95299435D01*
%TO.C,D2*%
X148932000Y-90939000D02*
X147232000Y-90939000D01*
X148932000Y-90939000D02*
X148932000Y-93599000D01*
X147232000Y-90939000D02*
X147232000Y-93599000D01*
%TO.C,D1*%
X148932000Y-87383000D02*
X147232000Y-87383000D01*
X148932000Y-87383000D02*
X148932000Y-90043000D01*
X147232000Y-87383000D02*
X147232000Y-90043000D01*
%TO.C,C5*%
X156866000Y-92063835D02*
X156866000Y-91832165D01*
X157586000Y-92063835D02*
X157586000Y-91832165D01*
%TO.C,C3*%
X149731000Y-90219435D02*
X149731000Y-89987765D01*
X150451000Y-90219435D02*
X150451000Y-89987765D01*
%TO.C,C2*%
X149731000Y-92759435D02*
X149731000Y-92527765D01*
X150451000Y-92759435D02*
X150451000Y-92527765D01*
%TD*%
M02*
