%TF.GenerationSoftware,KiCad,Pcbnew,8.0.5*%
%TF.CreationDate,2024-09-24T12:34:27-04:00*%
%TF.ProjectId,afe-featherwing,6166652d-6665-4617-9468-657277696e67,rev?*%
%TF.SameCoordinates,Original*%
%TF.FileFunction,Copper,L2,Inr*%
%TF.FilePolarity,Positive*%
%FSLAX46Y46*%
G04 Gerber Fmt 4.6, Leading zero omitted, Abs format (unit mm)*
G04 Created by KiCad (PCBNEW 8.0.5) date 2024-09-24 12:34:27*
%MOMM*%
%LPD*%
G01*
G04 APERTURE LIST*
G04 Aperture macros list*
%AMRoundRect*
0 Rectangle with rounded corners*
0 $1 Rounding radius*
0 $2 $3 $4 $5 $6 $7 $8 $9 X,Y pos of 4 corners*
0 Add a 4 corners polygon primitive as box body*
4,1,4,$2,$3,$4,$5,$6,$7,$8,$9,$2,$3,0*
0 Add four circle primitives for the rounded corners*
1,1,$1+$1,$2,$3*
1,1,$1+$1,$4,$5*
1,1,$1+$1,$6,$7*
1,1,$1+$1,$8,$9*
0 Add four rect primitives between the rounded corners*
20,1,$1+$1,$2,$3,$4,$5,0*
20,1,$1+$1,$4,$5,$6,$7,0*
20,1,$1+$1,$6,$7,$8,$9,0*
20,1,$1+$1,$8,$9,$2,$3,0*%
G04 Aperture macros list end*
%TA.AperFunction,ComponentPad*%
%ADD10C,1.500000*%
%TD*%
%TA.AperFunction,ComponentPad*%
%ADD11RoundRect,0.444500X-0.444500X0.444500X-0.444500X-0.444500X0.444500X-0.444500X0.444500X0.444500X0*%
%TD*%
%TA.AperFunction,ComponentPad*%
%ADD12C,1.778000*%
%TD*%
%TA.AperFunction,ComponentPad*%
%ADD13C,1.700000*%
%TD*%
%TA.AperFunction,ComponentPad*%
%ADD14O,1.700000X1.700000*%
%TD*%
%TA.AperFunction,ViaPad*%
%ADD15C,0.508000*%
%TD*%
G04 APERTURE END LIST*
D10*
%TO.N,/ENVF_OUT_SCALED*%
%TO.C,TP8*%
X154940000Y-97790000D03*
%TD*%
%TO.N,/EF_OUT*%
%TO.C,TP7*%
X159766000Y-91694000D03*
%TD*%
%TO.N,/AMP_OUT {slash} EF_IN*%
%TO.C,TP6*%
X157988000Y-89535000D03*
%TD*%
%TO.N,/A3*%
%TO.C,TP5*%
X156210000Y-100330000D03*
%TD*%
%TO.N,/A2*%
%TO.C,TP4*%
X153670000Y-100330000D03*
%TD*%
%TO.N,/A1*%
%TO.C,TP3*%
X151130000Y-100330000D03*
%TD*%
%TO.N,/A0*%
%TO.C,TP2*%
X148590000Y-100330000D03*
%TD*%
%TO.N,/AMP_OUT_SCALED*%
%TO.C,TP1*%
X149860000Y-97790000D03*
%TD*%
D11*
%TO.N,+12V*%
%TO.C,J5*%
X169672000Y-88900000D03*
D12*
%TO.N,GND*%
X169672000Y-91440000D03*
%TO.N,-12V*%
X169672000Y-93980000D03*
%TO.N,Net-(JP10-B)*%
X169672000Y-96520000D03*
%TD*%
D13*
%TO.N,/VBAT*%
%TO.C,J3*%
X148590000Y-82550000D03*
D14*
%TO.N,/~{EN}*%
X151130000Y-82550000D03*
%TO.N,/USB*%
X153670000Y-82550000D03*
%TO.N,/D13*%
X156210000Y-82550000D03*
%TO.N,/D12*%
X158750000Y-82550000D03*
%TO.N,/D11*%
X161290000Y-82550000D03*
%TO.N,/D10*%
X163830000Y-82550000D03*
%TO.N,/D9*%
X166370000Y-82550000D03*
%TO.N,/D6*%
X168910000Y-82550000D03*
%TO.N,unconnected-(J3-Pad10)*%
X171450000Y-82550000D03*
%TO.N,/SCL*%
X173990000Y-82550000D03*
%TO.N,/SDA*%
X176530000Y-82550000D03*
%TD*%
%TO.N,/~{RST}*%
%TO.C,J2*%
X138430000Y-102870000D03*
%TO.N,unconnected-(J2-Pad15)*%
X140970000Y-102870000D03*
%TO.N,/VREF*%
X143510000Y-102870000D03*
%TO.N,GND*%
X146050000Y-102870000D03*
%TO.N,/A0*%
X148590000Y-102870000D03*
%TO.N,/A1*%
X151130000Y-102870000D03*
%TO.N,/A2*%
X153670000Y-102870000D03*
%TO.N,/A3*%
X156210000Y-102870000D03*
%TO.N,unconnected-(J2-Pad8)*%
X158750000Y-102870000D03*
%TO.N,unconnected-(J2-Pad7)*%
X161290000Y-102870000D03*
%TO.N,/SCK*%
X163830000Y-102870000D03*
%TO.N,/MOSI*%
X166370000Y-102870000D03*
%TO.N,/MISO*%
X168910000Y-102870000D03*
%TO.N,/RX*%
X171450000Y-102870000D03*
%TO.N,/TX*%
X173990000Y-102870000D03*
D13*
%TO.N,/USER*%
X176530000Y-102870000D03*
%TD*%
D15*
%TO.N,Net-(JP8-B)*%
X159766000Y-99695000D03*
%TO.N,Net-(JP5-B)*%
X162684400Y-98552000D03*
%TO.N,Net-(JP6-B)*%
X166624000Y-98933000D03*
%TO.N,/EF_BUFFERED*%
X155956000Y-95758000D03*
%TO.N,/RECTIFIER_OUT*%
X161163000Y-94869000D03*
%TO.N,/ENVF_OUT_SCALED*%
X166751000Y-95250000D03*
%TO.N,GND*%
X152019000Y-98806000D03*
X147828000Y-98552000D03*
%TO.N,/AMP_OUT {slash} EF_IN*%
X151638000Y-90551000D03*
X152146000Y-92456000D03*
%TO.N,Net-(JP7-B)*%
X157226000Y-97282000D03*
%TO.N,Net-(JP3-A)*%
X149509400Y-86113835D03*
%TO.N,Net-(JP4-A)*%
X148971000Y-86614000D03*
%TO.N,Net-(JP2-A)*%
X152971974Y-85915974D03*
%TO.N,Net-(JP1-B)*%
X153924000Y-87757000D03*
%TO.N,Net-(JP1-A)*%
X154432615Y-86151654D03*
%TO.N,+12V*%
X148463000Y-87916400D03*
X150622000Y-89535000D03*
X153543000Y-90551000D03*
X156718000Y-91440000D03*
X164973000Y-88138000D03*
X164211000Y-88138000D03*
%TO.N,-12V*%
X147701000Y-93631400D03*
X150495000Y-93218000D03*
X153543000Y-94488000D03*
X157226000Y-93091000D03*
X164973000Y-97663000D03*
X164211000Y-97663000D03*
%TO.N,GND*%
X149606000Y-92075000D03*
X163703000Y-91948000D03*
X163703000Y-90932000D03*
X163703000Y-90043000D03*
X163703000Y-95885000D03*
X163703000Y-94996000D03*
X163703000Y-94107000D03*
X138430000Y-96520000D03*
X139446000Y-96520000D03*
X140208000Y-88646000D03*
X137414000Y-88773000D03*
X142875000Y-88646000D03*
X143891000Y-88646000D03*
X143764000Y-85852000D03*
X142875000Y-85852000D03*
X149987000Y-88392000D03*
X149606000Y-94615000D03*
X149606000Y-90678000D03*
X154940000Y-90551000D03*
%TD*%
%TA.AperFunction,Conductor*%
%TO.N,GND*%
G36*
X147552752Y-81452902D02*
G01*
X147599245Y-81506558D01*
X147609349Y-81576832D01*
X147579855Y-81641412D01*
X147577331Y-81644238D01*
X147514285Y-81712722D01*
X147514275Y-81712734D01*
X147391141Y-81901206D01*
X147300703Y-82107386D01*
X147300702Y-82107387D01*
X147245437Y-82325624D01*
X147245436Y-82325630D01*
X147245436Y-82325632D01*
X147226844Y-82550000D01*
X147239616Y-82704138D01*
X147245437Y-82774375D01*
X147300702Y-82992612D01*
X147300703Y-82992613D01*
X147300704Y-82992616D01*
X147389781Y-83195692D01*
X147391141Y-83198793D01*
X147514275Y-83387265D01*
X147514279Y-83387270D01*
X147666762Y-83552908D01*
X147721331Y-83595381D01*
X147844424Y-83691189D01*
X148042426Y-83798342D01*
X148042427Y-83798342D01*
X148042428Y-83798343D01*
X148116597Y-83823805D01*
X148255365Y-83871444D01*
X148477431Y-83908500D01*
X148477435Y-83908500D01*
X148702565Y-83908500D01*
X148702569Y-83908500D01*
X148924635Y-83871444D01*
X149137574Y-83798342D01*
X149335576Y-83691189D01*
X149513240Y-83552906D01*
X149665722Y-83387268D01*
X149754518Y-83251354D01*
X149808520Y-83205268D01*
X149878868Y-83195692D01*
X149943225Y-83225669D01*
X149965480Y-83251353D01*
X149998607Y-83302058D01*
X150054275Y-83387265D01*
X150054279Y-83387270D01*
X150206762Y-83552908D01*
X150261331Y-83595381D01*
X150384424Y-83691189D01*
X150582426Y-83798342D01*
X150582427Y-83798342D01*
X150582428Y-83798343D01*
X150656597Y-83823805D01*
X150795365Y-83871444D01*
X151017431Y-83908500D01*
X151017435Y-83908500D01*
X151242565Y-83908500D01*
X151242569Y-83908500D01*
X151464635Y-83871444D01*
X151677574Y-83798342D01*
X151875576Y-83691189D01*
X152053240Y-83552906D01*
X152205722Y-83387268D01*
X152294518Y-83251354D01*
X152348520Y-83205268D01*
X152418868Y-83195692D01*
X152483225Y-83225669D01*
X152505480Y-83251353D01*
X152538607Y-83302058D01*
X152594275Y-83387265D01*
X152594279Y-83387270D01*
X152746762Y-83552908D01*
X152801331Y-83595381D01*
X152924424Y-83691189D01*
X153122426Y-83798342D01*
X153122427Y-83798342D01*
X153122428Y-83798343D01*
X153196597Y-83823805D01*
X153335365Y-83871444D01*
X153557431Y-83908500D01*
X153557435Y-83908500D01*
X153782565Y-83908500D01*
X153782569Y-83908500D01*
X154004635Y-83871444D01*
X154217574Y-83798342D01*
X154415576Y-83691189D01*
X154593240Y-83552906D01*
X154745722Y-83387268D01*
X154834518Y-83251354D01*
X154888520Y-83205268D01*
X154958868Y-83195692D01*
X155023225Y-83225669D01*
X155045480Y-83251353D01*
X155078607Y-83302058D01*
X155134275Y-83387265D01*
X155134279Y-83387270D01*
X155286762Y-83552908D01*
X155341331Y-83595381D01*
X155464424Y-83691189D01*
X155662426Y-83798342D01*
X155662427Y-83798342D01*
X155662428Y-83798343D01*
X155736597Y-83823805D01*
X155875365Y-83871444D01*
X156097431Y-83908500D01*
X156097435Y-83908500D01*
X156322565Y-83908500D01*
X156322569Y-83908500D01*
X156544635Y-83871444D01*
X156757574Y-83798342D01*
X156955576Y-83691189D01*
X157133240Y-83552906D01*
X157285722Y-83387268D01*
X157374518Y-83251354D01*
X157428520Y-83205268D01*
X157498868Y-83195692D01*
X157563225Y-83225669D01*
X157585480Y-83251353D01*
X157618607Y-83302058D01*
X157674275Y-83387265D01*
X157674279Y-83387270D01*
X157826762Y-83552908D01*
X157881331Y-83595381D01*
X158004424Y-83691189D01*
X158202426Y-83798342D01*
X158202427Y-83798342D01*
X158202428Y-83798343D01*
X158276597Y-83823805D01*
X158415365Y-83871444D01*
X158637431Y-83908500D01*
X158637435Y-83908500D01*
X158862565Y-83908500D01*
X158862569Y-83908500D01*
X159084635Y-83871444D01*
X159297574Y-83798342D01*
X159495576Y-83691189D01*
X159673240Y-83552906D01*
X159825722Y-83387268D01*
X159914518Y-83251354D01*
X159968520Y-83205268D01*
X160038868Y-83195692D01*
X160103225Y-83225669D01*
X160125480Y-83251353D01*
X160158607Y-83302058D01*
X160214275Y-83387265D01*
X160214279Y-83387270D01*
X160366762Y-83552908D01*
X160421331Y-83595381D01*
X160544424Y-83691189D01*
X160742426Y-83798342D01*
X160742427Y-83798342D01*
X160742428Y-83798343D01*
X160816597Y-83823805D01*
X160955365Y-83871444D01*
X161177431Y-83908500D01*
X161177435Y-83908500D01*
X161402565Y-83908500D01*
X161402569Y-83908500D01*
X161624635Y-83871444D01*
X161837574Y-83798342D01*
X162035576Y-83691189D01*
X162213240Y-83552906D01*
X162365722Y-83387268D01*
X162454518Y-83251354D01*
X162508520Y-83205268D01*
X162578868Y-83195692D01*
X162643225Y-83225669D01*
X162665480Y-83251353D01*
X162698607Y-83302058D01*
X162754275Y-83387265D01*
X162754279Y-83387270D01*
X162906762Y-83552908D01*
X162961331Y-83595381D01*
X163084424Y-83691189D01*
X163282426Y-83798342D01*
X163282427Y-83798342D01*
X163282428Y-83798343D01*
X163356597Y-83823805D01*
X163495365Y-83871444D01*
X163717431Y-83908500D01*
X163717435Y-83908500D01*
X163942565Y-83908500D01*
X163942569Y-83908500D01*
X164164635Y-83871444D01*
X164377574Y-83798342D01*
X164575576Y-83691189D01*
X164753240Y-83552906D01*
X164905722Y-83387268D01*
X164994518Y-83251354D01*
X165048520Y-83205268D01*
X165118868Y-83195692D01*
X165183225Y-83225669D01*
X165205480Y-83251353D01*
X165238607Y-83302058D01*
X165294275Y-83387265D01*
X165294279Y-83387270D01*
X165446762Y-83552908D01*
X165501331Y-83595381D01*
X165624424Y-83691189D01*
X165822426Y-83798342D01*
X165822427Y-83798342D01*
X165822428Y-83798343D01*
X165896597Y-83823805D01*
X166035365Y-83871444D01*
X166257431Y-83908500D01*
X166257435Y-83908500D01*
X166482565Y-83908500D01*
X166482569Y-83908500D01*
X166704635Y-83871444D01*
X166917574Y-83798342D01*
X167115576Y-83691189D01*
X167293240Y-83552906D01*
X167445722Y-83387268D01*
X167534518Y-83251354D01*
X167588520Y-83205268D01*
X167658868Y-83195692D01*
X167723225Y-83225669D01*
X167745480Y-83251353D01*
X167778607Y-83302058D01*
X167834275Y-83387265D01*
X167834279Y-83387270D01*
X167986762Y-83552908D01*
X168041331Y-83595381D01*
X168164424Y-83691189D01*
X168362426Y-83798342D01*
X168362427Y-83798342D01*
X168362428Y-83798343D01*
X168436597Y-83823805D01*
X168575365Y-83871444D01*
X168797431Y-83908500D01*
X168797435Y-83908500D01*
X169022565Y-83908500D01*
X169022569Y-83908500D01*
X169244635Y-83871444D01*
X169457574Y-83798342D01*
X169655576Y-83691189D01*
X169833240Y-83552906D01*
X169985722Y-83387268D01*
X170074518Y-83251354D01*
X170128520Y-83205268D01*
X170198868Y-83195692D01*
X170263225Y-83225669D01*
X170285480Y-83251353D01*
X170318607Y-83302058D01*
X170374275Y-83387265D01*
X170374279Y-83387270D01*
X170526762Y-83552908D01*
X170581331Y-83595381D01*
X170704424Y-83691189D01*
X170902426Y-83798342D01*
X170902427Y-83798342D01*
X170902428Y-83798343D01*
X170976597Y-83823805D01*
X171115365Y-83871444D01*
X171337431Y-83908500D01*
X171337435Y-83908500D01*
X171562565Y-83908500D01*
X171562569Y-83908500D01*
X171784635Y-83871444D01*
X171997574Y-83798342D01*
X172195576Y-83691189D01*
X172373240Y-83552906D01*
X172525722Y-83387268D01*
X172614518Y-83251354D01*
X172668520Y-83205268D01*
X172738868Y-83195692D01*
X172803225Y-83225669D01*
X172825480Y-83251353D01*
X172858607Y-83302058D01*
X172914275Y-83387265D01*
X172914279Y-83387270D01*
X173066762Y-83552908D01*
X173121331Y-83595381D01*
X173244424Y-83691189D01*
X173442426Y-83798342D01*
X173442427Y-83798342D01*
X173442428Y-83798343D01*
X173516597Y-83823805D01*
X173655365Y-83871444D01*
X173877431Y-83908500D01*
X173877435Y-83908500D01*
X174102565Y-83908500D01*
X174102569Y-83908500D01*
X174324635Y-83871444D01*
X174537574Y-83798342D01*
X174735576Y-83691189D01*
X174913240Y-83552906D01*
X175065722Y-83387268D01*
X175154518Y-83251354D01*
X175208520Y-83205268D01*
X175278868Y-83195692D01*
X175343225Y-83225669D01*
X175365480Y-83251353D01*
X175398607Y-83302058D01*
X175454275Y-83387265D01*
X175454279Y-83387270D01*
X175606762Y-83552908D01*
X175661331Y-83595381D01*
X175784424Y-83691189D01*
X175982426Y-83798342D01*
X175982427Y-83798342D01*
X175982428Y-83798343D01*
X176056597Y-83823805D01*
X176195365Y-83871444D01*
X176417431Y-83908500D01*
X176417435Y-83908500D01*
X176642565Y-83908500D01*
X176642569Y-83908500D01*
X176864635Y-83871444D01*
X177077574Y-83798342D01*
X177275576Y-83691189D01*
X177453240Y-83552906D01*
X177605722Y-83387268D01*
X177728860Y-83198791D01*
X177819296Y-82992616D01*
X177874564Y-82774368D01*
X177893156Y-82550000D01*
X177874564Y-82325632D01*
X177874562Y-82325624D01*
X177819297Y-82107387D01*
X177819296Y-82107386D01*
X177819296Y-82107384D01*
X177728860Y-81901209D01*
X177722140Y-81890924D01*
X177605724Y-81712734D01*
X177605714Y-81712722D01*
X177542669Y-81644238D01*
X177511247Y-81580574D01*
X177519233Y-81510028D01*
X177564092Y-81454998D01*
X177631580Y-81432957D01*
X177635369Y-81432900D01*
X180305102Y-81432900D01*
X180336194Y-81432900D01*
X180343801Y-81433130D01*
X180370172Y-81434725D01*
X180620135Y-81449845D01*
X180635217Y-81451676D01*
X180903783Y-81500892D01*
X180918529Y-81504527D01*
X181179213Y-81585759D01*
X181193426Y-81591150D01*
X181442389Y-81703199D01*
X181455854Y-81710265D01*
X181689511Y-81851516D01*
X181702024Y-81860153D01*
X181916946Y-82028534D01*
X181928334Y-82038624D01*
X182121375Y-82231665D01*
X182131465Y-82243053D01*
X182299846Y-82457975D01*
X182308485Y-82470492D01*
X182449730Y-82704138D01*
X182456800Y-82717610D01*
X182568847Y-82966569D01*
X182574243Y-82980795D01*
X182642173Y-83198791D01*
X182655468Y-83241454D01*
X182659109Y-83256228D01*
X182708321Y-83524770D01*
X182710155Y-83539874D01*
X182726870Y-83816197D01*
X182727100Y-83823805D01*
X182727101Y-101565102D01*
X182727101Y-101596195D01*
X182726871Y-101603803D01*
X182710156Y-101880126D01*
X182708322Y-101895230D01*
X182659110Y-102163772D01*
X182655469Y-102178546D01*
X182574244Y-102439205D01*
X182568848Y-102453431D01*
X182456801Y-102702389D01*
X182449730Y-102715862D01*
X182308486Y-102949508D01*
X182299843Y-102962029D01*
X182131470Y-103176942D01*
X182121380Y-103188331D01*
X181928331Y-103381380D01*
X181916942Y-103391470D01*
X181702029Y-103559843D01*
X181689508Y-103568486D01*
X181455862Y-103709730D01*
X181442389Y-103716801D01*
X181193431Y-103828848D01*
X181179205Y-103834244D01*
X180918546Y-103915469D01*
X180903772Y-103919110D01*
X180635230Y-103968322D01*
X180620126Y-103970156D01*
X180383587Y-103984463D01*
X180343802Y-103986870D01*
X180336196Y-103987100D01*
X177635369Y-103987100D01*
X177567248Y-103967098D01*
X177520755Y-103913442D01*
X177510651Y-103843168D01*
X177540145Y-103778588D01*
X177542669Y-103775762D01*
X177605714Y-103707277D01*
X177605724Y-103707265D01*
X177668549Y-103611104D01*
X177728860Y-103518791D01*
X177819296Y-103312616D01*
X177874564Y-103094368D01*
X177893156Y-102870000D01*
X177874564Y-102645632D01*
X177824131Y-102446477D01*
X177819297Y-102427387D01*
X177819296Y-102427386D01*
X177819296Y-102427384D01*
X177728860Y-102221209D01*
X177711597Y-102194786D01*
X177605724Y-102032734D01*
X177605720Y-102032729D01*
X177465235Y-101880124D01*
X177453240Y-101867094D01*
X177453239Y-101867093D01*
X177453237Y-101867091D01*
X177371382Y-101803381D01*
X177275576Y-101728811D01*
X177077574Y-101621658D01*
X177077572Y-101621657D01*
X177077571Y-101621656D01*
X176864639Y-101548557D01*
X176864630Y-101548555D01*
X176787029Y-101535606D01*
X176642569Y-101511500D01*
X176417431Y-101511500D01*
X176272971Y-101535606D01*
X176195369Y-101548555D01*
X176195360Y-101548557D01*
X175982428Y-101621656D01*
X175982426Y-101621658D01*
X175784426Y-101728810D01*
X175784424Y-101728811D01*
X175606762Y-101867091D01*
X175454279Y-102032729D01*
X175365483Y-102168643D01*
X175311479Y-102214731D01*
X175241131Y-102224306D01*
X175176774Y-102194329D01*
X175154517Y-102168643D01*
X175065720Y-102032729D01*
X174925235Y-101880124D01*
X174913240Y-101867094D01*
X174913239Y-101867093D01*
X174913237Y-101867091D01*
X174831382Y-101803381D01*
X174735576Y-101728811D01*
X174537574Y-101621658D01*
X174537572Y-101621657D01*
X174537571Y-101621656D01*
X174324639Y-101548557D01*
X174324630Y-101548555D01*
X174247029Y-101535606D01*
X174102569Y-101511500D01*
X173877431Y-101511500D01*
X173732971Y-101535606D01*
X173655369Y-101548555D01*
X173655360Y-101548557D01*
X173442428Y-101621656D01*
X173442426Y-101621658D01*
X173244426Y-101728810D01*
X173244424Y-101728811D01*
X173066762Y-101867091D01*
X172914279Y-102032729D01*
X172825483Y-102168643D01*
X172771479Y-102214731D01*
X172701131Y-102224306D01*
X172636774Y-102194329D01*
X172614517Y-102168643D01*
X172525720Y-102032729D01*
X172385235Y-101880124D01*
X172373240Y-101867094D01*
X172373239Y-101867093D01*
X172373237Y-101867091D01*
X172291382Y-101803381D01*
X172195576Y-101728811D01*
X171997574Y-101621658D01*
X171997572Y-101621657D01*
X171997571Y-101621656D01*
X171784639Y-101548557D01*
X171784630Y-101548555D01*
X171707029Y-101535606D01*
X171562569Y-101511500D01*
X171337431Y-101511500D01*
X171192971Y-101535606D01*
X171115369Y-101548555D01*
X171115360Y-101548557D01*
X170902428Y-101621656D01*
X170902426Y-101621658D01*
X170704426Y-101728810D01*
X170704424Y-101728811D01*
X170526762Y-101867091D01*
X170374279Y-102032729D01*
X170285483Y-102168643D01*
X170231479Y-102214731D01*
X170161131Y-102224306D01*
X170096774Y-102194329D01*
X170074517Y-102168643D01*
X169985720Y-102032729D01*
X169845235Y-101880124D01*
X169833240Y-101867094D01*
X169833239Y-101867093D01*
X169833237Y-101867091D01*
X169751382Y-101803381D01*
X169655576Y-101728811D01*
X169457574Y-101621658D01*
X169457572Y-101621657D01*
X169457571Y-101621656D01*
X169244639Y-101548557D01*
X169244630Y-101548555D01*
X169167029Y-101535606D01*
X169022569Y-101511500D01*
X168797431Y-101511500D01*
X168652971Y-101535606D01*
X168575369Y-101548555D01*
X168575360Y-101548557D01*
X168362428Y-101621656D01*
X168362426Y-101621658D01*
X168164426Y-101728810D01*
X168164424Y-101728811D01*
X167986762Y-101867091D01*
X167834279Y-102032729D01*
X167745483Y-102168643D01*
X167691479Y-102214731D01*
X167621131Y-102224306D01*
X167556774Y-102194329D01*
X167534517Y-102168643D01*
X167445720Y-102032729D01*
X167305235Y-101880124D01*
X167293240Y-101867094D01*
X167293239Y-101867093D01*
X167293237Y-101867091D01*
X167211382Y-101803381D01*
X167115576Y-101728811D01*
X166917574Y-101621658D01*
X166917572Y-101621657D01*
X166917571Y-101621656D01*
X166704639Y-101548557D01*
X166704630Y-101548555D01*
X166627029Y-101535606D01*
X166482569Y-101511500D01*
X166257431Y-101511500D01*
X166112971Y-101535606D01*
X166035369Y-101548555D01*
X166035360Y-101548557D01*
X165822428Y-101621656D01*
X165822426Y-101621658D01*
X165624426Y-101728810D01*
X165624424Y-101728811D01*
X165446762Y-101867091D01*
X165294279Y-102032729D01*
X165205483Y-102168643D01*
X165151479Y-102214731D01*
X165081131Y-102224306D01*
X165016774Y-102194329D01*
X164994517Y-102168643D01*
X164905720Y-102032729D01*
X164765235Y-101880124D01*
X164753240Y-101867094D01*
X164753239Y-101867093D01*
X164753237Y-101867091D01*
X164671382Y-101803381D01*
X164575576Y-101728811D01*
X164377574Y-101621658D01*
X164377572Y-101621657D01*
X164377571Y-101621656D01*
X164164639Y-101548557D01*
X164164630Y-101548555D01*
X164087029Y-101535606D01*
X163942569Y-101511500D01*
X163717431Y-101511500D01*
X163572971Y-101535606D01*
X163495369Y-101548555D01*
X163495360Y-101548557D01*
X163282428Y-101621656D01*
X163282426Y-101621658D01*
X163084426Y-101728810D01*
X163084424Y-101728811D01*
X162906762Y-101867091D01*
X162754279Y-102032729D01*
X162665483Y-102168643D01*
X162611479Y-102214731D01*
X162541131Y-102224306D01*
X162476774Y-102194329D01*
X162454517Y-102168643D01*
X162365720Y-102032729D01*
X162225235Y-101880124D01*
X162213240Y-101867094D01*
X162213239Y-101867093D01*
X162213237Y-101867091D01*
X162131382Y-101803381D01*
X162035576Y-101728811D01*
X161837574Y-101621658D01*
X161837572Y-101621657D01*
X161837571Y-101621656D01*
X161624639Y-101548557D01*
X161624630Y-101548555D01*
X161547029Y-101535606D01*
X161402569Y-101511500D01*
X161177431Y-101511500D01*
X161032971Y-101535606D01*
X160955369Y-101548555D01*
X160955360Y-101548557D01*
X160742428Y-101621656D01*
X160742426Y-101621658D01*
X160544426Y-101728810D01*
X160544424Y-101728811D01*
X160366762Y-101867091D01*
X160214279Y-102032729D01*
X160125483Y-102168643D01*
X160071479Y-102214731D01*
X160001131Y-102224306D01*
X159936774Y-102194329D01*
X159914517Y-102168643D01*
X159825720Y-102032729D01*
X159685235Y-101880124D01*
X159673240Y-101867094D01*
X159673239Y-101867093D01*
X159673237Y-101867091D01*
X159591382Y-101803381D01*
X159495576Y-101728811D01*
X159297574Y-101621658D01*
X159297572Y-101621657D01*
X159297571Y-101621656D01*
X159084639Y-101548557D01*
X159084630Y-101548555D01*
X159007029Y-101535606D01*
X158862569Y-101511500D01*
X158637431Y-101511500D01*
X158492971Y-101535606D01*
X158415369Y-101548555D01*
X158415360Y-101548557D01*
X158202428Y-101621656D01*
X158202426Y-101621658D01*
X158004426Y-101728810D01*
X158004424Y-101728811D01*
X157826762Y-101867091D01*
X157674279Y-102032729D01*
X157585483Y-102168643D01*
X157531479Y-102214731D01*
X157461131Y-102224306D01*
X157396774Y-102194329D01*
X157374517Y-102168643D01*
X157285720Y-102032729D01*
X157145235Y-101880124D01*
X157133240Y-101867094D01*
X157133239Y-101867093D01*
X157133237Y-101867091D01*
X157051382Y-101803381D01*
X156955576Y-101728811D01*
X156820582Y-101655756D01*
X156770192Y-101605744D01*
X156754840Y-101536427D01*
X156779401Y-101469814D01*
X156827302Y-101430748D01*
X156841654Y-101424056D01*
X157022038Y-101297749D01*
X157177749Y-101142038D01*
X157304056Y-100961654D01*
X157397120Y-100762076D01*
X157454115Y-100549371D01*
X157473307Y-100330000D01*
X157454115Y-100110629D01*
X157397120Y-99897924D01*
X157304056Y-99698347D01*
X157301712Y-99695000D01*
X158998675Y-99695000D01*
X159017912Y-99865744D01*
X159074664Y-100027930D01*
X159074665Y-100027933D01*
X159166079Y-100173417D01*
X159166080Y-100173419D01*
X159287580Y-100294919D01*
X159287582Y-100294920D01*
X159433066Y-100386334D01*
X159433067Y-100386334D01*
X159433070Y-100386336D01*
X159595254Y-100443087D01*
X159595253Y-100443087D01*
X159612543Y-100445034D01*
X159766000Y-100462325D01*
X159936746Y-100443087D01*
X160098930Y-100386336D01*
X160244419Y-100294919D01*
X160365919Y-100173419D01*
X160457336Y-100027930D01*
X160514087Y-99865746D01*
X160533325Y-99695000D01*
X160514087Y-99524254D01*
X160457336Y-99362070D01*
X160457334Y-99362067D01*
X160457334Y-99362066D01*
X160365920Y-99216582D01*
X160365919Y-99216580D01*
X160244419Y-99095080D01*
X160244417Y-99095079D01*
X160098933Y-99003665D01*
X160098930Y-99003664D01*
X160023066Y-98977118D01*
X159936746Y-98946913D01*
X159936744Y-98946912D01*
X159936746Y-98946912D01*
X159766000Y-98927675D01*
X159595255Y-98946912D01*
X159433069Y-99003664D01*
X159433066Y-99003665D01*
X159287582Y-99095079D01*
X159287580Y-99095080D01*
X159166080Y-99216580D01*
X159166079Y-99216582D01*
X159074665Y-99362066D01*
X159074664Y-99362069D01*
X159017912Y-99524255D01*
X158998675Y-99695000D01*
X157301712Y-99695000D01*
X157177749Y-99517962D01*
X157022038Y-99362251D01*
X157021778Y-99362069D01*
X156884482Y-99265933D01*
X156841654Y-99235944D01*
X156800130Y-99216581D01*
X156642079Y-99142881D01*
X156642073Y-99142879D01*
X156496028Y-99103746D01*
X156429371Y-99085885D01*
X156210000Y-99066693D01*
X155990629Y-99085885D01*
X155777926Y-99142879D01*
X155777920Y-99142881D01*
X155578346Y-99235944D01*
X155397965Y-99362248D01*
X155397959Y-99362253D01*
X155242253Y-99517959D01*
X155242248Y-99517965D01*
X155115944Y-99698346D01*
X155054195Y-99830768D01*
X155007278Y-99884053D01*
X154939000Y-99903514D01*
X154871040Y-99882972D01*
X154825805Y-99830768D01*
X154764978Y-99700325D01*
X154764056Y-99698347D01*
X154637749Y-99517962D01*
X154482038Y-99362251D01*
X154481778Y-99362069D01*
X154344482Y-99265933D01*
X154301654Y-99235944D01*
X154260130Y-99216581D01*
X154102079Y-99142881D01*
X154102073Y-99142879D01*
X153956028Y-99103746D01*
X153889371Y-99085885D01*
X153670000Y-99066693D01*
X153450629Y-99085885D01*
X153237926Y-99142879D01*
X153237920Y-99142881D01*
X153038346Y-99235944D01*
X152857965Y-99362248D01*
X152857959Y-99362253D01*
X152702253Y-99517959D01*
X152702248Y-99517965D01*
X152575944Y-99698346D01*
X152514195Y-99830768D01*
X152467278Y-99884053D01*
X152399000Y-99903514D01*
X152331040Y-99882972D01*
X152285805Y-99830768D01*
X152224978Y-99700325D01*
X152224056Y-99698347D01*
X152097749Y-99517962D01*
X151942038Y-99362251D01*
X151941778Y-99362069D01*
X151804482Y-99265933D01*
X151761654Y-99235944D01*
X151720130Y-99216581D01*
X151562079Y-99142881D01*
X151562073Y-99142879D01*
X151416028Y-99103746D01*
X151349371Y-99085885D01*
X151130000Y-99066693D01*
X150910629Y-99085885D01*
X150697926Y-99142879D01*
X150697920Y-99142881D01*
X150498346Y-99235944D01*
X150317965Y-99362248D01*
X150317959Y-99362253D01*
X150162253Y-99517959D01*
X150162248Y-99517965D01*
X150035944Y-99698346D01*
X149974195Y-99830768D01*
X149927278Y-99884053D01*
X149859000Y-99903514D01*
X149791040Y-99882972D01*
X149745805Y-99830768D01*
X149684978Y-99700325D01*
X149684056Y-99698347D01*
X149557749Y-99517962D01*
X149402038Y-99362251D01*
X149401778Y-99362069D01*
X149264482Y-99265933D01*
X149221654Y-99235944D01*
X149180130Y-99216581D01*
X149022079Y-99142881D01*
X149022073Y-99142879D01*
X148876028Y-99103746D01*
X148809371Y-99085885D01*
X148590000Y-99066693D01*
X148370629Y-99085885D01*
X148157926Y-99142879D01*
X148157920Y-99142881D01*
X147958346Y-99235944D01*
X147777965Y-99362248D01*
X147777959Y-99362253D01*
X147622253Y-99517959D01*
X147622248Y-99517965D01*
X147495944Y-99698346D01*
X147402881Y-99897920D01*
X147402879Y-99897926D01*
X147345885Y-100110629D01*
X147326693Y-100330000D01*
X147345885Y-100549370D01*
X147402879Y-100762073D01*
X147402881Y-100762079D01*
X147409851Y-100777026D01*
X147495944Y-100961654D01*
X147622251Y-101142038D01*
X147622254Y-101142042D01*
X147777957Y-101297745D01*
X147777961Y-101297748D01*
X147777962Y-101297749D01*
X147958346Y-101424056D01*
X147970484Y-101429716D01*
X147972697Y-101430748D01*
X148025982Y-101477665D01*
X148045443Y-101545943D01*
X148024901Y-101613903D01*
X147979417Y-101655756D01*
X147870899Y-101714483D01*
X147844422Y-101728812D01*
X147666762Y-101867091D01*
X147514279Y-102032729D01*
X147425183Y-102169101D01*
X147371179Y-102215189D01*
X147300831Y-102224764D01*
X147236474Y-102194786D01*
X147214217Y-102169100D01*
X147125327Y-102033044D01*
X146972902Y-101867465D01*
X146795301Y-101729232D01*
X146795300Y-101729231D01*
X146597371Y-101622117D01*
X146597369Y-101622116D01*
X146384512Y-101549043D01*
X146384501Y-101549040D01*
X146304000Y-101535606D01*
X146304000Y-102439297D01*
X146242993Y-102404075D01*
X146115826Y-102370000D01*
X145984174Y-102370000D01*
X145857007Y-102404075D01*
X145796000Y-102439297D01*
X145796000Y-101535607D01*
X145795999Y-101535606D01*
X145715498Y-101549040D01*
X145715487Y-101549043D01*
X145502630Y-101622116D01*
X145502628Y-101622117D01*
X145304699Y-101729231D01*
X145304698Y-101729232D01*
X145127097Y-101867465D01*
X144974670Y-102033045D01*
X144885780Y-102169101D01*
X144831776Y-102215189D01*
X144761428Y-102224764D01*
X144697071Y-102194786D01*
X144674816Y-102169101D01*
X144598172Y-102051788D01*
X144585724Y-102032734D01*
X144585720Y-102032729D01*
X144445235Y-101880124D01*
X144433240Y-101867094D01*
X144433239Y-101867093D01*
X144433237Y-101867091D01*
X144351382Y-101803381D01*
X144255576Y-101728811D01*
X144057574Y-101621658D01*
X144057572Y-101621657D01*
X144057571Y-101621656D01*
X143844639Y-101548557D01*
X143844630Y-101548555D01*
X143767029Y-101535606D01*
X143622569Y-101511500D01*
X143397431Y-101511500D01*
X143252971Y-101535606D01*
X143175369Y-101548555D01*
X143175360Y-101548557D01*
X142962428Y-101621656D01*
X142962426Y-101621658D01*
X142764426Y-101728810D01*
X142764424Y-101728811D01*
X142586762Y-101867091D01*
X142434279Y-102032729D01*
X142345483Y-102168643D01*
X142291479Y-102214731D01*
X142221131Y-102224306D01*
X142156774Y-102194329D01*
X142134517Y-102168643D01*
X142045720Y-102032729D01*
X141905235Y-101880124D01*
X141893240Y-101867094D01*
X141893239Y-101867093D01*
X141893237Y-101867091D01*
X141811382Y-101803381D01*
X141715576Y-101728811D01*
X141517574Y-101621658D01*
X141517572Y-101621657D01*
X141517571Y-101621656D01*
X141304639Y-101548557D01*
X141304630Y-101548555D01*
X141227029Y-101535606D01*
X141082569Y-101511500D01*
X140857431Y-101511500D01*
X140712971Y-101535606D01*
X140635369Y-101548555D01*
X140635360Y-101548557D01*
X140422428Y-101621656D01*
X140422426Y-101621658D01*
X140224426Y-101728810D01*
X140224424Y-101728811D01*
X140046762Y-101867091D01*
X139894279Y-102032729D01*
X139805483Y-102168643D01*
X139751479Y-102214731D01*
X139681131Y-102224306D01*
X139616774Y-102194329D01*
X139594517Y-102168643D01*
X139505720Y-102032729D01*
X139365235Y-101880124D01*
X139353240Y-101867094D01*
X139353239Y-101867093D01*
X139353237Y-101867091D01*
X139271382Y-101803381D01*
X139175576Y-101728811D01*
X138977574Y-101621658D01*
X138977572Y-101621657D01*
X138977571Y-101621656D01*
X138764639Y-101548557D01*
X138764630Y-101548555D01*
X138687029Y-101535606D01*
X138542569Y-101511500D01*
X138317431Y-101511500D01*
X138172971Y-101535606D01*
X138095369Y-101548555D01*
X138095360Y-101548557D01*
X137882428Y-101621656D01*
X137882426Y-101621658D01*
X137684426Y-101728810D01*
X137684424Y-101728811D01*
X137506762Y-101867091D01*
X137354279Y-102032729D01*
X137354275Y-102032734D01*
X137231141Y-102221206D01*
X137140703Y-102427386D01*
X137140702Y-102427387D01*
X137085437Y-102645624D01*
X137085436Y-102645630D01*
X137085436Y-102645632D01*
X137066844Y-102870000D01*
X137083095Y-103066121D01*
X137085437Y-103094375D01*
X137140702Y-103312612D01*
X137140703Y-103312613D01*
X137140704Y-103312616D01*
X137177820Y-103397232D01*
X137231141Y-103518793D01*
X137354275Y-103707265D01*
X137354285Y-103707277D01*
X137417331Y-103775762D01*
X137448753Y-103839426D01*
X137440767Y-103909972D01*
X137395908Y-103965002D01*
X137328420Y-103987043D01*
X137324631Y-103987100D01*
X134623806Y-103987100D01*
X134616198Y-103986870D01*
X134339874Y-103970155D01*
X134324770Y-103968321D01*
X134056228Y-103919109D01*
X134041458Y-103915469D01*
X133780795Y-103834243D01*
X133766569Y-103828847D01*
X133517610Y-103716800D01*
X133504138Y-103709730D01*
X133500065Y-103707268D01*
X133270492Y-103568485D01*
X133257975Y-103559846D01*
X133239879Y-103545669D01*
X133043053Y-103391465D01*
X133031665Y-103381375D01*
X132838624Y-103188334D01*
X132828534Y-103176946D01*
X132741708Y-103066121D01*
X132660150Y-102962020D01*
X132651514Y-102949508D01*
X132510265Y-102715854D01*
X132503199Y-102702389D01*
X132477651Y-102645624D01*
X132391150Y-102453426D01*
X132385759Y-102439213D01*
X132304527Y-102178529D01*
X132300892Y-102163783D01*
X132251676Y-101895217D01*
X132249845Y-101880135D01*
X132233741Y-101613903D01*
X132233130Y-101603801D01*
X132232900Y-101596194D01*
X132232900Y-97790000D01*
X148596693Y-97790000D01*
X148615885Y-98009371D01*
X148646330Y-98122991D01*
X148672879Y-98222073D01*
X148672881Y-98222079D01*
X148765942Y-98421650D01*
X148765944Y-98421654D01*
X148789001Y-98454582D01*
X148892251Y-98602038D01*
X148892254Y-98602042D01*
X149047957Y-98757745D01*
X149047961Y-98757748D01*
X149047962Y-98757749D01*
X149228346Y-98884056D01*
X149427924Y-98977120D01*
X149640629Y-99034115D01*
X149860000Y-99053307D01*
X150079371Y-99034115D01*
X150292076Y-98977120D01*
X150491654Y-98884056D01*
X150672038Y-98757749D01*
X150827749Y-98602038D01*
X150954056Y-98421654D01*
X151047120Y-98222076D01*
X151104115Y-98009371D01*
X151123307Y-97790000D01*
X153676693Y-97790000D01*
X153695885Y-98009371D01*
X153726330Y-98122991D01*
X153752879Y-98222073D01*
X153752881Y-98222079D01*
X153845942Y-98421650D01*
X153845944Y-98421654D01*
X153869001Y-98454582D01*
X153972251Y-98602038D01*
X153972254Y-98602042D01*
X154127957Y-98757745D01*
X154127961Y-98757748D01*
X154127962Y-98757749D01*
X154308346Y-98884056D01*
X154507924Y-98977120D01*
X154720629Y-99034115D01*
X154940000Y-99053307D01*
X155159371Y-99034115D01*
X155372076Y-98977120D01*
X155571654Y-98884056D01*
X155752038Y-98757749D01*
X155907749Y-98602038D01*
X155942786Y-98552000D01*
X161917075Y-98552000D01*
X161936312Y-98722744D01*
X161993064Y-98884930D01*
X161993065Y-98884933D01*
X162084479Y-99030417D01*
X162084480Y-99030419D01*
X162205980Y-99151919D01*
X162205982Y-99151920D01*
X162351466Y-99243334D01*
X162351467Y-99243334D01*
X162351470Y-99243336D01*
X162513654Y-99300087D01*
X162513653Y-99300087D01*
X162530943Y-99302034D01*
X162684400Y-99319325D01*
X162855146Y-99300087D01*
X163017330Y-99243336D01*
X163162819Y-99151919D01*
X163284319Y-99030419D01*
X163345532Y-98933000D01*
X165856675Y-98933000D01*
X165875912Y-99103744D01*
X165932664Y-99265930D01*
X165932665Y-99265933D01*
X166024079Y-99411417D01*
X166024080Y-99411419D01*
X166145580Y-99532919D01*
X166145582Y-99532920D01*
X166291066Y-99624334D01*
X166291067Y-99624334D01*
X166291070Y-99624336D01*
X166453254Y-99681087D01*
X166453253Y-99681087D01*
X166470543Y-99683034D01*
X166624000Y-99700325D01*
X166794746Y-99681087D01*
X166956930Y-99624336D01*
X167102419Y-99532919D01*
X167223919Y-99411419D01*
X167315336Y-99265930D01*
X167372087Y-99103746D01*
X167391325Y-98933000D01*
X167372087Y-98762254D01*
X167315336Y-98600070D01*
X167315334Y-98600067D01*
X167315334Y-98600066D01*
X167223920Y-98454582D01*
X167223919Y-98454580D01*
X167102419Y-98333080D01*
X167102417Y-98333079D01*
X166956933Y-98241665D01*
X166956930Y-98241664D01*
X166794746Y-98184913D01*
X166794744Y-98184912D01*
X166794746Y-98184912D01*
X166624000Y-98165675D01*
X166453255Y-98184912D01*
X166291069Y-98241664D01*
X166291066Y-98241665D01*
X166145582Y-98333079D01*
X166145580Y-98333080D01*
X166024080Y-98454580D01*
X166024079Y-98454582D01*
X165932665Y-98600066D01*
X165932664Y-98600069D01*
X165875912Y-98762255D01*
X165856675Y-98933000D01*
X163345532Y-98933000D01*
X163375736Y-98884930D01*
X163432487Y-98722746D01*
X163451725Y-98552000D01*
X163432487Y-98381254D01*
X163387989Y-98254089D01*
X163384370Y-98183186D01*
X163418851Y-98122991D01*
X163412746Y-98126165D01*
X163342048Y-98119657D01*
X163289428Y-98078564D01*
X163288735Y-98079117D01*
X163286421Y-98076216D01*
X163286092Y-98075959D01*
X163285428Y-98074971D01*
X163284319Y-98073580D01*
X163162819Y-97952080D01*
X163162817Y-97952079D01*
X163017333Y-97860665D01*
X163017330Y-97860664D01*
X162940403Y-97833746D01*
X162855146Y-97803913D01*
X162855144Y-97803912D01*
X162855146Y-97803912D01*
X162684400Y-97784675D01*
X162513655Y-97803912D01*
X162351469Y-97860664D01*
X162351466Y-97860665D01*
X162205982Y-97952079D01*
X162205980Y-97952080D01*
X162084480Y-98073580D01*
X162084479Y-98073582D01*
X161993065Y-98219066D01*
X161993064Y-98219069D01*
X161936312Y-98381255D01*
X161917075Y-98552000D01*
X155942786Y-98552000D01*
X156034056Y-98421654D01*
X156127120Y-98222076D01*
X156184115Y-98009371D01*
X156203307Y-97790000D01*
X156184115Y-97570629D01*
X156127120Y-97357924D01*
X156091716Y-97282000D01*
X156458675Y-97282000D01*
X156477912Y-97452744D01*
X156534664Y-97614930D01*
X156534665Y-97614933D01*
X156626079Y-97760417D01*
X156626080Y-97760419D01*
X156747580Y-97881919D01*
X156747582Y-97881920D01*
X156893066Y-97973334D01*
X156893067Y-97973334D01*
X156893070Y-97973336D01*
X157055254Y-98030087D01*
X157055253Y-98030087D01*
X157070573Y-98031813D01*
X157226000Y-98049325D01*
X157396746Y-98030087D01*
X157558930Y-97973336D01*
X157704419Y-97881919D01*
X157825919Y-97760419D01*
X157887132Y-97663000D01*
X163443675Y-97663000D01*
X163462912Y-97833744D01*
X163507409Y-97960909D01*
X163511028Y-98031813D01*
X163476547Y-98092008D01*
X163482653Y-98088834D01*
X163553350Y-98095342D01*
X163605972Y-98136435D01*
X163606665Y-98135883D01*
X163608977Y-98138782D01*
X163609306Y-98139039D01*
X163609968Y-98140025D01*
X163611080Y-98141419D01*
X163732580Y-98262919D01*
X163732582Y-98262920D01*
X163878066Y-98354334D01*
X163878067Y-98354334D01*
X163878070Y-98354336D01*
X164040254Y-98411087D01*
X164040253Y-98411087D01*
X164057543Y-98413034D01*
X164211000Y-98430325D01*
X164381746Y-98411087D01*
X164543930Y-98354336D01*
X164543932Y-98354334D01*
X164550384Y-98352077D01*
X164621289Y-98348457D01*
X164633616Y-98352077D01*
X164640067Y-98354334D01*
X164640070Y-98354336D01*
X164802254Y-98411087D01*
X164973000Y-98430325D01*
X165143746Y-98411087D01*
X165305930Y-98354336D01*
X165451419Y-98262919D01*
X165572919Y-98141419D01*
X165664336Y-97995930D01*
X165721087Y-97833746D01*
X165740325Y-97663000D01*
X165721087Y-97492254D01*
X165664336Y-97330070D01*
X165664334Y-97330067D01*
X165664334Y-97330066D01*
X165572920Y-97184582D01*
X165572919Y-97184580D01*
X165451419Y-97063080D01*
X165451417Y-97063079D01*
X165305933Y-96971665D01*
X165305930Y-96971664D01*
X165241360Y-96949070D01*
X165143746Y-96914913D01*
X165143744Y-96914912D01*
X165143746Y-96914912D01*
X164973000Y-96895675D01*
X164802255Y-96914912D01*
X164633615Y-96973922D01*
X164562711Y-96977541D01*
X164550385Y-96973922D01*
X164381743Y-96914912D01*
X164381746Y-96914912D01*
X164211000Y-96895675D01*
X164040255Y-96914912D01*
X163878069Y-96971664D01*
X163878066Y-96971665D01*
X163732582Y-97063079D01*
X163732580Y-97063080D01*
X163611080Y-97184580D01*
X163611079Y-97184582D01*
X163519665Y-97330066D01*
X163519664Y-97330069D01*
X163462912Y-97492255D01*
X163443675Y-97663000D01*
X157887132Y-97663000D01*
X157917336Y-97614930D01*
X157974087Y-97452746D01*
X157993325Y-97282000D01*
X157974087Y-97111254D01*
X157917336Y-96949070D01*
X157917334Y-96949067D01*
X157917334Y-96949066D01*
X157825920Y-96803582D01*
X157825919Y-96803580D01*
X157704419Y-96682080D01*
X157704417Y-96682079D01*
X157558933Y-96590665D01*
X157558930Y-96590664D01*
X157396746Y-96533913D01*
X157396744Y-96533912D01*
X157396746Y-96533912D01*
X157226000Y-96514675D01*
X157055255Y-96533912D01*
X156893069Y-96590664D01*
X156893066Y-96590665D01*
X156747582Y-96682079D01*
X156747580Y-96682080D01*
X156626080Y-96803580D01*
X156626079Y-96803582D01*
X156534665Y-96949066D01*
X156534664Y-96949069D01*
X156477912Y-97111255D01*
X156458675Y-97282000D01*
X156091716Y-97282000D01*
X156034056Y-97158347D01*
X155907749Y-96977962D01*
X155752038Y-96822251D01*
X155571654Y-96695944D01*
X155571650Y-96695942D01*
X155567147Y-96692789D01*
X155567826Y-96691818D01*
X155529878Y-96652015D01*
X155482341Y-96652500D01*
X155463355Y-96645443D01*
X155372083Y-96602883D01*
X155372079Y-96602881D01*
X155372076Y-96602880D01*
X155372074Y-96602879D01*
X155372073Y-96602879D01*
X155282178Y-96578791D01*
X155159371Y-96545885D01*
X154940000Y-96526693D01*
X154720629Y-96545885D01*
X154507926Y-96602879D01*
X154507920Y-96602881D01*
X154308346Y-96695944D01*
X154127965Y-96822248D01*
X154127959Y-96822253D01*
X153972253Y-96977959D01*
X153972248Y-96977965D01*
X153845944Y-97158346D01*
X153752881Y-97357920D01*
X153752879Y-97357926D01*
X153700959Y-97551692D01*
X153695885Y-97570629D01*
X153676693Y-97790000D01*
X151123307Y-97790000D01*
X151104115Y-97570629D01*
X151047120Y-97357924D01*
X150954056Y-97158347D01*
X150827749Y-96977962D01*
X150672038Y-96822251D01*
X150491654Y-96695944D01*
X150482806Y-96691818D01*
X150292079Y-96602881D01*
X150292073Y-96602879D01*
X150202178Y-96578791D01*
X150079371Y-96545885D01*
X149860000Y-96526693D01*
X149640629Y-96545885D01*
X149427926Y-96602879D01*
X149427920Y-96602881D01*
X149228346Y-96695944D01*
X149047965Y-96822248D01*
X149047959Y-96822253D01*
X148892253Y-96977959D01*
X148892248Y-96977965D01*
X148765944Y-97158346D01*
X148672881Y-97357920D01*
X148672879Y-97357926D01*
X148620959Y-97551692D01*
X148615885Y-97570629D01*
X148596693Y-97790000D01*
X132232900Y-97790000D01*
X132232900Y-95758000D01*
X155188675Y-95758000D01*
X155207912Y-95928744D01*
X155264664Y-96090930D01*
X155264665Y-96090933D01*
X155356079Y-96236417D01*
X155356080Y-96236419D01*
X155477580Y-96357919D01*
X155477582Y-96357920D01*
X155583640Y-96424561D01*
X155620826Y-96466601D01*
X155664606Y-96464518D01*
X155676512Y-96468036D01*
X155785254Y-96506087D01*
X155785253Y-96506087D01*
X155802543Y-96508034D01*
X155956000Y-96525325D01*
X156126746Y-96506087D01*
X156288930Y-96449336D01*
X156434419Y-96357919D01*
X156555919Y-96236419D01*
X156647336Y-96090930D01*
X156704087Y-95928746D01*
X156723325Y-95758000D01*
X156704087Y-95587254D01*
X156647336Y-95425070D01*
X156647334Y-95425067D01*
X156647334Y-95425066D01*
X156555920Y-95279582D01*
X156555919Y-95279580D01*
X156434419Y-95158080D01*
X156434417Y-95158079D01*
X156288933Y-95066665D01*
X156288930Y-95066664D01*
X156212003Y-95039746D01*
X156126746Y-95009913D01*
X156126744Y-95009912D01*
X156126746Y-95009912D01*
X155956000Y-94990675D01*
X155785255Y-95009912D01*
X155623069Y-95066664D01*
X155623066Y-95066665D01*
X155477582Y-95158079D01*
X155477580Y-95158080D01*
X155356080Y-95279580D01*
X155356079Y-95279582D01*
X155264665Y-95425066D01*
X155264664Y-95425069D01*
X155207912Y-95587255D01*
X155188675Y-95758000D01*
X132232900Y-95758000D01*
X132232900Y-94488000D01*
X152775675Y-94488000D01*
X152794912Y-94658744D01*
X152851664Y-94820930D01*
X152851665Y-94820933D01*
X152943079Y-94966417D01*
X152943080Y-94966419D01*
X153064580Y-95087919D01*
X153064582Y-95087920D01*
X153210066Y-95179334D01*
X153210067Y-95179334D01*
X153210070Y-95179336D01*
X153372254Y-95236087D01*
X153372253Y-95236087D01*
X153389543Y-95238034D01*
X153543000Y-95255325D01*
X153713746Y-95236087D01*
X153875930Y-95179336D01*
X154021419Y-95087919D01*
X154142919Y-94966419D01*
X154204132Y-94869000D01*
X160395675Y-94869000D01*
X160414912Y-95039744D01*
X160471664Y-95201930D01*
X160471665Y-95201933D01*
X160563079Y-95347417D01*
X160563080Y-95347419D01*
X160684580Y-95468919D01*
X160684582Y-95468920D01*
X160830066Y-95560334D01*
X160830067Y-95560334D01*
X160830070Y-95560336D01*
X160992254Y-95617087D01*
X160992253Y-95617087D01*
X161009543Y-95619034D01*
X161163000Y-95636325D01*
X161333746Y-95617087D01*
X161495930Y-95560336D01*
X161641419Y-95468919D01*
X161762919Y-95347419D01*
X161824132Y-95250000D01*
X165983675Y-95250000D01*
X166002912Y-95420744D01*
X166059664Y-95582930D01*
X166059665Y-95582933D01*
X166151079Y-95728417D01*
X166151080Y-95728419D01*
X166272580Y-95849919D01*
X166272582Y-95849920D01*
X166418066Y-95941334D01*
X166418067Y-95941334D01*
X166418070Y-95941336D01*
X166580254Y-95998087D01*
X166580253Y-95998087D01*
X166597543Y-96000034D01*
X166751000Y-96017325D01*
X166921746Y-95998087D01*
X167083930Y-95941336D01*
X167229419Y-95849919D01*
X167350919Y-95728419D01*
X167442336Y-95582930D01*
X167499087Y-95420746D01*
X167518325Y-95250000D01*
X167499087Y-95079254D01*
X167442336Y-94917070D01*
X167442334Y-94917067D01*
X167442334Y-94917066D01*
X167350920Y-94771582D01*
X167350919Y-94771580D01*
X167229419Y-94650080D01*
X167229417Y-94650079D01*
X167083933Y-94558665D01*
X167083930Y-94558664D01*
X167019360Y-94536070D01*
X166921746Y-94501913D01*
X166921744Y-94501912D01*
X166921746Y-94501912D01*
X166751000Y-94482675D01*
X166580255Y-94501912D01*
X166418069Y-94558664D01*
X166418066Y-94558665D01*
X166272582Y-94650079D01*
X166272580Y-94650080D01*
X166151080Y-94771580D01*
X166151079Y-94771582D01*
X166059665Y-94917066D01*
X166059664Y-94917069D01*
X166002912Y-95079255D01*
X165983675Y-95250000D01*
X161824132Y-95250000D01*
X161854336Y-95201930D01*
X161911087Y-95039746D01*
X161930325Y-94869000D01*
X161911087Y-94698254D01*
X161854336Y-94536070D01*
X161854334Y-94536067D01*
X161854334Y-94536066D01*
X161762920Y-94390582D01*
X161762919Y-94390580D01*
X161641419Y-94269080D01*
X161641417Y-94269079D01*
X161495933Y-94177665D01*
X161495930Y-94177664D01*
X161431360Y-94155070D01*
X161333746Y-94120913D01*
X161333744Y-94120912D01*
X161333746Y-94120912D01*
X161163000Y-94101675D01*
X160992255Y-94120912D01*
X160830069Y-94177664D01*
X160830066Y-94177665D01*
X160684582Y-94269079D01*
X160684580Y-94269080D01*
X160563080Y-94390580D01*
X160563079Y-94390582D01*
X160471665Y-94536066D01*
X160471664Y-94536069D01*
X160414912Y-94698255D01*
X160395675Y-94869000D01*
X154204132Y-94869000D01*
X154234336Y-94820930D01*
X154291087Y-94658746D01*
X154310325Y-94488000D01*
X154291087Y-94317254D01*
X154234336Y-94155070D01*
X154234334Y-94155067D01*
X154234334Y-94155066D01*
X154142920Y-94009582D01*
X154142919Y-94009580D01*
X154113339Y-93980000D01*
X168269710Y-93980000D01*
X168288835Y-94210812D01*
X168288837Y-94210821D01*
X168345688Y-94435319D01*
X168345691Y-94435326D01*
X168438722Y-94647415D01*
X168565395Y-94841304D01*
X168722248Y-95011692D01*
X168722253Y-95011696D01*
X168722255Y-95011698D01*
X168820184Y-95087919D01*
X168900675Y-95150568D01*
X168942146Y-95208194D01*
X168945879Y-95279092D01*
X168910690Y-95340754D01*
X168900675Y-95349432D01*
X168722248Y-95488307D01*
X168565395Y-95658695D01*
X168438722Y-95852584D01*
X168345691Y-96064673D01*
X168345688Y-96064680D01*
X168288837Y-96289178D01*
X168288835Y-96289187D01*
X168269710Y-96520000D01*
X168288835Y-96750812D01*
X168288837Y-96750821D01*
X168345688Y-96975319D01*
X168345691Y-96975326D01*
X168438722Y-97187415D01*
X168565395Y-97381304D01*
X168722248Y-97551692D01*
X168722253Y-97551696D01*
X168722255Y-97551698D01*
X168865256Y-97663000D01*
X168905019Y-97693949D01*
X168905020Y-97693950D01*
X169108707Y-97804180D01*
X169108709Y-97804181D01*
X169194824Y-97833744D01*
X169327758Y-97879380D01*
X169556200Y-97917500D01*
X169556204Y-97917500D01*
X169787796Y-97917500D01*
X169787800Y-97917500D01*
X170016242Y-97879380D01*
X170235293Y-97804180D01*
X170438980Y-97693950D01*
X170621745Y-97551698D01*
X170676467Y-97492255D01*
X170778604Y-97381304D01*
X170905277Y-97187416D01*
X170998310Y-96975323D01*
X171041801Y-96803581D01*
X171055162Y-96750821D01*
X171055164Y-96750812D01*
X171055165Y-96750809D01*
X171074290Y-96520000D01*
X171055165Y-96289191D01*
X171041801Y-96236419D01*
X170998311Y-96064680D01*
X170998308Y-96064673D01*
X170944206Y-95941334D01*
X170905277Y-95852584D01*
X170903536Y-95849919D01*
X170778604Y-95658695D01*
X170621751Y-95488307D01*
X170596843Y-95468920D01*
X170443322Y-95349429D01*
X170401853Y-95291807D01*
X170398119Y-95220908D01*
X170433309Y-95159246D01*
X170443313Y-95150577D01*
X170621745Y-95011698D01*
X170623389Y-95009913D01*
X170778604Y-94841304D01*
X170791915Y-94820930D01*
X170905277Y-94647416D01*
X170998310Y-94435323D01*
X171055165Y-94210809D01*
X171074290Y-93980000D01*
X171055165Y-93749191D01*
X171052815Y-93739913D01*
X170998311Y-93524680D01*
X170998308Y-93524673D01*
X170905277Y-93312584D01*
X170778604Y-93118695D01*
X170621750Y-92948306D01*
X170621745Y-92948301D01*
X170442917Y-92809113D01*
X170401446Y-92751488D01*
X170397713Y-92680590D01*
X170432903Y-92618928D01*
X170442919Y-92610249D01*
X170465480Y-92592689D01*
X169803481Y-91930690D01*
X169868081Y-91913381D01*
X169983920Y-91846502D01*
X170078502Y-91751920D01*
X170145381Y-91636081D01*
X170162690Y-91571481D01*
X170823253Y-92232044D01*
X170823254Y-92232044D01*
X170904837Y-92107173D01*
X170997833Y-91895163D01*
X170997836Y-91895156D01*
X171054667Y-91670734D01*
X171073787Y-91440000D01*
X171054667Y-91209265D01*
X170997836Y-90984843D01*
X170997833Y-90984836D01*
X170904837Y-90772826D01*
X170823254Y-90647954D01*
X170162690Y-91308518D01*
X170145381Y-91243919D01*
X170078502Y-91128080D01*
X169983920Y-91033498D01*
X169868081Y-90966619D01*
X169803480Y-90949309D01*
X170477947Y-90274841D01*
X170483287Y-90251357D01*
X170533958Y-90201627D01*
X170534785Y-90201189D01*
X170643634Y-90144332D01*
X170793848Y-90021848D01*
X170916332Y-89871634D01*
X171006071Y-89699838D01*
X171059390Y-89513495D01*
X171069500Y-89399782D01*
X171069500Y-88400218D01*
X171059390Y-88286505D01*
X171006071Y-88100162D01*
X170936646Y-87967255D01*
X170916333Y-87928367D01*
X170897245Y-87904958D01*
X170793848Y-87778152D01*
X170690449Y-87693841D01*
X170643632Y-87655666D01*
X170471840Y-87565930D01*
X170471839Y-87565929D01*
X170471838Y-87565929D01*
X170285495Y-87512610D01*
X170171782Y-87502500D01*
X169172218Y-87502500D01*
X169058505Y-87512610D01*
X168872159Y-87565930D01*
X168700367Y-87655666D01*
X168550152Y-87778152D01*
X168427666Y-87928367D01*
X168337930Y-88100159D01*
X168337929Y-88100161D01*
X168337929Y-88100162D01*
X168284610Y-88286505D01*
X168274500Y-88400218D01*
X168274500Y-89399782D01*
X168284610Y-89513495D01*
X168328961Y-89668497D01*
X168337930Y-89699840D01*
X168427666Y-89871632D01*
X168427668Y-89871634D01*
X168550152Y-90021848D01*
X168700366Y-90144332D01*
X168700367Y-90144332D01*
X168700369Y-90144334D01*
X168809031Y-90201095D01*
X168860150Y-90250363D01*
X168865917Y-90274708D01*
X169540518Y-90949309D01*
X169475919Y-90966619D01*
X169360080Y-91033498D01*
X169265498Y-91128080D01*
X169198619Y-91243919D01*
X169181309Y-91308518D01*
X168520744Y-90647953D01*
X168520743Y-90647954D01*
X168439168Y-90772814D01*
X168439161Y-90772828D01*
X168346166Y-90984836D01*
X168346163Y-90984843D01*
X168289332Y-91209265D01*
X168270212Y-91440000D01*
X168289332Y-91670734D01*
X168346163Y-91895156D01*
X168346166Y-91895163D01*
X168439159Y-92107167D01*
X168439166Y-92107179D01*
X168520744Y-92232044D01*
X169181309Y-91571479D01*
X169198619Y-91636081D01*
X169265498Y-91751920D01*
X169360080Y-91846502D01*
X169475919Y-91913381D01*
X169540519Y-91930690D01*
X168878519Y-92592689D01*
X168901081Y-92610250D01*
X168942554Y-92667875D01*
X168946288Y-92738773D01*
X168911099Y-92800435D01*
X168901090Y-92809108D01*
X168803497Y-92885069D01*
X168722248Y-92948307D01*
X168565395Y-93118695D01*
X168438722Y-93312584D01*
X168345691Y-93524673D01*
X168345688Y-93524680D01*
X168288837Y-93749178D01*
X168288835Y-93749187D01*
X168269710Y-93980000D01*
X154113339Y-93980000D01*
X154021419Y-93888080D01*
X154021417Y-93888079D01*
X153875933Y-93796665D01*
X153875930Y-93796664D01*
X153784008Y-93764499D01*
X153713746Y-93739913D01*
X153713744Y-93739912D01*
X153713746Y-93739912D01*
X153543000Y-93720675D01*
X153372255Y-93739912D01*
X153210069Y-93796664D01*
X153210066Y-93796665D01*
X153064582Y-93888079D01*
X153064580Y-93888080D01*
X152943080Y-94009580D01*
X152943079Y-94009582D01*
X152851665Y-94155066D01*
X152851664Y-94155069D01*
X152794912Y-94317255D01*
X152775675Y-94488000D01*
X132232900Y-94488000D01*
X132232900Y-92606138D01*
X136105500Y-92606138D01*
X136105500Y-92813861D01*
X136134034Y-92957307D01*
X136146024Y-93017586D01*
X136225514Y-93209493D01*
X136284967Y-93298470D01*
X136340916Y-93382203D01*
X136340921Y-93382209D01*
X136487790Y-93529078D01*
X136487796Y-93529083D01*
X136660507Y-93644486D01*
X136852414Y-93723976D01*
X137056141Y-93764500D01*
X137056142Y-93764500D01*
X137263858Y-93764500D01*
X137263859Y-93764500D01*
X137467586Y-93723976D01*
X137659493Y-93644486D01*
X137832204Y-93529083D01*
X137979083Y-93382204D01*
X138094486Y-93209493D01*
X138173976Y-93017586D01*
X138214500Y-92813859D01*
X138214500Y-92606141D01*
X138214499Y-92606138D01*
X142105500Y-92606138D01*
X142105500Y-92813861D01*
X142134034Y-92957307D01*
X142146024Y-93017586D01*
X142225514Y-93209493D01*
X142284967Y-93298470D01*
X142340916Y-93382203D01*
X142340921Y-93382209D01*
X142487790Y-93529078D01*
X142487796Y-93529083D01*
X142660507Y-93644486D01*
X142852414Y-93723976D01*
X143056141Y-93764500D01*
X143056142Y-93764500D01*
X143263858Y-93764500D01*
X143263859Y-93764500D01*
X143467586Y-93723976D01*
X143659493Y-93644486D01*
X143679077Y-93631400D01*
X146933675Y-93631400D01*
X146952912Y-93802144D01*
X147009664Y-93964330D01*
X147009665Y-93964333D01*
X147101079Y-94109817D01*
X147101080Y-94109819D01*
X147222580Y-94231319D01*
X147222582Y-94231320D01*
X147368066Y-94322734D01*
X147368067Y-94322734D01*
X147368070Y-94322736D01*
X147530254Y-94379487D01*
X147530253Y-94379487D01*
X147547543Y-94381434D01*
X147701000Y-94398725D01*
X147871746Y-94379487D01*
X148033930Y-94322736D01*
X148179419Y-94231319D01*
X148300919Y-94109819D01*
X148392336Y-93964330D01*
X148449087Y-93802146D01*
X148468325Y-93631400D01*
X148449087Y-93460654D01*
X148392336Y-93298470D01*
X148392334Y-93298467D01*
X148392334Y-93298466D01*
X148341774Y-93218000D01*
X149727675Y-93218000D01*
X149746912Y-93388744D01*
X149803664Y-93550930D01*
X149803665Y-93550933D01*
X149895079Y-93696417D01*
X149895080Y-93696419D01*
X150016580Y-93817919D01*
X150016582Y-93817920D01*
X150162066Y-93909334D01*
X150162067Y-93909334D01*
X150162070Y-93909336D01*
X150324254Y-93966087D01*
X150324253Y-93966087D01*
X150341543Y-93968034D01*
X150495000Y-93985325D01*
X150665746Y-93966087D01*
X150827930Y-93909336D01*
X150973419Y-93817919D01*
X151094919Y-93696419D01*
X151186336Y-93550930D01*
X151243087Y-93388746D01*
X151262325Y-93218000D01*
X151243087Y-93047254D01*
X151186336Y-92885070D01*
X151186334Y-92885067D01*
X151186334Y-92885066D01*
X151094920Y-92739582D01*
X151094919Y-92739580D01*
X150973419Y-92618080D01*
X150973417Y-92618079D01*
X150827933Y-92526665D01*
X150827930Y-92526664D01*
X150768996Y-92506042D01*
X150665746Y-92469913D01*
X150665744Y-92469912D01*
X150665746Y-92469912D01*
X150542264Y-92456000D01*
X151378675Y-92456000D01*
X151397912Y-92626744D01*
X151454664Y-92788930D01*
X151454665Y-92788933D01*
X151546079Y-92934417D01*
X151546080Y-92934419D01*
X151667580Y-93055919D01*
X151667582Y-93055920D01*
X151813066Y-93147334D01*
X151813067Y-93147334D01*
X151813070Y-93147336D01*
X151975254Y-93204087D01*
X151975253Y-93204087D01*
X151992543Y-93206034D01*
X152146000Y-93223325D01*
X152316746Y-93204087D01*
X152478930Y-93147336D01*
X152624419Y-93055919D01*
X152745919Y-92934419D01*
X152837336Y-92788930D01*
X152894087Y-92626746D01*
X152913325Y-92456000D01*
X152894087Y-92285254D01*
X152837336Y-92123070D01*
X152837334Y-92123067D01*
X152837334Y-92123066D01*
X152745920Y-91977582D01*
X152745919Y-91977580D01*
X152624419Y-91856080D01*
X152624417Y-91856079D01*
X152478933Y-91764665D01*
X152478930Y-91764664D01*
X152442510Y-91751920D01*
X152316746Y-91707913D01*
X152316744Y-91707912D01*
X152316746Y-91707912D01*
X152146000Y-91688675D01*
X151975255Y-91707912D01*
X151813069Y-91764664D01*
X151813066Y-91764665D01*
X151667582Y-91856079D01*
X151667580Y-91856080D01*
X151546080Y-91977580D01*
X151546079Y-91977582D01*
X151454665Y-92123066D01*
X151454664Y-92123069D01*
X151397912Y-92285255D01*
X151378675Y-92456000D01*
X150542264Y-92456000D01*
X150495000Y-92450675D01*
X150324255Y-92469912D01*
X150162069Y-92526664D01*
X150162066Y-92526665D01*
X150016582Y-92618079D01*
X150016580Y-92618080D01*
X149895080Y-92739580D01*
X149895079Y-92739582D01*
X149803665Y-92885066D01*
X149803664Y-92885069D01*
X149746912Y-93047255D01*
X149727675Y-93218000D01*
X148341774Y-93218000D01*
X148300920Y-93152982D01*
X148300919Y-93152980D01*
X148179419Y-93031480D01*
X148179417Y-93031479D01*
X148033933Y-92940065D01*
X148033930Y-92940064D01*
X147977319Y-92920255D01*
X147871746Y-92883313D01*
X147871744Y-92883312D01*
X147871746Y-92883312D01*
X147701000Y-92864075D01*
X147530255Y-92883312D01*
X147368069Y-92940064D01*
X147368066Y-92940065D01*
X147222582Y-93031479D01*
X147222580Y-93031480D01*
X147101080Y-93152980D01*
X147101079Y-93152982D01*
X147009665Y-93298466D01*
X147009664Y-93298469D01*
X146952912Y-93460655D01*
X146933675Y-93631400D01*
X143679077Y-93631400D01*
X143832204Y-93529083D01*
X143979083Y-93382204D01*
X144094486Y-93209493D01*
X144173976Y-93017586D01*
X144214500Y-92813859D01*
X144214500Y-92606141D01*
X144173976Y-92402414D01*
X144094486Y-92210507D01*
X143979083Y-92037796D01*
X143979078Y-92037790D01*
X143832209Y-91890921D01*
X143832203Y-91890916D01*
X143694956Y-91799210D01*
X143659493Y-91775514D01*
X143467586Y-91696024D01*
X143457411Y-91694000D01*
X143263861Y-91655500D01*
X143263859Y-91655500D01*
X143056141Y-91655500D01*
X143056138Y-91655500D01*
X142852413Y-91696024D01*
X142852408Y-91696026D01*
X142660507Y-91775514D01*
X142487796Y-91890916D01*
X142487790Y-91890921D01*
X142340921Y-92037790D01*
X142340916Y-92037796D01*
X142225514Y-92210507D01*
X142146026Y-92402408D01*
X142146024Y-92402413D01*
X142105500Y-92606138D01*
X138214499Y-92606138D01*
X138173976Y-92402414D01*
X138094486Y-92210507D01*
X137979083Y-92037796D01*
X137979078Y-92037790D01*
X137832209Y-91890921D01*
X137832203Y-91890916D01*
X137694956Y-91799210D01*
X137659493Y-91775514D01*
X137467586Y-91696024D01*
X137457411Y-91694000D01*
X137263861Y-91655500D01*
X137263859Y-91655500D01*
X137056141Y-91655500D01*
X137056138Y-91655500D01*
X136852413Y-91696024D01*
X136852408Y-91696026D01*
X136660507Y-91775514D01*
X136487796Y-91890916D01*
X136487790Y-91890921D01*
X136340921Y-92037790D01*
X136340916Y-92037796D01*
X136225514Y-92210507D01*
X136146026Y-92402408D01*
X136146024Y-92402413D01*
X136105500Y-92606138D01*
X132232900Y-92606138D01*
X132232900Y-91440000D01*
X155950675Y-91440000D01*
X155969912Y-91610744D01*
X156026664Y-91772930D01*
X156026665Y-91772933D01*
X156118079Y-91918417D01*
X156118080Y-91918419D01*
X156239580Y-92039919D01*
X156239582Y-92039920D01*
X156385066Y-92131334D01*
X156385067Y-92131334D01*
X156385070Y-92131336D01*
X156547254Y-92188087D01*
X156547253Y-92188087D01*
X156568933Y-92190529D01*
X156718000Y-92207325D01*
X156755741Y-92203072D01*
X156825670Y-92215321D01*
X156877879Y-92263433D01*
X156895788Y-92332134D01*
X156873712Y-92399611D01*
X156836884Y-92434967D01*
X156747579Y-92491081D01*
X156626080Y-92612580D01*
X156626079Y-92612582D01*
X156534665Y-92758066D01*
X156534664Y-92758069D01*
X156477912Y-92920255D01*
X156458675Y-93091000D01*
X156477912Y-93261744D01*
X156534664Y-93423930D01*
X156534665Y-93423933D01*
X156626079Y-93569417D01*
X156626080Y-93569419D01*
X156747580Y-93690919D01*
X156747582Y-93690920D01*
X156893066Y-93782334D01*
X156893067Y-93782334D01*
X156893070Y-93782336D01*
X157055254Y-93839087D01*
X157055253Y-93839087D01*
X157072543Y-93841034D01*
X157226000Y-93858325D01*
X157396746Y-93839087D01*
X157558930Y-93782336D01*
X157704419Y-93690919D01*
X157825919Y-93569419D01*
X157917336Y-93423930D01*
X157974087Y-93261746D01*
X157993325Y-93091000D01*
X157974087Y-92920254D01*
X157917336Y-92758070D01*
X157917334Y-92758067D01*
X157917334Y-92758066D01*
X157825920Y-92612582D01*
X157825919Y-92612580D01*
X157704419Y-92491080D01*
X157704417Y-92491079D01*
X157558933Y-92399665D01*
X157558930Y-92399664D01*
X157558779Y-92399611D01*
X157396746Y-92342913D01*
X157396744Y-92342912D01*
X157396746Y-92342912D01*
X157243289Y-92325622D01*
X157226000Y-92323675D01*
X157225999Y-92323675D01*
X157188258Y-92327927D01*
X157118326Y-92315677D01*
X157066119Y-92267563D01*
X157048211Y-92198862D01*
X157070289Y-92131386D01*
X157107117Y-92096031D01*
X157196417Y-92039920D01*
X157196419Y-92039919D01*
X157317919Y-91918419D01*
X157409336Y-91772930D01*
X157436955Y-91694000D01*
X158502693Y-91694000D01*
X158520291Y-91895156D01*
X158521885Y-91913370D01*
X158578879Y-92126073D01*
X158578881Y-92126079D01*
X158620495Y-92215321D01*
X158671944Y-92325654D01*
X158759485Y-92450675D01*
X158798251Y-92506038D01*
X158798254Y-92506042D01*
X158953957Y-92661745D01*
X158953961Y-92661748D01*
X158953962Y-92661749D01*
X159134346Y-92788056D01*
X159333924Y-92881120D01*
X159546629Y-92938115D01*
X159766000Y-92957307D01*
X159985371Y-92938115D01*
X160198076Y-92881120D01*
X160397654Y-92788056D01*
X160578038Y-92661749D01*
X160733749Y-92506038D01*
X160860056Y-92325654D01*
X160953120Y-92126076D01*
X161010115Y-91913371D01*
X161029307Y-91694000D01*
X161010115Y-91474629D01*
X160953120Y-91261924D01*
X160860056Y-91062347D01*
X160733749Y-90881962D01*
X160578038Y-90726251D01*
X160572138Y-90722120D01*
X160501524Y-90672675D01*
X160397654Y-90599944D01*
X160397650Y-90599942D01*
X160198079Y-90506881D01*
X160198073Y-90506879D01*
X160108178Y-90482791D01*
X159985371Y-90449885D01*
X159766000Y-90430693D01*
X159546629Y-90449885D01*
X159333926Y-90506879D01*
X159333920Y-90506881D01*
X159134346Y-90599944D01*
X158953965Y-90726248D01*
X158953959Y-90726253D01*
X158798253Y-90881959D01*
X158798248Y-90881965D01*
X158671944Y-91062346D01*
X158578881Y-91261920D01*
X158578879Y-91261926D01*
X158531164Y-91439999D01*
X158521885Y-91474629D01*
X158502693Y-91694000D01*
X157436955Y-91694000D01*
X157466087Y-91610746D01*
X157485325Y-91440000D01*
X157466087Y-91269254D01*
X157409336Y-91107070D01*
X157409334Y-91107067D01*
X157409334Y-91107066D01*
X157317920Y-90961582D01*
X157317919Y-90961580D01*
X157196419Y-90840080D01*
X157196417Y-90840079D01*
X157050933Y-90748665D01*
X157050930Y-90748664D01*
X156986883Y-90726253D01*
X156888746Y-90691913D01*
X156888744Y-90691912D01*
X156888746Y-90691912D01*
X156718000Y-90672675D01*
X156547255Y-90691912D01*
X156385069Y-90748664D01*
X156385066Y-90748665D01*
X156239582Y-90840079D01*
X156239580Y-90840080D01*
X156118080Y-90961580D01*
X156118079Y-90961582D01*
X156026665Y-91107066D01*
X156026664Y-91107069D01*
X155969912Y-91269255D01*
X155950675Y-91440000D01*
X132232900Y-91440000D01*
X132232900Y-89535000D01*
X149854675Y-89535000D01*
X149873912Y-89705744D01*
X149930664Y-89867930D01*
X149930665Y-89867933D01*
X150022079Y-90013417D01*
X150022080Y-90013419D01*
X150143580Y-90134919D01*
X150143582Y-90134920D01*
X150289066Y-90226334D01*
X150289067Y-90226334D01*
X150289070Y-90226336D01*
X150451254Y-90283087D01*
X150451253Y-90283087D01*
X150470491Y-90285254D01*
X150622000Y-90302325D01*
X150745248Y-90288438D01*
X150815177Y-90300687D01*
X150867385Y-90348800D01*
X150885294Y-90417501D01*
X150884561Y-90427753D01*
X150870675Y-90550999D01*
X150889912Y-90721744D01*
X150946664Y-90883930D01*
X150946665Y-90883933D01*
X151038079Y-91029417D01*
X151038080Y-91029419D01*
X151159580Y-91150919D01*
X151159582Y-91150920D01*
X151305066Y-91242334D01*
X151305067Y-91242334D01*
X151305070Y-91242336D01*
X151467254Y-91299087D01*
X151467253Y-91299087D01*
X151484543Y-91301034D01*
X151638000Y-91318325D01*
X151808746Y-91299087D01*
X151970930Y-91242336D01*
X152116419Y-91150919D01*
X152237919Y-91029419D01*
X152329336Y-90883930D01*
X152386087Y-90721746D01*
X152405325Y-90551000D01*
X152775675Y-90551000D01*
X152794912Y-90721744D01*
X152851664Y-90883930D01*
X152851665Y-90883933D01*
X152943079Y-91029417D01*
X152943080Y-91029419D01*
X153064580Y-91150919D01*
X153064582Y-91150920D01*
X153210066Y-91242334D01*
X153210067Y-91242334D01*
X153210070Y-91242336D01*
X153372254Y-91299087D01*
X153372253Y-91299087D01*
X153389543Y-91301034D01*
X153543000Y-91318325D01*
X153713746Y-91299087D01*
X153875930Y-91242336D01*
X154021419Y-91150919D01*
X154142919Y-91029419D01*
X154234336Y-90883930D01*
X154291087Y-90721746D01*
X154310325Y-90551000D01*
X154291087Y-90380254D01*
X154234336Y-90218070D01*
X154234334Y-90218067D01*
X154234334Y-90218066D01*
X154142920Y-90072582D01*
X154142919Y-90072580D01*
X154021419Y-89951080D01*
X154021417Y-89951079D01*
X153875933Y-89859665D01*
X153875930Y-89859664D01*
X153863213Y-89855214D01*
X153713746Y-89802913D01*
X153713744Y-89802912D01*
X153713746Y-89802912D01*
X153543000Y-89783675D01*
X153372255Y-89802912D01*
X153210069Y-89859664D01*
X153210066Y-89859665D01*
X153064582Y-89951079D01*
X153064580Y-89951080D01*
X152943080Y-90072580D01*
X152943079Y-90072582D01*
X152851665Y-90218066D01*
X152851664Y-90218069D01*
X152794912Y-90380255D01*
X152775675Y-90551000D01*
X152405325Y-90551000D01*
X152386087Y-90380254D01*
X152329336Y-90218070D01*
X152329334Y-90218067D01*
X152329334Y-90218066D01*
X152237920Y-90072582D01*
X152237919Y-90072580D01*
X152116419Y-89951080D01*
X152116417Y-89951079D01*
X151970933Y-89859665D01*
X151970930Y-89859664D01*
X151958213Y-89855214D01*
X151808746Y-89802913D01*
X151808744Y-89802912D01*
X151808746Y-89802912D01*
X151652520Y-89785311D01*
X151638000Y-89783675D01*
X151637999Y-89783675D01*
X151514753Y-89797561D01*
X151444821Y-89785311D01*
X151392613Y-89737198D01*
X151374705Y-89668497D01*
X151375436Y-89658268D01*
X151389325Y-89535000D01*
X156724693Y-89535000D01*
X156743885Y-89754371D01*
X156755458Y-89797561D01*
X156796593Y-89951079D01*
X156800880Y-89967076D01*
X156893944Y-90166654D01*
X157020251Y-90347038D01*
X157020254Y-90347042D01*
X157175957Y-90502745D01*
X157175961Y-90502748D01*
X157175962Y-90502749D01*
X157356346Y-90629056D01*
X157555924Y-90722120D01*
X157768629Y-90779115D01*
X157988000Y-90798307D01*
X158207371Y-90779115D01*
X158420076Y-90722120D01*
X158619654Y-90629056D01*
X158800038Y-90502749D01*
X158955749Y-90347038D01*
X159082056Y-90166654D01*
X159175120Y-89967076D01*
X159232115Y-89754371D01*
X159251307Y-89535000D01*
X159232115Y-89315629D01*
X159175120Y-89102924D01*
X159082056Y-88903347D01*
X158955749Y-88722962D01*
X158800038Y-88567251D01*
X158619654Y-88440944D01*
X158619650Y-88440942D01*
X158420079Y-88347881D01*
X158420073Y-88347879D01*
X158274028Y-88308746D01*
X158207371Y-88290885D01*
X157988000Y-88271693D01*
X157768629Y-88290885D01*
X157555926Y-88347879D01*
X157555920Y-88347881D01*
X157356346Y-88440944D01*
X157175965Y-88567248D01*
X157175959Y-88567253D01*
X157020253Y-88722959D01*
X157020248Y-88722965D01*
X156893944Y-88903346D01*
X156800881Y-89102920D01*
X156800879Y-89102926D01*
X156743885Y-89315629D01*
X156724693Y-89535000D01*
X151389325Y-89535000D01*
X151370087Y-89364254D01*
X151313336Y-89202070D01*
X151313334Y-89202067D01*
X151313334Y-89202066D01*
X151221920Y-89056582D01*
X151221919Y-89056580D01*
X151100419Y-88935080D01*
X151100417Y-88935079D01*
X150954933Y-88843665D01*
X150954930Y-88843664D01*
X150897182Y-88823457D01*
X150792746Y-88786913D01*
X150792744Y-88786912D01*
X150792746Y-88786912D01*
X150622000Y-88767675D01*
X150451255Y-88786912D01*
X150289069Y-88843664D01*
X150289066Y-88843665D01*
X150143582Y-88935079D01*
X150143580Y-88935080D01*
X150022080Y-89056580D01*
X150022079Y-89056582D01*
X149930665Y-89202066D01*
X149930664Y-89202069D01*
X149873912Y-89364255D01*
X149854675Y-89535000D01*
X132232900Y-89535000D01*
X132232900Y-87916400D01*
X147695675Y-87916400D01*
X147714912Y-88087144D01*
X147771664Y-88249330D01*
X147771665Y-88249333D01*
X147863079Y-88394817D01*
X147863080Y-88394819D01*
X147984580Y-88516319D01*
X147984582Y-88516320D01*
X148130066Y-88607734D01*
X148130067Y-88607734D01*
X148130070Y-88607736D01*
X148292254Y-88664487D01*
X148292253Y-88664487D01*
X148309543Y-88666434D01*
X148463000Y-88683725D01*
X148633746Y-88664487D01*
X148795930Y-88607736D01*
X148941419Y-88516319D01*
X149062919Y-88394819D01*
X149154336Y-88249330D01*
X149211087Y-88087146D01*
X149230325Y-87916400D01*
X149211087Y-87745654D01*
X149154336Y-87583470D01*
X149143314Y-87565929D01*
X149122095Y-87532158D01*
X149102789Y-87463837D01*
X149123484Y-87395924D01*
X149177611Y-87349981D01*
X149187158Y-87346196D01*
X149303930Y-87305336D01*
X149449419Y-87213919D01*
X149570919Y-87092419D01*
X149662336Y-86946930D01*
X149673707Y-86914433D01*
X149715083Y-86856744D01*
X149751015Y-86837123D01*
X149842330Y-86805171D01*
X149987819Y-86713754D01*
X150109319Y-86592254D01*
X150200736Y-86446765D01*
X150257487Y-86284581D01*
X150276725Y-86113835D01*
X150257487Y-85943089D01*
X150247999Y-85915974D01*
X152204649Y-85915974D01*
X152223886Y-86086718D01*
X152280638Y-86248904D01*
X152280639Y-86248907D01*
X152372053Y-86394391D01*
X152372054Y-86394393D01*
X152493554Y-86515893D01*
X152493556Y-86515894D01*
X152639040Y-86607308D01*
X152639041Y-86607308D01*
X152639044Y-86607310D01*
X152801228Y-86664061D01*
X152801227Y-86664061D01*
X152818517Y-86666008D01*
X152971974Y-86683299D01*
X153142720Y-86664061D01*
X153304904Y-86607310D01*
X153450393Y-86515893D01*
X153532200Y-86434085D01*
X153594510Y-86400062D01*
X153665326Y-86405126D01*
X153722162Y-86447672D01*
X153740222Y-86481564D01*
X153741278Y-86484583D01*
X153741280Y-86484587D01*
X153832694Y-86630071D01*
X153832695Y-86630073D01*
X153954195Y-86751573D01*
X153954197Y-86751574D01*
X153966027Y-86759008D01*
X154013065Y-86812187D01*
X154023885Y-86882354D01*
X153995052Y-86947232D01*
X153935720Y-86986223D01*
X153913098Y-86990903D01*
X153753255Y-87008912D01*
X153591069Y-87065664D01*
X153591066Y-87065665D01*
X153445582Y-87157079D01*
X153445580Y-87157080D01*
X153324080Y-87278580D01*
X153324079Y-87278582D01*
X153232665Y-87424066D01*
X153232664Y-87424069D01*
X153175912Y-87586255D01*
X153156675Y-87757000D01*
X153175912Y-87927744D01*
X153232664Y-88089930D01*
X153232665Y-88089933D01*
X153324079Y-88235417D01*
X153324080Y-88235419D01*
X153445580Y-88356919D01*
X153445582Y-88356920D01*
X153591066Y-88448334D01*
X153591067Y-88448334D01*
X153591070Y-88448336D01*
X153753254Y-88505087D01*
X153753253Y-88505087D01*
X153770543Y-88507034D01*
X153924000Y-88524325D01*
X154094746Y-88505087D01*
X154256930Y-88448336D01*
X154402419Y-88356919D01*
X154523919Y-88235419D01*
X154585132Y-88138000D01*
X163443675Y-88138000D01*
X163462912Y-88308744D01*
X163519664Y-88470930D01*
X163519665Y-88470933D01*
X163611079Y-88616417D01*
X163611080Y-88616419D01*
X163732580Y-88737919D01*
X163732582Y-88737920D01*
X163878066Y-88829334D01*
X163878067Y-88829334D01*
X163878070Y-88829336D01*
X164040254Y-88886087D01*
X164040253Y-88886087D01*
X164057543Y-88888034D01*
X164211000Y-88905325D01*
X164381746Y-88886087D01*
X164543930Y-88829336D01*
X164543932Y-88829334D01*
X164550384Y-88827077D01*
X164621289Y-88823457D01*
X164633616Y-88827077D01*
X164640067Y-88829334D01*
X164640070Y-88829336D01*
X164802254Y-88886087D01*
X164973000Y-88905325D01*
X165143746Y-88886087D01*
X165305930Y-88829336D01*
X165451419Y-88737919D01*
X165572919Y-88616419D01*
X165664336Y-88470930D01*
X165721087Y-88308746D01*
X165740325Y-88138000D01*
X165721087Y-87967254D01*
X165664336Y-87805070D01*
X165664334Y-87805067D01*
X165664334Y-87805066D01*
X165572920Y-87659582D01*
X165572919Y-87659580D01*
X165451419Y-87538080D01*
X165451417Y-87538079D01*
X165305933Y-87446665D01*
X165305930Y-87446664D01*
X165281118Y-87437982D01*
X165143746Y-87389913D01*
X165143744Y-87389912D01*
X165143746Y-87389912D01*
X164973000Y-87370675D01*
X164802255Y-87389912D01*
X164633615Y-87448922D01*
X164562711Y-87452541D01*
X164550385Y-87448922D01*
X164381743Y-87389912D01*
X164381746Y-87389912D01*
X164211000Y-87370675D01*
X164040255Y-87389912D01*
X163878069Y-87446664D01*
X163878066Y-87446665D01*
X163732582Y-87538079D01*
X163732580Y-87538080D01*
X163611080Y-87659580D01*
X163611079Y-87659582D01*
X163519665Y-87805066D01*
X163519664Y-87805069D01*
X163462912Y-87967255D01*
X163443675Y-88138000D01*
X154585132Y-88138000D01*
X154615336Y-88089930D01*
X154672087Y-87927746D01*
X154691325Y-87757000D01*
X154672087Y-87586254D01*
X154615336Y-87424070D01*
X154615334Y-87424067D01*
X154615334Y-87424066D01*
X154523920Y-87278582D01*
X154523919Y-87278580D01*
X154402418Y-87157079D01*
X154390585Y-87149644D01*
X154343548Y-87096465D01*
X154332729Y-87026297D01*
X154361563Y-86961419D01*
X154420896Y-86922430D01*
X154443509Y-86917751D01*
X154603361Y-86899741D01*
X154765545Y-86842990D01*
X154911034Y-86751573D01*
X155032534Y-86630073D01*
X155123951Y-86484584D01*
X155180702Y-86322400D01*
X155199940Y-86151654D01*
X155180702Y-85980908D01*
X155123951Y-85818724D01*
X155123949Y-85818721D01*
X155123949Y-85818720D01*
X155032535Y-85673236D01*
X155032534Y-85673234D01*
X154911034Y-85551734D01*
X154911032Y-85551733D01*
X154765548Y-85460319D01*
X154765545Y-85460318D01*
X154700495Y-85437556D01*
X154603361Y-85403567D01*
X154603359Y-85403566D01*
X154603361Y-85403566D01*
X154432615Y-85384329D01*
X154261870Y-85403566D01*
X154099684Y-85460318D01*
X154099681Y-85460319D01*
X153954198Y-85551732D01*
X153872389Y-85633541D01*
X153810077Y-85667566D01*
X153739261Y-85662500D01*
X153682425Y-85619953D01*
X153664364Y-85586058D01*
X153663310Y-85583044D01*
X153663308Y-85583041D01*
X153663308Y-85583040D01*
X153571894Y-85437556D01*
X153571893Y-85437554D01*
X153450393Y-85316054D01*
X153450391Y-85316053D01*
X153304907Y-85224639D01*
X153304904Y-85224638D01*
X153142720Y-85167887D01*
X153142718Y-85167886D01*
X153142720Y-85167886D01*
X152971974Y-85148649D01*
X152801229Y-85167886D01*
X152639043Y-85224638D01*
X152639040Y-85224639D01*
X152493556Y-85316053D01*
X152493554Y-85316054D01*
X152372054Y-85437554D01*
X152372053Y-85437556D01*
X152280639Y-85583040D01*
X152280638Y-85583043D01*
X152223886Y-85745229D01*
X152204649Y-85915974D01*
X150247999Y-85915974D01*
X150200736Y-85780905D01*
X150200734Y-85780902D01*
X150200734Y-85780901D01*
X150109320Y-85635417D01*
X150109319Y-85635415D01*
X149987819Y-85513915D01*
X149987817Y-85513914D01*
X149842333Y-85422500D01*
X149842330Y-85422499D01*
X149680146Y-85365748D01*
X149680144Y-85365747D01*
X149680146Y-85365747D01*
X149509400Y-85346510D01*
X149338655Y-85365747D01*
X149176469Y-85422499D01*
X149176466Y-85422500D01*
X149030982Y-85513914D01*
X149030980Y-85513915D01*
X148909480Y-85635415D01*
X148909479Y-85635417D01*
X148818064Y-85780902D01*
X148806691Y-85813403D01*
X148765310Y-85871093D01*
X148729380Y-85890712D01*
X148638067Y-85922665D01*
X148492582Y-86014079D01*
X148492580Y-86014080D01*
X148371080Y-86135580D01*
X148371079Y-86135582D01*
X148279665Y-86281066D01*
X148279664Y-86281069D01*
X148222912Y-86443255D01*
X148203675Y-86614000D01*
X148222912Y-86784744D01*
X148279664Y-86946930D01*
X148279665Y-86946933D01*
X148311904Y-86998241D01*
X148331210Y-87066563D01*
X148310514Y-87134476D01*
X148256387Y-87180419D01*
X148246833Y-87184206D01*
X148130067Y-87225065D01*
X148130066Y-87225065D01*
X147984582Y-87316479D01*
X147984580Y-87316480D01*
X147863080Y-87437980D01*
X147863079Y-87437982D01*
X147771665Y-87583466D01*
X147771664Y-87583469D01*
X147714912Y-87745655D01*
X147695675Y-87916400D01*
X132232900Y-87916400D01*
X132232900Y-83823805D01*
X132233130Y-83816198D01*
X132234740Y-83789586D01*
X132249845Y-83539862D01*
X132251676Y-83524784D01*
X132300893Y-83256213D01*
X132304526Y-83241473D01*
X132385761Y-82980780D01*
X132391148Y-82966579D01*
X132503203Y-82717601D01*
X132510261Y-82704151D01*
X132651521Y-82470480D01*
X132660144Y-82457987D01*
X132828540Y-82243045D01*
X132838616Y-82231673D01*
X133031673Y-82038616D01*
X133043045Y-82028540D01*
X133257987Y-81860144D01*
X133270480Y-81851521D01*
X133504151Y-81710261D01*
X133517601Y-81703203D01*
X133766579Y-81591148D01*
X133780780Y-81585761D01*
X134041473Y-81504526D01*
X134056213Y-81500893D01*
X134324784Y-81451676D01*
X134339862Y-81449845D01*
X134591664Y-81434614D01*
X134616199Y-81433130D01*
X134623806Y-81432900D01*
X134654898Y-81432900D01*
X147484631Y-81432900D01*
X147552752Y-81452902D01*
G37*
%TD.AperFunction*%
%TD*%
M02*
