%TF.GenerationSoftware,KiCad,Pcbnew,8.0.5*%
%TF.CreationDate,2024-09-24T12:34:28-04:00*%
%TF.ProjectId,afe-featherwing,6166652d-6665-4617-9468-657277696e67,rev?*%
%TF.SameCoordinates,Original*%
%TF.FileFunction,Soldermask,Bot*%
%TF.FilePolarity,Negative*%
%FSLAX46Y46*%
G04 Gerber Fmt 4.6, Leading zero omitted, Abs format (unit mm)*
G04 Created by KiCad (PCBNEW 8.0.5) date 2024-09-24 12:34:28*
%MOMM*%
%LPD*%
G01*
G04 APERTURE LIST*
G04 Aperture macros list*
%AMRoundRect*
0 Rectangle with rounded corners*
0 $1 Rounding radius*
0 $2 $3 $4 $5 $6 $7 $8 $9 X,Y pos of 4 corners*
0 Add a 4 corners polygon primitive as box body*
4,1,4,$2,$3,$4,$5,$6,$7,$8,$9,$2,$3,0*
0 Add four circle primitives for the rounded corners*
1,1,$1+$1,$2,$3*
1,1,$1+$1,$4,$5*
1,1,$1+$1,$6,$7*
1,1,$1+$1,$8,$9*
0 Add four rect primitives between the rounded corners*
20,1,$1+$1,$2,$3,$4,$5,0*
20,1,$1+$1,$4,$5,$6,$7,0*
20,1,$1+$1,$6,$7,$8,$9,0*
20,1,$1+$1,$8,$9,$2,$3,0*%
%AMFreePoly0*
4,1,6,1.000000,0.000000,0.500000,-0.750000,-0.500000,-0.750000,-0.500000,0.750000,0.500000,0.750000,1.000000,0.000000,1.000000,0.000000,$1*%
%AMFreePoly1*
4,1,6,0.500000,-0.750000,-0.650000,-0.750000,-0.150000,0.000000,-0.650000,0.750000,0.500000,0.750000,0.500000,-0.750000,0.500000,-0.750000,$1*%
G04 Aperture macros list end*
%ADD10FreePoly0,90.000000*%
%ADD11FreePoly1,90.000000*%
%ADD12C,1.500000*%
%ADD13R,1.500000X1.000000*%
%ADD14FreePoly0,270.000000*%
%ADD15FreePoly1,270.000000*%
%ADD16C,1.600000*%
%ADD17RoundRect,0.444500X-0.444500X0.444500X-0.444500X-0.444500X0.444500X-0.444500X0.444500X0.444500X0*%
%ADD18C,1.778000*%
%ADD19C,1.700000*%
%ADD20O,1.700000X1.700000*%
G04 APERTURE END LIST*
D10*
%TO.C,JP8*%
X158877000Y-100965000D03*
D11*
X158877000Y-99515000D03*
%TD*%
D10*
%TO.C,JP7*%
X161309400Y-100965000D03*
D11*
X161309400Y-99515000D03*
%TD*%
D12*
%TO.C,TP8*%
X154940000Y-97790000D03*
%TD*%
%TO.C,TP7*%
X159766000Y-91694000D03*
%TD*%
%TO.C,TP6*%
X157988000Y-89535000D03*
%TD*%
%TO.C,TP5*%
X156210000Y-100330000D03*
%TD*%
%TO.C,TP4*%
X153670000Y-100330000D03*
%TD*%
%TO.C,TP3*%
X151130000Y-100330000D03*
%TD*%
%TO.C,TP2*%
X148590000Y-100330000D03*
%TD*%
%TO.C,TP1*%
X149860000Y-97790000D03*
%TD*%
D13*
%TO.C,JP10*%
X172085000Y-95235000D03*
X172085000Y-96535000D03*
%TD*%
%TO.C,JP1*%
X155321000Y-86502000D03*
X155321000Y-85202000D03*
%TD*%
D14*
%TO.C,JP9*%
X174498000Y-95160000D03*
D15*
X174498000Y-96610000D03*
%TD*%
D10*
%TO.C,JP6*%
X166135400Y-100965000D03*
D11*
X166135400Y-99515000D03*
%TD*%
D13*
%TO.C,JP5*%
X163722400Y-100890000D03*
X163722400Y-99590000D03*
%TD*%
D10*
%TO.C,JP4*%
X148082000Y-86577000D03*
D11*
X148082000Y-85127000D03*
%TD*%
D10*
%TO.C,JP3*%
X150495000Y-86577000D03*
D11*
X150495000Y-85127000D03*
%TD*%
D10*
%TO.C,JP2*%
X152908000Y-86577000D03*
D11*
X152908000Y-85127000D03*
%TD*%
D16*
%TO.C,J1*%
X143160000Y-92710000D03*
X137160000Y-92710000D03*
%TD*%
D17*
%TO.C,J5*%
X169672000Y-88900000D03*
D18*
X169672000Y-91440000D03*
X169672000Y-93980000D03*
X169672000Y-96520000D03*
%TD*%
D19*
%TO.C,J3*%
X148590000Y-82550000D03*
D20*
X151130000Y-82550000D03*
X153670000Y-82550000D03*
X156210000Y-82550000D03*
X158750000Y-82550000D03*
X161290000Y-82550000D03*
X163830000Y-82550000D03*
X166370000Y-82550000D03*
X168910000Y-82550000D03*
X171450000Y-82550000D03*
X173990000Y-82550000D03*
X176530000Y-82550000D03*
%TD*%
%TO.C,J2*%
X138430000Y-102870000D03*
X140970000Y-102870000D03*
X143510000Y-102870000D03*
X146050000Y-102870000D03*
X148590000Y-102870000D03*
X151130000Y-102870000D03*
X153670000Y-102870000D03*
X156210000Y-102870000D03*
X158750000Y-102870000D03*
X161290000Y-102870000D03*
X163830000Y-102870000D03*
X166370000Y-102870000D03*
X168910000Y-102870000D03*
X171450000Y-102870000D03*
X173990000Y-102870000D03*
D19*
X176530000Y-102870000D03*
%TD*%
M02*
